SplineFontDB: 3.2
FontName: terriac
FullName: terriac Regular
FamilyName: terriac
Weight: Regular
Copyright: Copyright (c) 2025, TerribleAtCreating
Version: 002.000
ItalicAngle: 0
UnderlinePosition: -102.4
UnderlineWidth: 51.2
Ascent: 819
Descent: 205
InvalidEm: 0
LayerCount: 2
Layer: 0 0 "Back" 1
Layer: 1 0 "Fore" 0
XUID: [1021 308 -610143922 32752]
StyleMap: 0x0040
FSType: 0
OS2Version: 0
OS2_WeightWidthSlopeOnly: 0
OS2_UseTypoMetrics: 1
CreationTime: 1738091749
ModificationTime: 1738158341
PfmFamily: 81
TTFWeight: 400
TTFWidth: 5
LineGap: 94
VLineGap: 0
OS2TypoAscent: 0
OS2TypoAOffset: 1
OS2TypoDescent: 0
OS2TypoDOffset: 1
OS2TypoLinegap: 94
OS2WinAscent: 0
OS2WinAOffset: 1
OS2WinDescent: 0
OS2WinDOffset: 1
HheadAscent: 0
HheadAOffset: 1
HheadDescent: 0
HheadDOffset: 1
OS2Vendor: 'PfEd'
MarkAttachClasses: 1
DEI: 91125

StartChar: a
Encoding: 97 97 0
Width: 563
Flags: HW
LayerCount: 2
Fore
SplineSet
230 105 m 0
 271 134 307 201 331 297 c 2
 352 381 l 1
 341 393 l 1
 329 404 l 1
 273 403 l 1
 217 402 l 1
 177 375 l 2
 128 342 87 275 78 212 c 2
 71 164 l 1
 85 132 l 1
 98 100 l 1
 128 87 l 2
 163 72 190 77 230 105 c 0
85 28 m 0
 43 49 16 92 7 150 c 2
 0 194 l 1
 13 248 l 2
 35 339 103 423 179 455 c 2
 217 471 l 1
 281 471 l 1
 345 471 l 1
 379 450 l 2
 397 439 415 422 419 413 c 0
 423 404 417 348 408 288 c 0
 389 168 387 115 400 94 c 2
 409 80 l 1
 440 86 l 1
 470 93 l 1
 484 76 l 1
 498 60 l 1
 487 43 l 2
 481 34 462 21 444 16 c 2
 411 7 l 1
 386 19 l 2
 372 25 352 44 342 61 c 2
 323 92 l 1
 305 72 l 2
 255 16 151 -4 85 28 c 0
EndSplineSet
Validated: 33
EndChar

StartChar: b
Encoding: 98 98 1
Width: 580
Flags: HW
LayerCount: 2
Fore
SplineSet
259 93 m 0
 283 101 323 123 348 142 c 2
 394 177 l 1
 420 228 l 1
 445 279 l 1
 435 317 l 2
 422 365 391 404 350 425 c 2
 317 441 l 1
 260 441 l 1
 202 440 l 1
 164 422 l 1
 126 404 l 1
 100 365 l 1
 74 325 l 1
 69 229 l 2
 63 119 69 84 95 76 c 0
 124 68 212 77 259 93 c 0
81 9 m 0
 64 14 40 29 27 43 c 2
 3 68 l 1
 2 450 l 1
 0 832 l 1
 20 836 l 1
 40 840 l 1
 53 821 l 1
 67 803 l 1
 67 626 l 2
 67 529 69 448 73 448 c 0
 77 448 88 456 98 465 c 0
 143 506 271 523 356 499 c 0
 406 485 460 438 486 383 c 2
 507 339 l 1
 507 291 l 2
 507 227 487 182 431 122 c 2
 384 72 l 1
 324 45 l 2
 230 3 145 -9 81 9 c 0
EndSplineSet
Validated: 33
EndChar

StartChar: c
Encoding: 99 99 2
Width: 544
Flags: HW
LayerCount: 2
Fore
SplineSet
127 27 m 0
 80 38 36 68 17 100 c 2
 0 128 l 1
 0 200 l 1
 0 271 l 1
 15 314 l 2
 23 338 44 377 62 401 c 2
 94 446 l 1
 145 473 l 1
 196 501 l 1
 276 507 l 1
 356 512 l 1
 402 490 l 1
 448 467 l 1
 461 438 l 2
 468 422 470 403 466 397 c 0
 454 378 417 385 392 413 c 2
 367 440 l 1
 289 435 l 1
 210 431 l 1
 176 413 l 1
 142 395 l 1
 113 349 l 2
 97 323 77 277 71 246 c 2
 60 190 l 1
 74 152 l 1
 88 115 l 1
 123 103 l 2
 143 96 189 90 227 90 c 2
 295 89 l 1
 357 108 l 2
 425 129 444 125 439 88 c 2
 435 64 l 1
 369 41 l 1
 302 18 l 1
 230 19 l 2
 191 19 144 23 127 27 c 0
EndSplineSet
Validated: 33
EndChar

StartChar: d
Encoding: 100 100 3
Width: 704
Flags: HW
LayerCount: 2
Fore
SplineSet
333 105 m 0
 354 117 380 142 391 160 c 2
 411 192 l 1
 411 261 l 1
 411 331 l 1
 381 396 l 1
 350 461 l 1
 297 461 l 1
 244 461 l 1
 200 440 l 1
 156 418 l 1
 126 377 l 2
 109 354 88 308 78 272 c 2
 61 207 l 1
 73 172 l 2
 104 79 228 46 333 105 c 0
108 30 m 1
 66 49 l 1
 37 88 l 1
 7 126 l 1
 4 199 l 1
 0 271 l 1
 22 329 l 1
 43 387 l 1
 86 436 l 1
 129 484 l 1
 181 508 l 1
 232 532 l 1
 291 532 l 2
 324 532 367 525 387 517 c 2
 423 502 l 1
 426 515 l 2
 428 522 433 551 437 579 c 0
 446 650 473 757 490 791 c 2
 504 819 l 1
 525 819 l 2
 558 819 558 797 529 682 c 2
 502 575 l 1
 498 469 l 2
 494 373 490 182 492 143 c 0
 492 134 499 118 507 107 c 2
 522 88 l 1
 564 102 l 1
 607 116 l 1
 624 98 l 1
 642 81 l 1
 608 51 l 1
 575 20 l 1
 535 20 l 1
 495 20 l 1
 463 57 l 1
 431 94 l 1
 400 67 l 2
 383 52 352 33 332 25 c 2
 296 10 l 1
 223 10 l 1
 150 11 l 1
 108 30 l 1
EndSplineSet
Validated: 33
EndChar

StartChar: e
Encoding: 101 101 4
Width: 646
Flags: HW
LayerCount: 2
Fore
SplineSet
350 362 m 2
 374 379 402 407 413 426 c 2
 433 460 l 1
 422 471 l 2
 416 477 391 484 366 487 c 2
 320 492 l 1
 260 475 l 2
 179 452 116 413 97 376 c 2
 81 346 l 1
 94 341 l 2
 125 331 163 327 232 329 c 2
 306 331 l 1
 350 362 l 2
229 19 m 0
 115 35 52 72 19 146 c 2
 0 188 l 1
 0 255 l 1
 0 323 l 1
 16 368 l 2
 49 460 158 532 296 553 c 2
 365 563 l 1
 409 551 l 2
 433 544 465 528 479 514 c 2
 504 488 l 1
 498 452 l 2
 486 375 396 288 303 263 c 2
 261 252 l 1
 176 259 l 2
 129 263 84 269 75 272 c 2
 59 278 l 1
 66 233 l 2
 79 150 123 111 225 89 c 2
 282 77 l 1
 345 88 l 2
 380 94 435 111 466 125 c 0
 530 154 553 151 553 115 c 2
 553 91 l 1
 504 66 l 2
 413 20 326 6 229 19 c 0
EndSplineSet
Validated: 33
EndChar

StartChar: f
Encoding: 102 102 5
Width: 861
Flags: HW
LayerCount: 2
Fore
SplineSet
263 29 m 0
 256 33 237 67 219 105 c 2
 187 173 l 1
 178 238 l 2
 173 274 168 328 168 359 c 2
 168 416 l 1
 95 416 l 1
 22 415 l 1
 11 432 l 1
 0 449 l 1
 13 465 l 1
 27 482 l 1
 103 482 l 1
 179 482 l 1
 184 499 l 2
 187 509 201 548 215 586 c 2
 241 654 l 1
 290 700 l 2
 381 785 476 819 623 819 c 2
 716 819 l 1
 741 806 l 1
 767 793 l 1
 767 773 l 1
 767 753 l 1
 654 752 l 1
 542 751 l 1
 496 738 l 2
 391 708 325 657 286 573 c 0
 272 542 260 511 260 503 c 2
 260 490 l 1
 516 497 l 1
 772 505 l 1
 778 487 l 1
 785 470 l 1
 770 454 l 1
 755 439 l 1
 510 429 l 2
 375 424 259 417 252 415 c 2
 239 411 l 1
 239 341 l 2
 239 260 260 175 295 105 c 2
 320 56 l 1
 310 38 l 2
 300 19 283 16 263 29 c 0
EndSplineSet
Validated: 33
EndChar

StartChar: g
Encoding: 103 103 6
Width: 707
Flags: HW
LayerCount: 2
Fore
SplineSet
220 111 m 0
 279 138 369 223 420 301 c 2
 463 368 l 1
 457 384 l 2
 449 404 389 429 351 429 c 0
 310 429 213 387 163 347 c 2
 120 313 l 1
 96 261 l 2
 83 233 72 193 72 174 c 2
 72 139 l 1
 94 115 l 1
 116 92 l 1
 148 92 l 2
 165 92 197 101 220 111 c 0
179 -357 m 0
 137 -342 113 -319 113 -296 c 0
 113 -268 137 -262 184 -281 c 0
 333 -340 501 -212 543 -6 c 2
 555 56 l 1
 549 128 l 2
 542 207 522 306 513 306 c 0
 510 306 489 278 466 244 c 0
 387 125 256 32 155 23 c 2
 107 19 l 1
 74 40 l 2
 56 52 31 76 20 94 c 2
 0 127 l 1
 0 171 l 2
 0 195 10 239 22 271 c 2
 43 329 l 1
 92 375 l 2
 153 433 213 468 286 487 c 2
 343 502 l 1
 384 495 l 2
 407 491 445 478 470 464 c 0
 495 450 523 440 534 440 c 2
 553 440 l 1
 562 417 l 2
 579 373 603 260 615 172 c 2
 626 83 l 1
 615 12 l 2
 588 -162 519 -267 387 -334 c 2
 333 -362 l 1
 272 -365 l 2
 238 -367 196 -363 179 -357 c 0
EndSplineSet
Validated: 33
EndChar

StartChar: h
Encoding: 104 104 7
Width: 655
Flags: HW
LayerCount: 2
Fore
SplineSet
21 27 m 2
 7 44 l 1
 3 437 l 1
 0 830 l 1
 12 845 l 2
 28 864 37 864 57 844 c 2
 73 828 l 1
 73 571 l 1
 73 315 l 1
 120 358 l 2
 146 382 193 413 225 428 c 2
 283 456 l 1
 365 456 l 1
 447 456 l 1
 497 421 l 1
 547 386 l 1
 572 330 l 1
 598 274 l 1
 593 180 l 1
 588 86 l 1
 574 56 l 2
 566 39 551 24 542 22 c 2
 525 19 l 1
 515 38 l 1
 506 56 l 1
 520 128 l 1
 534 200 l 1
 528 243 l 2
 520 297 488 346 443 372 c 2
 409 392 l 1
 367 391 l 2
 277 389 152 318 103 239 c 2
 79 200 l 1
 78 118 l 2
 78 73 74 30 70 23 c 0
 59 5 38 7 21 27 c 2
EndSplineSet
Validated: 33
EndChar

StartChar: i
Encoding: 105 105 8
Width: 502
Flags: HW
LayerCount: 2
Fore
SplineSet
133 12 m 0
 123 18 107 37 99 53 c 2
 84 82 l 1
 84 162 l 2
 84 276 117 390 158 415 c 2
 176 426 l 1
 192 410 l 1
 208 394 l 1
 188 342 l 2
 177 314 162 262 156 227 c 2
 144 163 l 1
 151 122 l 2
 162 56 203 57 288 124 c 0
 317 147 348 165 359 165 c 0
 380 165 393 143 385 121 c 0
 379 105 295 40 252 17 c 0
 218 -1 160 -3 133 12 c 0
136 559 m 0
 129 567 125 586 127 602 c 2
 130 631 l 1
 155 643 l 1
 180 655 l 1
 198 646 l 2
 208 641 219 627 223 615 c 2
 229 594 l 1
 206 569 l 2
 180 541 154 537 136 559 c 0
EndSplineSet
Validated: 33
EndChar

StartChar: j
Encoding: 106 106 9
Width: 510
Flags: HW
LayerCount: 2
Fore
SplineSet
75 -245 m 2
 44 -224 0 -153 0 -122 c 0
 0 -102 20 -82 42 -82 c 2
 60 -82 l 1
 72 -120 l 2
 79 -141 91 -166 100 -176 c 2
 116 -194 l 1
 153 -194 l 1
 189 -194 l 1
 223 -174 l 2
 265 -148 314 -73 335 -0 c 2
 351 56 l 1
 345 153 l 1
 339 251 l 1
 317 323 l 2
 305 362 295 406 294 420 c 2
 292 446 l 1
 314 449 l 1
 337 452 l 1
 354 426 l 2
 363 412 380 364 392 320 c 2
 413 241 l 1
 414 118 l 1
 414 -5 l 1
 390 -61 l 2
 361 -131 308 -202 260 -235 c 2
 223 -260 l 1
 165 -263 l 1
 108 -267 l 1
 75 -245 l 2
250 650 m 1
 234 675 l 1
 247 698 l 2
 263 727 275 737 303 737 c 0
 328 737 358 708 358 683 c 0
 358 658 321 625 292 625 c 2
 267 625 l 1
 250 650 l 1
EndSplineSet
Validated: 1
EndChar

StartChar: k
Encoding: 107 107 10
Width: 529
Flags: HW
LayerCount: 2
Fore
SplineSet
363 15 m 0
 335 30 258 63 192 90 c 2
 72 139 l 1
 72 89 l 2
 72 62 68 33 65 24 c 2
 59 7 l 1
 36 7 l 1
 12 7 l 1
 6 24 l 2
 -4 50 -1 416 10 593 c 0
 21 761 30 803 57 813 c 2
 73 819 l 1
 88 805 l 1
 102 790 l 1
 92 739 l 2
 80 679 66 263 76 263 c 0
 80 263 147 296 225 335 c 2
 366 407 l 1
 383 401 l 1
 399 394 l 1
 399 370 l 1
 399 345 l 1
 261 276 l 2
 185 238 123 205 123 201 c 0
 123 197 165 177 217 156 c 0
 348 104 458 48 465 30 c 0
 472 11 453 -14 431 -13 c 0
 422 -13 391 0 363 15 c 0
EndSplineSet
Validated: 33
EndChar

StartChar: l
Encoding: 108 108 11
Width: 495
Flags: HW
LayerCount: 2
Fore
SplineSet
127 -10 m 0
 93 -2 52 45 35 95 c 0
 26 121 14 195 9 259 c 2
 0 376 l 1
 9 482 l 2
 25 670 57 805 86 816 c 0
 110 825 132 812 132 788 c 0
 132 776 125 744 117 717 c 0
 96 648 71 457 71 367 c 0
 71 220 99 88 136 62 c 0
 166 41 244 75 313 140 c 2
 346 170 l 1
 362 164 l 2
 371 161 381 150 385 140 c 2
 392 123 l 1
 334 69 l 1
 277 16 l 1
 228 -0 l 2
 179 -17 164 -19 127 -10 c 0
EndSplineSet
Validated: 33
EndChar

StartChar: m
Encoding: 109 109 12
Width: 827
Flags: HW
LayerCount: 2
Fore
SplineSet
11 46 m 1
 0 67 l 1
 11 259 l 2
 24 477 29 517 54 532 c 2
 72 543 l 1
 84 530 l 1
 96 518 l 1
 94 459 l 1
 92 400 l 1
 115 422 l 2
 148 453 225 487 265 487 c 0
 307 487 337 472 366 438 c 2
 388 412 l 1
 427 443 l 2
 449 460 483 479 504 486 c 2
 542 498 l 1
 578 492 l 1
 614 485 l 1
 655 450 l 1
 695 415 l 1
 713 369 l 1
 730 323 l 1
 726 244 l 1
 721 164 l 1
 698 111 l 1
 674 57 l 1
 655 51 l 2
 610 37 605 66 637 149 c 2
 659 205 l 1
 660 267 l 1
 661 328 l 1
 641 361 l 2
 630 379 606 402 587 411 c 2
 552 427 l 1
 527 421 l 2
 513 418 483 398 461 378 c 2
 421 341 l 1
 411 304 l 2
 406 283 397 232 391 189 c 0
 379 102 365 61 341 52 c 2
 325 46 l 1
 310 61 l 1
 295 76 l 1
 311 146 l 1
 327 216 l 1
 325 298 l 1
 323 381 l 1
 309 398 l 1
 295 415 l 1
 265 415 l 2
 208 415 138 359 97 282 c 2
 78 246 l 1
 72 139 l 1
 67 31 l 1
 45 28 l 1
 23 25 l 1
 11 46 l 1
EndSplineSet
Validated: 33
EndChar

StartChar: n
Encoding: 110 110 13
Width: 517
Flags: HW
LayerCount: 2
Fore
SplineSet
13 32 m 2
 0 48 l 1
 2 199 l 2
 3 282 7 383 11 425 c 2
 19 501 l 1
 36 512 l 1
 53 522 l 1
 70 508 l 1
 87 494 l 1
 80 417 l 1
 73 340 l 1
 119 382 l 2
 199 455 272 474 341 438 c 2
 377 419 l 1
 400 379 l 1
 423 339 l 1
 423 276 l 1
 423 213 l 1
 401 143 l 2
 376 63 367 47 340 47 c 0
 309 47 305 76 330 153 c 0
 343 193 354 247 354 273 c 2
 355 321 l 1
 338 348 l 2
 303 402 241 396 172 332 c 2
 126 290 l 1
 94 225 l 1
 62 160 l 1
 68 104 l 2
 72 73 72 42 69 33 c 0
 61 12 30 12 13 32 c 2
EndSplineSet
Validated: 33
EndChar

StartChar: o
Encoding: 111 111 14
Width: 594
Flags: HW
LayerCount: 2
Fore
SplineSet
279 98 m 0
 303 107 343 126 367 141 c 2
 410 168 l 1
 434 209 l 1
 457 251 l 1
 457 300 l 1
 457 349 l 1
 410 396 l 1
 363 443 l 1
 311 448 l 1
 259 453 l 1
 213 431 l 2
 133 392 70 294 70 208 c 2
 70 166 l 1
 88 138 l 2
 123 85 199 70 279 98 c 0
143 20 m 0
 128 25 99 39 79 51 c 2
 42 74 l 1
 21 115 l 1
 0 157 l 1
 4 225 l 1
 8 292 l 1
 31 338 l 2
 44 364 73 405 95 429 c 2
 135 472 l 1
 189 497 l 1
 243 522 l 1
 285 522 l 2
 339 522 412 500 452 472 c 2
 483 450 l 1
 505 402 l 1
 527 353 l 1
 527 295 l 1
 527 236 l 1
 504 190 l 2
 476 132 425 87 344 49 c 2
 280 19 l 1
 225 15 l 2
 195 13 158 15 143 20 c 0
EndSplineSet
EndChar

StartChar: p
Encoding: 112 112 15
Width: 661
Flags: HW
LayerCount: 2
Fore
SplineSet
263 96 m 0
 291 100 350 115 393 128 c 2
 472 152 l 1
 498 183 l 2
 540 233 530 278 466 341 c 0
 377 428 286 427 184 337 c 0
 136 295 119 254 110 165 c 2
 102 92 l 1
 121 87 l 2
 140 82 165 83 263 96 c 0
12 -356 m 2
 0 -341 l 1
 7 -240 l 2
 28 82 60 399 75 437 c 2
 84 460 l 1
 107 457 l 1
 130 454 l 1
 133 422 l 1
 136 389 l 1
 188 424 l 2
 216 443 258 464 281 470 c 2
 324 481 l 1
 363 475 l 2
 424 465 476 434 528 376 c 2
 575 324 l 1
 587 285 l 1
 599 246 l 1
 592 208 l 1
 584 171 l 1
 545 132 l 1
 506 93 l 1
 446 70 l 2
 365 40 250 19 166 19 c 2
 97 19 l 1
 91 -30 l 2
 88 -57 82 -139 78 -212 c 0
 74 -285 67 -351 61 -358 c 0
 47 -375 27 -374 12 -356 c 2
EndSplineSet
Validated: 33
EndChar

StartChar: q
Encoding: 113 113 16
Width: 590
Flags: HW
LayerCount: 2
Fore
SplineSet
222 104 m 2
 259 114 l 1
 313 163 l 1
 367 211 l 1
 396 272 l 2
 429 342 432 378 409 423 c 2
 392 454 l 1
 349 449 l 2
 249 438 123 353 86 273 c 0
 29 149 94 68 222 104 c 2
449 -314 m 0
 445 -307 443 -192 444 -58 c 0
 445 76 445 186 442 186 c 0
 439 186 411 160 381 130 c 0
 291 40 200 7 112 31 c 2
 71 42 l 1
 35 78 l 1
 0 115 l 1
 0 189 l 1
 1 262 l 1
 28 314 l 2
 71 398 157 465 267 503 c 0
 367 537 432 526 491 463 c 2
 521 432 l 1
 519 173 l 2
 517 -132 508 -296 494 -314 c 0
 481 -330 459 -330 449 -314 c 0
EndSplineSet
Validated: 33
EndChar

StartChar: r
Encoding: 114 114 17
Width: 569
Flags: HW
LayerCount: 2
Fore
SplineSet
19 49 m 0
 15 59 9 162 6 279 c 2
 0 491 l 1
 13 507 l 2
 28 525 33 526 53 513 c 2
 67 504 l 1
 74 441 l 1
 80 378 l 1
 133 425 l 2
 162 451 210 483 240 497 c 2
 295 522 l 1
 379 522 l 1
 463 522 l 1
 474 501 l 1
 486 480 l 1
 474 466 l 1
 462 452 l 1
 384 454 l 1
 305 455 l 1
 269 436 l 2
 216 408 128 330 98 285 c 2
 72 246 l 1
 77 149 l 1
 82 52 l 1
 71 42 l 2
 54 25 27 29 19 49 c 0
EndSplineSet
Validated: 33
EndChar

StartChar: s
Encoding: 115 115 18
Width: 495
Flags: HW
LayerCount: 2
Fore
SplineSet
88 25 m 2
 48 39 31 56 31 80 c 0
 31 103 59 104 128 87 c 2
 195 71 l 1
 253 81 l 2
 285 87 319 100 330 110 c 2
 349 127 l 1
 346 153 l 1
 343 178 l 1
 301 211 l 2
 278 229 213 260 157 282 c 2
 56 321 l 1
 28 349 l 1
 0 377 l 1
 0 407 l 2
 0 448 47 516 93 542 c 2
 131 563 l 1
 186 563 l 1
 241 563 l 1
 265 547 l 1
 288 531 l 1
 285 493 l 1
 282 456 l 1
 258 452 l 1
 234 449 l 1
 228 470 l 1
 223 492 l 1
 199 498 l 1
 174 504 l 1
 138 485 l 2
 118 475 93 454 84 439 c 2
 68 411 l 1
 80 396 l 2
 87 388 121 371 156 358 c 0
 191 345 252 319 290 299 c 2
 359 263 l 1
 390 227 l 1
 420 190 l 1
 420 148 l 1
 420 105 l 1
 398 77 l 2
 386 61 357 40 334 30 c 2
 292 11 l 1
 210 11 l 1
 128 11 l 1
 88 25 l 2
EndSplineSet
Validated: 33
EndChar

StartChar: t
Encoding: 116 116 19
Width: 627
Flags: HW
LayerCount: 2
Fore
SplineSet
253 41 m 1
 220 61 l 1
 197 104 l 1
 175 148 l 1
 161 240 l 2
 153 291 147 382 147 442 c 2
 147 552 l 1
 84 555 l 1
 21 558 l 1
 11 575 l 1
 0 592 l 1
 13 608 l 1
 27 625 l 1
 91 625 l 1
 155 625 l 1
 162 673 l 2
 166 700 176 737 184 755 c 2
 197 788 l 1
 222 788 l 2
 256 788 262 769 244 711 c 0
 236 684 229 654 229 644 c 2
 229 625 l 1
 389 622 l 1
 550 620 l 1
 560 602 l 1
 571 585 l 1
 558 569 l 1
 544 553 l 1
 383 553 l 1
 222 553 l 1
 215 505 l 2
 207 446 225 241 244 178 c 0
 252 152 266 123 276 112 c 2
 294 92 l 1
 327 92 l 2
 372 92 421 110 473 146 c 2
 517 176 l 1
 532 170 l 2
 540 167 550 157 554 147 c 2
 560 129 l 1
 521 96 l 2
 473 55 387 21 329 21 c 2
 286 21 l 1
 253 41 l 1
EndSplineSet
Validated: 33
EndChar

StartChar: u
Encoding: 117 117 20
Width: 510
Flags: HW
LayerCount: 2
Fore
SplineSet
361 42 m 0
 355 49 345 75 339 99 c 2
 327 142 l 1
 280 107 l 2
 177 29 69 49 19 157 c 2
 0 198 l 1
 0 286 l 1
 0 373 l 1
 16 434 l 2
 34 503 45 521 73 521 c 0
 102 521 106 496 88 430 c 2
 72 371 l 1
 72 290 l 1
 72 209 l 1
 85 184 l 2
 92 170 109 151 124 140 c 2
 150 120 l 1
 190 137 l 2
 212 146 248 170 269 191 c 2
 308 229 l 1
 317 265 l 2
 322 285 330 351 334 413 c 0
 338 475 345 535 350 545 c 2
 360 563 l 1
 382 560 l 1
 404 557 l 1
 404 485 l 2
 404 446 400 363 395 301 c 2
 386 188 l 1
 404 124 l 1
 422 60 l 1
 410 45 l 2
 394 26 375 25 361 42 c 0
EndSplineSet
Validated: 33
EndChar

StartChar: v
Encoding: 118 118 21
Width: 578
Flags: HW
LayerCount: 2
Fore
SplineSet
227 46 m 0
 174 99 63 309 23 429 c 2
 0 499 l 1
 17 515 l 1
 33 532 l 1
 49 522 l 2
 58 516 80 472 99 424 c 0
 139 321 176 246 225 170 c 2
 260 115 l 1
 294 211 l 2
 327 307 377 429 410 497 c 2
 428 532 l 1
 453 532 l 1
 478 532 l 1
 482 514 l 2
 484 504 466 451 443 398 c 0
 420 345 380 243 355 172 c 0
 330 101 304 39 297 34 c 0
 275 20 249 24 227 46 c 0
EndSplineSet
Validated: 33
EndChar

StartChar: w
Encoding: 119 119 22
Width: 1024
Flags: HW
LayerCount: 2
Fore
SplineSet
522 57 m 2
 476 109 442 188 424 283 c 0
 416 327 406 374 403 387 c 2
 398 411 l 1
 383 389 l 2
 375 377 332 302 290 222 c 0
 248 142 204 66 192 53 c 0
 152 10 120 27 88 110 c 0
 63 175 0 437 0 477 c 2
 0 510 l 1
 20 521 l 1
 40 531 l 1
 56 509 l 2
 65 496 72 475 72 463 c 0
 72 434 138 170 151 147 c 2
 161 129 l 1
 220 242 l 2
 287 372 376 509 402 525 c 2
 420 536 l 1
 438 525 l 1
 455 514 l 1
 478 382 l 2
 503 232 521 171 557 127 c 2
 582 96 l 1
 615 168 l 2
 653 252 765 449 822 534 c 2
 862 594 l 1
 884 591 l 2
 896 589 907 580 909 571 c 0
 911 562 882 501 844 438 c 0
 806 375 740 256 697 174 c 2
 620 24 l 1
 588 21 l 1
 556 18 l 1
 522 57 l 2
EndSplineSet
Validated: 33
EndChar

StartChar: x
Encoding: 120 120 23
Width: 538
Flags: HW
LayerCount: 2
Fore
SplineSet
68 26 m 0
 53 41 63 65 110 120 c 0
 137 152 165 186 173 196 c 2
 188 214 l 1
 121 283 l 2
 32 375 10 405 10 439 c 2
 10 467 l 1
 28 474 l 1
 46 481 l 1
 64 457 l 2
 101 408 180 319 206 298 c 2
 232 276 l 1
 321 387 l 2
 370 448 420 501 431 505 c 2
 452 512 l 1
 466 500 l 2
 485 484 485 464 465 448 c 0
 456 441 414 392 372 339 c 2
 295 243 l 1
 301 229 l 2
 304 221 343 193 388 166 c 0
 474 114 489 97 470 74 c 0
 448 48 430 55 299 140 c 0
 269 159 243 173 242 171 c 0
 241 169 213 134 180 93 c 2
 121 19 l 1
 98 19 l 2
 85 19 72 22 68 26 c 0
EndSplineSet
Validated: 33
EndChar

StartChar: y
Encoding: 121 121 24
Width: 467
Flags: HW
LayerCount: 2
Fore
SplineSet
160 -344 m 0
 151 -335 147 -323 149 -316 c 0
 151 -309 171 -228 193 -136 c 2
 233 32 l 1
 173 120 l 2
 102 225 0 428 0 463 c 2
 0 488 l 1
 16 494 l 2
 25 497 37 498 42 495 c 0
 47 492 78 438 109 375 c 0
 140 312 184 232 207 196 c 2
 248 130 l 1
 257 139 l 2
 267 149 324 372 334 439 c 0
 338 464 345 494 350 504 c 2
 360 522 l 1
 382 519 l 1
 404 516 l 1
 407 480 l 2
 410 441 397 385 287 -52 c 0
 209 -363 200 -384 160 -344 c 0
EndSplineSet
Validated: 33
EndChar

StartChar: z
Encoding: 122 122 25
Width: 750
Flags: HW
LayerCount: 2
Fore
SplineSet
13 32 m 1
 0 48 l 1
 7 70 l 1
 13 91 l 1
 66 121 l 2
 95 138 206 196 312 250 c 2
 505 349 l 1
 495 359 l 1
 484 370 l 1
 278 372 l 1
 73 375 l 1
 58 387 l 2
 40 402 38 425 55 435 c 0
 72 446 444 439 524 427 c 0
 618 412 653 374 608 333 c 0
 598 324 498 268 387 210 c 2
 186 104 l 1
 393 109 l 1
 601 113 l 1
 616 96 l 1
 630 78 l 1
 620 61 l 1
 609 44 l 1
 385 38 l 2
 262 34 131 28 94 24 c 2
 27 16 l 1
 13 32 l 1
EndSplineSet
Validated: 33
EndChar

StartChar: braceleft
Encoding: 123 123 26
Width: 648
Flags: HW
LayerCount: 2
Fore
SplineSet
185 -127 m 2
 167 -112 145 -86 135 -68 c 2
 118 -36 l 1
 120 -17 l 1
 121 76 125 72 128 96 c 2
 134 139 l 1
 85 161 l 2
 22 188 0 208 0 238 c 2
 0 263 l 1
 45 291 l 2
 70 306 104 326 120 335 c 2
 150 351 l 1
 161 419 l 1
 172 566 l 1
 193 622 l 2
 234 731 301 786 391 786 c 0
 447 786 480 770 509 726 c 2
 532 691 l 1
 532 644 l 1
 532 596 l 1
 516 573 l 1
 500 550 l 1
 478 553 l 1
 456 556 l 1
 458 587 l 2
 459 604 461 630 462 645 c 2
 464 673 l 1
 446 694 l 1
 427 715 l 1
 388 715 l 1
 349 715 l 1
 313 683 l 1
 276 651 l 1
 255 580 l 1
 233 509 l 1
 227 369 l 1
 220 308 l 1
 155 274 l 1
 89 239 l 1
 114 225 l 2
 128 218 153 211 171 211 c 2
 203 211 l 1
 210 191 l 2
 214 180 212 153 206 132 c 0
 200 111 192 115 189 19 c 1
 183 -5 l 1
 201 -41 l 1
 220 -77 l 1
 246 -80 l 2
 298 -86 371 -40 412 23 c 2
 431 51 l 1
 450 51 l 2
 460 51 475 44 482 35 c 2
 495 19 l 1
 476 -17 l 2
 436 -91 333 -153 250 -153 c 2
 217 -153 l 1
 185 -127 l 2
EndSplineSet
Validated: 33
EndChar

StartChar: braceright
Encoding: 125 125 27
Width: 648
Flags: HW
LayerCount: 2
Fore
SplineSet
347 -127 m 2
 315 -153 l 1
 282 -153 l 2
 199 -153 96 -91 56 -17 c 2
 37 19 l 1
 50 35 l 2
 57 44 72 51 82 51 c 2
 101 51 l 1
 120 23 l 2
 161 -40 234 -86 286 -80 c 2
 312 -77 l 1
 331 -41 l 1
 349 -5 l 1
 343 19 l 1
 340 115 332 111 326 132 c 0
 320 153 318 180 322 191 c 2
 329 211 l 1
 361 211 l 2
 379 211 404 218 418 225 c 2
 443 239 l 1
 377 274 l 1
 312 308 l 1
 305 369 l 1
 299 509 l 1
 277 580 l 1
 256 651 l 1
 219 683 l 1
 183 715 l 1
 144 715 l 1
 105 715 l 1
 86 694 l 1
 68 673 l 1
 70 645 l 2
 71 630 73 604 74 587 c 2
 76 556 l 1
 54 553 l 1
 32 550 l 1
 16 573 l 1
 0 596 l 1
 0 644 l 1
 0 691 l 1
 23 726 l 2
 52 770 85 786 141 786 c 0
 231 786 298 731 339 622 c 2
 360 566 l 1
 371 419 l 1
 382 351 l 1
 412 335 l 2
 428 326 462 306 487 291 c 2
 532 263 l 1
 532 238 l 2
 532 208 510 188 447 161 c 2
 398 139 l 1
 404 96 l 2
 407 72 411 76 412 -17 c 1
 414 -36 l 1
 397 -68 l 2
 387 -86 365 -112 347 -127 c 2
EndSplineSet
Validated: 33
EndChar

StartChar: bar
Encoding: 124 124 28
Width: 166
Flags: HW
LayerCount: 2
Fore
SplineSet
66 28 m 2
 52 45 l 1
 52 430 l 1
 52 815 l 1
 71 819 l 2
 81 821 96 817 102 811 c 2
 114 799 l 1
 114 684 l 2
 114 621 116 449 118 301 c 0
 120 153 118 28 114 22 c 0
 104 6 82 9 66 28 c 2
EndSplineSet
Validated: 33
EndChar

StartChar: asciitilde
Encoding: 126 126 29
Width: 894
Flags: HW
LayerCount: 2
Fore
SplineSet
392 636 m 2
 323 707 286 727 245 717 c 0
 208 708 155 665 137 630 c 2
 121 600 l 1
 101 600 l 2
 54 600 63 660 119 716 c 0
 171 768 210 788 265 788 c 0
 332 788 374 762 452 673 c 2
 480 641 l 1
 509 641 l 1
 538 641 l 1
 597 676 l 2
 630 696 678 730 704 752 c 0
 784 819 818 826 818 778 c 2
 818 754 l 1
 740 691 l 2
 697 657 635 616 602 599 c 2
 542 569 l 1
 499 569 l 1
 456 569 l 1
 392 636 l 2
EndSplineSet
Validated: 33
EndChar

StartChar: oe
Encoding: 189 339 30
Width: 1095
Flags: HWO
LayerCount: 2
Fore
SplineSet
143 20 m 0
 128 25 99 39 79 51 c 2
 42 74 l 1
 21 115 l 1
 0 157 l 1
 4 225 l 1
 8 292 l 1
 31 338 l 2
 44 364 73 405 95 429 c 2
 135 472 l 1
 189 497 l 1
 243 522 l 1
 285 522 l 2
 339 522 412 500 452 472 c 2
 483 450 l 1
 496 422 l 1
 546 487 637 536 746 553 c 2
 815 563 l 1
 859 551 l 2
 883 544 915 528 929 514 c 2
 954 488 l 1
 948 452 l 2
 936 375 846 288 753 263 c 2
 711 252 l 1
 626 259 l 2
 582 263 539 268 527 271 c 1
 527 236 l 1
 519 219 l 1
 535 145 579 110 675 89 c 2
 732 77 l 1
 795 88 l 2
 830 94 885 111 916 125 c 0
 980 154 1003 151 1003 115 c 2
 1003 91 l 1
 954 66 l 2
 863 20 776 6 679 19 c 0
 568 35 506 70 472 140 c 1
 442 105 400 75 344 49 c 2
 280 19 l 1
 225 15 l 2
 195 13 158 15 143 20 c 0
279 98 m 0
 303 107 343 126 367 141 c 2
 410 168 l 1
 434 209 l 1
 450 238 l 1
 450 255 l 1
 450 323 l 1
 457 343 l 1
 457 349 l 1
 410 396 l 1
 363 443 l 1
 311 448 l 1
 259 453 l 1
 213 431 l 2
 133 392 70 294 70 208 c 2
 70 166 l 1
 88 138 l 2
 123 85 199 70 279 98 c 0
800 362 m 2
 824 379 852 407 863 426 c 2
 883 460 l 1
 872 471 l 2
 866 477 841 484 816 487 c 2
 770 492 l 1
 710 475 l 2
 629 452 566 413 547 376 c 2
 531 346 l 1
 544 341 l 2
 575 331 613 327 682 329 c 2
 756 331 l 1
 800 362 l 2
EndSplineSet
EndChar

StartChar: question
Encoding: 63 63 31
Width: 589
Flags: HW
LayerCount: 2
Fore
SplineSet
266 433 m 2
 289 417 l 1
 289 392 l 1
 289 367 l 1
 263 350 l 1
 237 333 l 1
 201 350 l 1
 166 367 l 1
 166 387 l 2
 166 413 200 449 225 449 c 0
 235 449 253 442 266 433 c 2
289 224 m 1
 309 203 l 1
 309 167 l 2
 309 116 282 69 194 -34 c 0
 99 -145 72 -187 71 -231 c 0
 69 -294 128 -352 208 -365 c 2
 246 -372 l 1
 299 -349 l 1
 351 -326 l 1
 386 -286 l 1
 421 -245 l 1
 435 -183 l 1
 449 -121 l 1
 465 -111 l 1
 482 -100 l 1
 499 -114 l 1
 516 -129 l 1
 509 -175 l 2
 494 -280 436 -362 344 -407 c 2
 287 -435 l 1
 229 -435 l 1
 171 -435 l 1
 121 -410 l 1
 70 -386 l 1
 40 -347 l 1
 9 -309 l 1
 4 -253 l 1
 0 -196 l 1
 26 -142 l 2
 41 -112 90 -45 135 7 c 0
 221 106 238 130 238 155 c 2
 238 170 l 1
 207 181 l 2
 155 199 174 244 235 244 c 2
 269 244 l 1
 289 224 l 1
EndSplineSet
Validated: 33
EndChar

StartChar: exclam
Encoding: 33 33 33
Width: 160
Flags: HW
LayerCount: 2
Fore
SplineSet
23 -37 m 2
 0 -22 l 1
 0 3 l 1
 0 28 l 1
 26 45 l 1
 52 62 l 1
 88 46 l 1
 123 29 l 1
 123 8 l 2
 123 -18 89 -53 64 -53 c 0
 54 -53 36 -46 23 -37 c 2
44 144 m 2
 33 156 l 1
 27 469 l 1
 20 782 l 1
 34 801 l 1
 47 819 l 1
 67 815 l 1
 87 812 l 1
 90 485 l 1
 92 159 l 1
 81 145 l 2
 67 128 57 128 44 144 c 2
EndSplineSet
Validated: 33
EndChar

StartChar: quotedbl
Encoding: 34 34 34
Width: 264
Flags: HW
LayerCount: 2
Fore
SplineSet
17 585 m 2
 0 603 l 1
 7 675 l 2
 11 715 17 763 21 783 c 2
 29 819 l 1
 54 819 l 1
 79 819 l 1
 76 707 l 1
 72 594 l 1
 62 581 l 2
 48 564 38 564 17 585 c 2
140 585 m 2
 123 603 l 1
 130 675 l 2
 134 715 140 763 144 783 c 2
 151 819 l 1
 177 819 l 1
 202 819 l 1
 199 707 l 1
 195 594 l 1
 184 581 l 2
 170 564 161 564 140 585 c 2
EndSplineSet
Validated: 33
EndChar

StartChar: numbersign
Encoding: 35 35 35
Width: 759
Flags: HW
LayerCount: 2
Fore
SplineSet
325 318 m 2
 357 324 l 1
 368 369 l 2
 374 393 379 420 379 428 c 2
 379 443 l 1
 335 438 l 2
 311 435 289 430 285 426 c 0
 281 422 275 396 271 366 c 2
 264 312 l 1
 279 312 l 2
 287 312 308 315 325 318 c 2
157 31 m 0
 154 40 157 81 163 123 c 0
 169 165 174 209 174 220 c 2
 174 240 l 1
 143 240 l 2
 93 240 23 261 16 278 c 0
 13 287 16 300 22 308 c 2
 33 322 l 1
 112 316 l 1
 191 309 l 1
 198 349 l 2
 202 371 205 399 205 412 c 2
 205 435 l 1
 129 435 l 2
 87 435 40 440 26 445 c 2
 0 455 l 1
 0 481 l 1
 0 506 l 1
 13 507 l 2
 20 508 71 508 125 507 c 2
 223 505 l 1
 235 564 l 2
 269 736 289 779 324 766 c 2
 338 760 l 1
 338 728 l 2
 338 710 328 657 317 609 c 0
 306 561 297 518 297 514 c 0
 297 504 370 505 386 515 c 0
 393 519 409 568 420 623 c 0
 431 678 443 728 446 733 c 0
 456 749 491 743 501 724 c 2
 510 705 l 1
 496 639 l 2
 488 603 479 562 476 550 c 2
 471 528 l 1
 576 525 l 1
 681 522 l 1
 681 496 l 1
 681 471 l 1
 569 460 l 1
 456 450 l 1
 444 390 l 1
 433 330 l 1
 511 338 l 2
 554 342 600 345 613 346 c 2
 637 348 l 1
 649 330 l 1
 660 312 l 1
 645 297 l 1
 630 282 l 1
 522 269 l 1
 415 256 l 1
 394 158 l 2
 370 46 365 35 337 35 c 0
 306 35 303 60 322 155 c 0
 332 203 337 245 335 247 c 0
 333 249 312 249 289 245 c 2
 248 238 l 1
 236 144 l 2
 229 93 219 43 214 33 c 0
 202 11 165 10 157 31 c 0
EndSplineSet
Validated: 33
EndChar

StartChar: dollar
Encoding: 36 36 36
Width: 587
Flags: HW
LayerCount: 2
Fore
SplineSet
208 440 m 2
 212 470 215 523 215 558 c 2
 215 622 l 1
 204 622 l 2
 198 622 173 609 149 592 c 2
 105 562 l 1
 88 526 l 2
 67 482 67 445 87 428 c 0
 103 415 171 388 191 387 c 2
 202 387 l 1
 208 440 l 2
392 102 m 0
 419 113 450 134 461 148 c 2
 481 174 l 1
 470 193 l 2
 455 220 420 242 343 270 c 2
 276 294 l 1
 276 181 l 1
 276 68 l 1
 310 75 l 2
 328 79 365 91 392 102 c 0
227 -143 m 0
 221 -136 215 -103 213 -70 c 2
 210 -9 l 1
 145 4 l 2
 47 24 -1 62 32 95 c 2
 47 110 l 1
 100 90 l 2
 129 79 168 69 186 69 c 2
 218 69 l 1
 211 117 l 2
 207 143 205 197 205 237 c 2
 205 310 l 1
 136 330 l 1
 67 349 l 1
 33 382 l 1
 0 415 l 1
 0 460 l 1
 0 505 l 1
 26 558 l 1
 52 610 l 1
 105 646 l 2
 134 666 172 685 187 689 c 2
 215 696 l 1
 215 739 l 2
 215 763 222 791 229 801 c 2
 242 819 l 1
 264 812 l 1
 287 805 l 1
 287 757 l 1
 287 708 l 1
 349 707 l 1
 412 705 l 1
 436 689 l 1
 461 673 l 1
 461 647 l 2
 461 614 440 607 401 627 c 0
 384 636 351 643 329 643 c 2
 289 643 l 1
 282 509 l 1
 274 375 l 1
 283 367 l 2
 288 363 319 351 353 341 c 0
 433 317 495 282 523 243 c 2
 545 212 l 1
 546 176 l 1
 547 141 l 1
 526 113 l 2
 498 76 441 43 356 17 c 2
 287 -5 l 1
 287 -64 l 1
 287 -124 l 1
 271 -140 l 2
 251 -160 241 -160 227 -143 c 0
EndSplineSet
Validated: 33
EndChar

StartChar: percent
Encoding: 37 37 37
Width: 786
Flags: HW
LayerCount: 2
Fore
SplineSet
556 75 m 0
 600 102 629 135 652 187 c 2
 672 232 l 1
 663 249 l 2
 658 258 639 269 621 273 c 0
 603 277 580 287 570 296 c 2
 553 312 l 1
 522 296 l 2
 481 275 430 212 416 166 c 2
 405 129 l 1
 419 99 l 2
 436 65 476 42 505 51 c 0
 516 54 539 65 556 75 c 0
416 -2 m 2
 401 6 380 29 368 48 c 2
 346 82 l 1
 346 139 l 1
 346 195 l 1
 387 256 l 2
 409 290 447 330 469 346 c 2
 510 374 l 1
 555 379 l 1
 601 384 l 1
 658 347 l 2
 725 303 735 286 735 226 c 2
 735 182 l 1
 700 126 l 1
 665 70 l 1
 612 29 l 1
 559 -11 l 1
 501 -14 l 1
 443 -18 l 1
 416 -2 l 2
66 20 m 0
 48 38 64 43 257 332 c 0
 371 503 445 631 472 679 c 0
 499 727 508 740 529 777 c 2
 567 844 l 1
 592 844 l 1
 618 844 l 1
 621 821 l 1
 624 799 l 1
 561 692 l 2
 509 603 435 482 395 423 c 0
 355 364 311 288 248 192 c 0
 185 96 135 49 126 36 c 0
 110 14 80 6 66 20 c 0
229 584 m 0
 280 616 319 670 319 710 c 0
 319 747 319 747 256 770 c 2
 204 789 l 1
 174 771 l 1
 144 753 l 1
 122 706 l 1
 99 660 l 1
 99 616 l 1
 98 573 l 1
 116 560 l 1
 134 546 l 1
 161 552 l 2
 176 555 206 570 229 584 c 0
64 508 m 1
 36 532 l 1
 31 590 l 1
 26 649 l 1
 39 694 l 2
 62 775 142 848 229 867 c 0
 274 877 300 864 346 808 c 2
 387 759 l 1
 387 713 l 2
 387 688 380 651 371 632 c 0
 350 588 285 529 230 504 c 2
 187 485 l 1
 139 485 l 1
 91 484 l 1
 64 508 l 1
EndSplineSet
Validated: 33
EndChar

StartChar: ampersand
Encoding: 38 38 38
Width: 827
Flags: HW
LayerCount: 2
Fore
SplineSet
245 554 m 0
 315 651 340 696 332 717 c 2
 326 733 l 1
 284 726 l 2
 232 718 195 699 162 664 c 2
 137 637 l 1
 138 594 l 2
 139 550 166 474 180 474 c 0
 185 474 214 510 245 554 c 0
261 92 m 0
 306 111 388 165 388 176 c 0
 388 180 364 202 335 224 c 0
 306 246 263 282 239 303 c 0
 215 324 192 341 187 341 c 0
 175 341 106 235 85 184 c 0
 76 162 70 133 72 118 c 2
 75 91 l 1
 101 77 l 1
 126 64 l 1
 174 70 l 2
 200 73 240 83 261 92 c 0
72 15 m 2
 28 37 l 1
 13 66 l 2
 -18 127 4 203 92 338 c 2
 134 402 l 1
 102 465 l 1
 70 529 l 1
 70 591 l 1
 70 654 l 1
 90 687 l 2
 101 705 129 733 152 750 c 2
 194 780 l 1
 250 792 l 2
 319 806 360 798 387 764 c 0
 427 713 409 661 296 504 c 0
 262 457 234 413 234 406 c 0
 234 392 437 229 455 229 c 0
 462 229 532 295 610 377 c 0
 688 459 757 526 764 526 c 0
 771 526 780 517 786 506 c 2
 797 487 l 1
 768 447 l 2
 752 425 690 358 629 297 c 0
 568 236 520 185 522 183 c 0
 540 167 636 116 666 106 c 0
 687 99 706 87 709 78 c 0
 717 57 697 34 670 34 c 0
 647 34 546 81 495 115 c 2
 464 135 l 1
 390 85 l 1
 315 35 l 1
 248 14 l 2
 163 -12 127 -12 72 15 c 2
EndSplineSet
Validated: 33
EndChar

StartChar: quotesingle
Encoding: 39 39 39
Width: 139
Flags: HW
LayerCount: 2
Fore
SplineSet
17 585 m 2
 0 603 l 1
 7 675 l 2
 11 715 17 763 21 783 c 2
 29 819 l 1
 54 819 l 1
 79 819 l 1
 76 707 l 1
 72 594 l 1
 62 581 l 2
 48 564 38 564 17 585 c 2
EndSplineSet
Validated: 33
EndChar

StartChar: parenleft
Encoding: 40 40 40
Width: 440
Flags: HW
LayerCount: 2
Fore
SplineSet
221 44 m 0
 155 77 61 170 31 232 c 2
 7 280 l 1
 3 367 l 1
 0 454 l 1
 20 518 l 2
 48 607 103 701 164 765 c 2
 217 819 l 1
 239 816 l 2
 251 814 265 805 271 796 c 2
 282 779 l 1
 230 729 l 2
 167 667 130 610 97 522 c 2
 72 455 l 1
 71 393 l 2
 69 282 103 217 203 140 c 2
 260 97 l 1
 307 91 l 1
 355 86 l 1
 358 66 l 1
 362 46 l 1
 344 33 l 2
 316 13 278 16 221 44 c 0
EndSplineSet
Validated: 33
EndChar

StartChar: parenright
Encoding: 41 41 41
Width: 363
Flags: HW
LayerCount: 2
Fore
SplineSet
6 36 m 1
 0 52 l 1
 51 100 l 1
 103 147 l 1
 130 201 l 2
 145 230 164 281 172 313 c 0
 211 463 168 686 88 752 c 2
 62 773 l 1
 66 793 l 1
 70 813 l 1
 97 816 l 1
 123 819 l 1
 160 776 l 2
 248 673 283 463 239 292 c 0
 213 190 175 122 114 65 c 2
 65 19 l 1
 39 19 l 1
 13 19 l 1
 6 36 l 1
EndSplineSet
Validated: 33
EndChar

StartChar: asterisk
Encoding: 42 42 42
Width: 434
Flags: HW
LayerCount: 2
Fore
SplineSet
161 529 m 0
 157 533 154 552 154 571 c 2
 154 607 l 1
 131 599 l 2
 118 595 92 591 72 590 c 2
 36 589 l 1
 32 609 l 1
 28 628 l 1
 45 640 l 1
 61 652 l 1
 30 674 l 1
 0 697 l 1
 0 717 l 2
 0 728 8 741 17 744 c 2
 33 751 l 1
 87 724 l 2
 117 709 144 701 147 704 c 0
 150 707 154 727 154 748 c 0
 154 798 162 819 183 819 c 0
 209 819 225 799 225 766 c 2
 225 737 l 1
 268 758 l 1
 310 780 l 1
 326 764 l 1
 343 747 l 1
 332 729 l 2
 326 719 305 702 287 689 c 2
 253 666 l 1
 268 661 l 2
 276 659 300 653 323 648 c 2
 364 639 l 1
 367 612 l 1
 370 585 l 1
 351 580 l 2
 341 577 315 579 292 584 c 0
 269 589 243 594 234 594 c 2
 216 594 l 1
 213 561 l 1
 210 527 l 1
 189 524 l 2
 178 522 165 525 161 529 c 0
EndSplineSet
Validated: 33
EndChar

StartChar: plus
Encoding: 43 43 43
Width: 600
Flags: HW
LayerCount: 2
Fore
SplineSet
230 343 m 0
 226 349 225 389 227 432 c 2
 230 510 l 1
 136 507 l 2
 84 505 33 507 21 511 c 2
 0 518 l 1
 0 536 l 2
 0 546 6 560 13 566 c 2
 27 577 l 1
 134 580 l 1
 241 583 l 1
 244 692 l 1
 246 801 l 1
 260 812 l 2
 268 818 281 821 290 818 c 2
 307 811 l 1
 313 775 l 2
 317 755 318 705 315 664 c 2
 309 589 l 1
 418 591 l 1
 527 593 l 1
 531 574 l 2
 537 542 517 534 415 526 c 0
 361 522 314 516 311 513 c 0
 308 510 301 473 296 430 c 0
 291 387 284 348 281 342 c 0
 273 329 238 329 230 343 c 0
EndSplineSet
Validated: 33
EndChar

StartChar: comma
Encoding: 44 44 44
Width: 277
Flags: HW
LayerCount: 2
Fore
SplineSet
3 -169 m 2
 -7 -144 6 -125 38 -118 c 0
 55 -114 79 -101 91 -88 c 2
 114 -63 l 1
 119 -23 l 1
 125 18 l 1
 107 55 l 2
 86 99 92 123 125 123 c 2
 149 123 l 1
 167 92 l 2
 177 75 187 36 190 7 c 2
 195 -46 l 1
 172 -92 l 1
 148 -138 l 1
 113 -161 l 1
 78 -184 l 1
 44 -184 l 1
 9 -184 l 1
 3 -169 l 2
EndSplineSet
Validated: 33
EndChar

StartChar: hyphen
Encoding: 45 45 45
Width: 478
Flags: HW
LayerCount: 2
Fore
SplineSet
51 385 m 0
 32 389 13 399 8 406 c 2
 0 420 l 1
 9 435 l 1
 18 451 l 1
 205 448 l 2
 308 446 397 441 402 436 c 0
 407 431 409 419 407 409 c 2
 403 390 l 1
 347 383 l 2
 269 374 93 375 51 385 c 0
EndSplineSet
Validated: 33
EndChar

StartChar: period
Encoding: 46 46 46
Width: 228
Flags: HW
LayerCount: 2
Fore
SplineSet
23 -18 m 2
 0 -2 l 1
 0 23 l 1
 0 48 l 1
 26 65 l 1
 52 82 l 1
 88 65 l 1
 123 48 l 1
 123 28 l 2
 123 2 89 -34 64 -34 c 0
 54 -34 36 -27 23 -18 c 2
EndSplineSet
Validated: 1
EndChar

StartChar: slash
Encoding: 47 47 47
Width: 762
Flags: HW
LayerCount: 2
Fore
SplineSet
6 1 m 0
 -12 19 5 52 92 175 c 0
 222 358 365 534 482 655 c 2
 581 758 l 1
 600 746 l 2
 610 740 620 728 622 719 c 2
 625 703 l 1
 521 593 l 2
 397 461 267 300 144 126 c 2
 54 0 l 1
 34 -3 l 2
 23 -5 10 -3 6 1 c 0
EndSplineSet
Validated: 33
EndChar

StartChar: zero
Encoding: 48 48 48
Width: 793
Flags: HW
LayerCount: 2
Fore
SplineSet
261 248 m 0
 311 325 410 457 479 542 c 0
 548 627 608 703 611 710 c 0
 620 731 595 750 525 773 c 0
 449 798 400 799 330 778 c 2
 278 763 l 1
 228 718 l 1
 179 673 l 1
 140 601 l 1
 101 529 l 1
 86 459 l 2
 68 375 67 321 82 253 c 0
 93 203 145 108 161 108 c 0
 166 108 211 171 261 248 c 0
476 46 m 0
 552 79 622 178 660 307 c 2
 678 369 l 1
 679 446 l 1
 680 522 l 1
 657 572 l 1
 634 622 l 1
 542 511 l 2
 464 416 225 78 225 61 c 0
 225 53 274 36 322 26 c 0
 372 16 422 23 476 46 c 0
258 -32 m 2
 117 14 31 119 9 274 c 2
 0 338 l 1
 10 425 l 1
 21 512 l 1
 66 606 l 1
 112 700 l 1
 163 752 l 1
 214 805 l 1
 273 832 l 1
 332 860 l 1
 414 860 l 1
 496 860 l 1
 549 842 l 2
 578 832 621 810 644 793 c 2
 685 763 l 1
 707 721 l 2
 719 698 730 655 732 626 c 0
 734 597 739 530 743 476 c 2
 749 379 l 1
 733 311 l 2
 698 162 616 38 518 -12 c 2
 465 -39 l 1
 384 -42 l 1
 302 -46 l 1
 258 -32 l 2
EndSplineSet
Validated: 33
EndChar

StartChar: one
Encoding: 49 49 49
Width: 664
Flags: HW
LayerCount: 2
Fore
SplineSet
385 -37 m 2
 367 -23 l 1
 389 109 l 2
 401 182 418 317 426 410 c 0
 434 503 444 613 448 655 c 2
 455 731 l 1
 420 709 l 2
 210 581 88 519 42 518 c 2
 7 517 l 1
 3 540 l 1
 -0 563 l 1
 65 593 l 2
 101 609 207 666 300 720 c 0
 393 774 476 819 484 819 c 0
 492 819 504 814 511 807 c 2
 524 795 l 1
 524 743 l 2
 524 715 519 652 514 604 c 0
 509 556 497 439 488 343 c 0
 474 191 452 31 436 -22 c 0
 429 -46 406 -53 385 -37 c 2
EndSplineSet
Validated: 33
EndChar

StartChar: two
Encoding: 50 50 50
Width: 729
Flags: HW
LayerCount: 2
Fore
SplineSet
67 23 m 1
 41 36 l 1
 38 58 l 1
 35 80 l 1
 124 124 l 2
 288 204 418 316 482 432 c 2
 512 486 l 1
 512 570 l 1
 512 654 l 1
 491 683 l 2
 479 699 451 720 429 731 c 2
 389 751 l 1
 333 750 l 1
 276 749 l 1
 218 728 l 2
 139 698 112 673 76 602 c 2
 45 541 l 1
 23 545 l 1
 0 548 l 1
 1 586 l 1
 2 625 l 1
 39 680 l 1
 76 736 l 1
 120 761 l 2
 182 797 265 819 339 819 c 2
 402 819 l 1
 442 803 l 2
 464 794 495 777 511 765 c 2
 540 744 l 1
 566 688 l 1
 591 633 l 1
 587 558 l 1
 582 484 l 1
 551 419 l 2
 534 383 500 329 476 299 c 0
 432 245 305 141 243 109 c 0
 225 100 210 87 210 82 c 2
 210 72 l 1
 259 72 l 2
 286 72 377 76 461 81 c 0
 545 86 621 87 628 84 c 2
 641 79 l 1
 638 52 l 1
 635 26 l 1
 563 19 l 2
 524 15 402 13 292 12 c 2
 92 11 l 1
 67 23 l 1
EndSplineSet
Validated: 33
EndChar

StartChar: three
Encoding: 51 51 51
Width: 701
Flags: HW
LayerCount: 2
Fore
SplineSet
189 66 m 0
 121 77 66 111 66 142 c 0
 66 170 91 173 152 151 c 2
 209 131 l 1
 299 131 l 2
 348 131 407 136 429 142 c 2
 470 153 l 1
 504 188 l 1
 539 222 l 1
 535 256 l 1
 532 289 l 1
 482 320 l 1
 431 351 l 1
 354 351 l 1
 276 351 l 1
 276 376 l 1
 276 401 l 1
 302 414 l 2
 316 421 350 435 377 444 c 0
 437 465 504 513 535 560 c 2
 558 595 l 1
 558 633 l 1
 558 671 l 1
 533 697 l 2
 477 758 326 760 215 702 c 0
 176 682 118 620 82 563 c 2
 55 519 l 1
 39 522 l 2
 30 524 17 533 11 543 c 2
 0 561 l 1
 19 596 l 2
 29 615 60 657 87 687 c 2
 137 742 l 1
 198 770 l 2
 232 785 288 802 322 808 c 2
 384 819 l 1
 438 812 l 2
 467 808 512 796 537 783 c 2
 582 760 l 1
 606 715 l 1
 629 670 l 1
 629 634 l 2
 629 581 588 501 539 456 c 0
 516 435 492 418 486 418 c 0
 463 418 478 401 523 377 c 0
 578 348 609 304 609 254 c 2
 609 218 l 1
 586 177 l 2
 573 155 544 124 522 108 c 2
 481 80 l 1
 426 69 l 2
 372 59 241 57 189 66 c 0
EndSplineSet
Validated: 33
EndChar

StartChar: four
Encoding: 52 52 52
Width: 802
Flags: HW
LayerCount: 2
Fore
SplineSet
345 46 m 2
 327 59 l 1
 334 140 l 2
 338 184 345 255 349 297 c 0
 353 339 355 378 351 382 c 0
 347 386 278 378 198 364 c 2
 52 338 l 1
 33 349 l 2
 22 355 11 369 7 381 c 2
 0 402 l 1
 62 527 l 2
 131 665 218 811 235 817 c 0
 241 819 253 813 262 804 c 2
 279 787 l 1
 273 765 l 2
 269 753 244 708 217 666 c 0
 190 624 149 551 126 505 c 2
 84 420 l 1
 97 420 l 2
 120 420 340 459 349 465 c 0
 354 468 360 543 364 631 c 2
 371 792 l 1
 382 806 l 2
 398 825 430 823 441 803 c 2
 450 786 l 1
 441 749 l 2
 436 729 432 660 432 597 c 2
 432 482 l 1
 450 482 l 2
 460 482 505 489 550 497 c 0
 595 505 651 512 674 512 c 2
 717 513 l 1
 723 495 l 1
 730 478 l 1
 717 465 l 1
 703 451 l 1
 565 428 l 1
 427 405 l 1
 421 318 l 2
 412 201 401 93 396 66 c 0
 390 38 368 29 345 46 c 2
EndSplineSet
Validated: 33
EndChar

StartChar: five
Encoding: 53 53 53
Width: 719
Flags: HW
LayerCount: 2
Fore
SplineSet
71 -1 m 0
 23 15 0 31 0 51 c 0
 0 83 17 85 108 66 c 2
 194 48 l 1
 267 60 l 2
 307 67 368 85 403 101 c 2
 466 130 l 1
 525 186 l 1
 584 241 l 1
 584 270 l 2
 584 312 568 334 517 364 c 0
 450 403 365 427 241 441 c 2
 132 453 l 1
 92 440 l 1
 52 427 l 1
 36 440 l 1
 20 453 l 1
 21 577 l 1
 21 701 l 1
 41 734 l 2
 79 797 165 819 380 819 c 2
 510 819 l 1
 516 802 l 1
 523 785 l 1
 508 770 l 1
 494 756 l 1
 331 747 l 2
 163 738 141 735 110 709 c 2
 92 693 l 1
 92 609 l 1
 92 526 l 1
 223 513 l 2
 295 506 377 493 407 485 c 0
 464 470 564 422 600 392 c 0
 631 366 655 315 655 274 c 2
 655 240 l 1
 626 194 l 2
 590 137 506 71 414 29 c 2
 343 -4 l 1
 220 -7 l 2
 152 -9 85 -6 71 -1 c 0
EndSplineSet
Validated: 33
EndChar

StartChar: six
Encoding: 54 54 54
Width: 689
Flags: HW
LayerCount: 2
Fore
SplineSet
430 50 m 2
 481 87 510 134 526 202 c 2
 538 254 l 1
 525 286 l 1
 512 318 l 1
 483 333 l 2
 467 341 427 352 394 355 c 2
 335 361 l 1
 270 344 l 2
 234 335 177 313 144 295 c 2
 84 263 l 1
 85 242 l 2
 85 230 96 197 109 168 c 2
 133 116 l 1
 172 84 l 2
 220 44 279 22 341 21 c 2
 389 21 l 1
 430 50 l 2
227 -27 m 2
 151 4 112 33 76 85 c 0
 35 144 11 217 5 307 c 2
 0 384 l 1
 17 451 l 2
 26 488 50 550 69 589 c 2
 104 661 l 1
 157 715 l 1
 210 770 l 1
 263 795 l 1
 315 819 l 1
 370 819 l 1
 424 819 l 1
 460 802 l 2
 504 781 527 748 523 710 c 2
 520 681 l 1
 497 678 l 1
 475 675 l 1
 459 705 l 1
 443 736 l 1
 408 747 l 1
 373 759 l 1
 344 752 l 2
 264 733 185 661 133 558 c 0
 102 496 74 407 74 367 c 2
 74 338 l 1
 137 369 l 2
 172 386 233 408 273 416 c 2
 346 432 l 1
 402 426 l 2
 433 423 481 408 509 394 c 2
 561 370 l 1
 580 337 l 1
 599 305 l 1
 598 240 l 1
 598 175 l 1
 577 128 l 2
 565 102 542 63 525 41 c 2
 494 2 l 1
 441 -25 l 1
 388 -51 l 1
 336 -51 l 1
 284 -51 l 1
 227 -27 l 2
EndSplineSet
Validated: 33
EndChar

StartChar: seven
Encoding: 55 55 55
Width: 894
Flags: HW
LayerCount: 2
Fore
SplineSet
135 50 m 0
 119 66 132 91 208 180 c 0
 292 279 343 344 343 353 c 0
 343 356 285 361 215 365 c 0
 80 372 39 382 29 408 c 2
 23 424 l 1
 37 438 l 1
 52 453 l 1
 113 443 l 2
 147 438 224 433 286 431 c 2
 398 427 l 1
 491 546 l 2
 542 611 599 685 618 708 c 2
 652 750 l 1
 521 749 l 2
 449 748 323 745 241 741 c 0
 159 737 71 737 46 740 c 2
 0 745 l 1
 0 770 l 1
 0 796 l 1
 256 809 l 2
 397 816 555 821 608 819 c 2
 704 815 l 1
 718 796 l 2
 747 757 751 764 571 535 c 0
 530 483 497 436 497 431 c 2
 497 422 l 1
 651 422 l 1
 804 422 l 1
 810 407 l 2
 813 398 811 384 804 376 c 2
 791 361 l 1
 621 361 l 2
 527 361 445 357 439 353 c 0
 433 349 397 304 359 253 c 0
 240 95 161 24 135 50 c 0
EndSplineSet
Validated: 33
EndChar

StartChar: eight
Encoding: 56 56 56
Width: 726
Flags: HW
LayerCount: 2
Fore
SplineSet
322 556 m 2
 362 610 402 694 402 723 c 0
 402 755 380 769 319 773 c 0
 289 775 256 779 247 783 c 2
 230 790 l 1
 186 770 l 2
 162 759 127 738 109 723 c 2
 76 696 l 1
 70 666 l 1
 63 636 l 1
 80 605 l 2
 89 588 107 566 122 556 c 0
 151 537 230 514 267 513 c 2
 290 512 l 1
 322 556 l 2
440 66 m 1
 514 101 l 1
 531 128 l 1
 549 155 l 1
 548 200 l 1
 548 246 l 1
 528 284 l 1
 508 323 l 1
 455 360 l 2
 426 381 381 405 356 413 c 2
 310 429 l 1
 239 367 l 2
 155 294 124 255 107 203 c 2
 94 166 l 1
 109 130 l 2
 125 91 179 45 225 30 c 0
 241 25 279 23 310 26 c 2
 367 31 l 1
 440 66 l 1
218 -37 m 0
 156 -20 101 14 68 58 c 2
 41 94 l 1
 36 148 l 1
 32 203 l 1
 44 241 l 1
 57 280 l 1
 137 364 l 1
 218 447 l 1
 158 464 l 2
 88 484 43 518 18 571 c 2
 0 609 l 1
 1 652 l 1
 1 696 l 1
 24 732 l 2
 70 806 179 860 284 860 c 2
 347 860 l 1
 387 839 l 2
 409 827 438 806 451 792 c 2
 474 767 l 1
 474 729 l 1
 474 691 l 1
 443 625 l 2
 426 588 399 543 385 524 c 0
 371 505 361 489 363 488 c 0
 365 487 398 470 437 451 c 0
 513 413 567 367 593 316 c 0
 613 278 622 190 613 139 c 2
 606 102 l 1
 569 65 l 2
 527 23 433 -23 353 -40 c 0
 288 -54 278 -53 218 -37 c 0
EndSplineSet
Validated: 33
EndChar

StartChar: nine
Encoding: 57 57 57
Width: 775
Flags: HW
LayerCount: 2
Fore
SplineSet
219 503 m 0
 356 532 478 639 500 747 c 2
 506 778 l 1
 477 789 l 2
 461 795 421 800 388 800 c 2
 328 800 l 1
 263 778 l 1
 198 757 l 1
 153 717 l 2
 102 672 74 622 74 576 c 2
 74 546 l 1
 92 529 l 2
 106 516 137 500 163 492 c 0
 164 492 189 497 219 503 c 0
19 -28 m 1
 0 -14 l 1
 4 6 l 1
 8 26 l 1
 217 32 l 2
 332 35 458 39 496 40 c 2
 565 41 l 1
 565 177 l 2
 565 315 548 598 539 624 c 2
 534 638 l 1
 506 600 l 2
 469 550 402 498 331 464 c 2
 274 437 l 1
 197 433 l 1
 120 429 l 1
 84 447 l 2
 64 457 38 482 25 501 c 2
 2 536 l 1
 2 578 l 2
 2 636 32 694 89 751 c 0
 167 829 271 870 388 870 c 2
 453 870 l 1
 512 850 l 2
 544 839 578 820 588 808 c 2
 606 786 l 1
 600 763 l 2
 597 750 600 707 606 665 c 0
 620 567 640 68 632 24 c 0
 628 5 619 -14 609 -19 c 0
 599 -24 467 -32 315 -36 c 2
 38 -43 l 1
 19 -28 l 1
EndSplineSet
Validated: 33
EndChar

StartChar: colon
Encoding: 58 58 58
Width: 240
Flags: HW
LayerCount: 2
Fore
SplineSet
23 -8 m 2
 0 8 l 1
 0 33 l 1
 0 58 l 1
 26 75 l 1
 52 92 l 1
 88 75 l 1
 123 59 l 1
 123 38 l 2
 123 12 89 -24 64 -24 c 0
 54 -24 36 -17 23 -8 c 2
23 289 m 2
 0 305 l 1
 0 330 l 1
 0 355 l 1
 26 372 l 1
 52 389 l 1
 88 372 l 1
 123 356 l 1
 123 335 l 2
 123 309 89 273 64 273 c 0
 54 273 36 280 23 289 c 2
EndSplineSet
Validated: 1
EndChar

StartChar: semicolon
Encoding: 59 59 59
Width: 308
Flags: HW
LayerCount: 2
Fore
SplineSet
3 -316 m 2
 -7 -291 6 -272 38 -265 c 0
 55 -261 79 -247 91 -234 c 2
 114 -210 l 1
 119 -169 l 1
 125 -129 l 1
 107 -92 l 2
 86 -48 92 -24 125 -24 c 2
 149 -24 l 1
 167 -55 l 2
 177 -72 187 -110 190 -139 c 2
 195 -193 l 1
 172 -239 l 1
 148 -285 l 1
 113 -308 l 1
 78 -331 l 1
 44 -331 l 1
 9 -331 l 1
 3 -316 l 2
94 54 m 2
 71 70 l 1
 71 94 l 1
 71 119 l 1
 97 136 l 1
 124 154 l 1
 159 137 l 1
 194 120 l 1
 194 99 l 2
 194 73 160 38 135 38 c 0
 125 38 107 45 94 54 c 2
EndSplineSet
Validated: 33
EndChar

StartChar: less
Encoding: 60 60 60
Width: 649
Flags: HW
LayerCount: 2
Fore
SplineSet
210 83 m 2
 36 134 0 152 0 184 c 0
 0 206 107 311 210 390 c 0
 294 454 464 563 480 563 c 0
 497 563 514 534 508 515 c 0
 505 505 464 474 419 447 c 0
 333 395 237 325 146 247 c 2
 92 201 l 1
 108 192 l 2
 117 187 199 162 290 137 c 0
 480 85 486 81 486 55 c 2
 486 36 l 1
 435 34 l 1
 384 32 l 1
 210 83 l 2
EndSplineSet
Validated: 33
EndChar

StartChar: equal
Encoding: 61 61 61
Width: 609
Flags: HW
LayerCount: 2
Fore
SplineSet
13 169 m 1
 0 185 l 1
 16 201 l 1
 32 217 l 1
 272 222 l 1
 511 228 l 1
 534 215 l 1
 558 203 l 1
 554 181 l 1
 551 158 l 1
 289 156 l 1
 27 153 l 1
 13 169 l 1
27 313 m 2
 23 322 25 338 31 347 c 2
 41 363 l 1
 257 366 l 1
 473 369 l 1
 489 352 l 1
 505 336 l 1
 494 316 l 1
 484 297 l 1
 259 297 l 1
 33 297 l 1
 27 313 l 2
EndSplineSet
Validated: 33
EndChar

StartChar: greater
Encoding: 62 62 62
Width: 655
Flags: HW
LayerCount: 2
Fore
SplineSet
54 -26 m 0
 47 -24 41 -10 41 4 c 2
 41 29 l 1
 105 69 l 2
 140 91 223 136 289 169 c 0
 355 202 409 230 409 234 c 0
 409 246 254 326 150 367 c 0
 94 389 37 413 24 422 c 2
 0 438 l 1
 0 463 l 1
 0 488 l 1
 22 500 l 1
 45 512 l 1
 62 490 l 1
 80 469 l 1
 164 437 l 2
 269 398 434 314 480 276 c 2
 515 247 l 1
 509 220 l 1
 502 194 l 1
 354 122 l 2
 273 83 182 35 152 16 c 0
 89 -24 72 -32 54 -26 c 0
EndSplineSet
Validated: 33
EndChar

StartChar: at
Encoding: 64 64 63
Width: 922
Flags: HW
LayerCount: 2
Fore
SplineSet
308 235 m 0
 355 254 411 316 432 372 c 2
 449 417 l 1
 434 426 l 2
 411 441 372 436 328 415 c 0
 272 388 243 362 225 319 c 0
 206 273 206 256 226 236 c 0
 246 216 263 216 308 235 c 0
235 -16 m 0
 186 -3 111 34 79 61 c 0
 63 75 37 111 24 141 c 2
 0 195 l 1
 1 287 l 1
 1 379 l 1
 24 429 l 2
 36 457 62 499 81 522 c 2
 116 565 l 1
 176 596 l 2
 209 613 268 638 307 651 c 2
 379 675 l 1
 461 676 l 1
 543 676 l 1
 608 650 l 2
 644 636 686 612 702 598 c 2
 730 572 l 1
 743 527 l 1
 755 481 l 1
 750 417 l 1
 745 352 l 1
 715 305 l 2
 699 279 667 244 643 227 c 2
 599 196 l 1
 545 192 l 1
 490 187 l 1
 460 213 l 1
 430 238 l 1
 391 205 l 1
 352 171 l 1
 305 159 l 2
 279 152 245 150 229 154 c 0
 196 161 152 209 142 248 c 2
 135 274 l 1
 152 328 l 1
 170 383 l 1
 220 428 l 1
 270 473 l 1
 327 491 l 1
 385 509 l 1
 418 503 l 2
 464 494 515 461 529 430 c 2
 541 403 l 1
 525 376 l 2
 516 361 506 332 502 311 c 2
 495 273 l 1
 514 263 l 1
 533 253 l 1
 568 268 l 2
 614 288 637 309 661 355 c 2
 681 393 l 1
 681 448 l 2
 681 478 675 513 668 527 c 2
 655 552 l 1
 589 581 l 1
 522 609 l 1
 469 609 l 1
 415 609 l 1
 319 579 l 2
 176 533 112 478 81 377 c 0
 54 288 69 176 114 126 c 0
 124 114 155 95 182 81 c 2
 231 56 l 1
 312 45 l 1
 393 34 l 1
 466 45 l 1
 540 57 l 1
 596 84 l 2
 627 99 677 134 708 161 c 2
 765 211 l 1
 779 199 l 2
 787 192 794 177 794 166 c 2
 794 145 l 1
 753 107 l 2
 701 57 612 7 545 -11 c 2
 491 -25 l 1
 379 -24 l 2
 317 -23 252 -20 235 -16 c 0
EndSplineSet
Validated: 33
EndChar

StartChar: A
Encoding: 65 65 64
Width: 640
Flags: HW
LayerCount: 2
Fore
SplineSet
387 366 m 2
 387 372 372 435 354 507 c 2
 321 637 l 1
 272 506 l 2
 245 434 224 371 224 366 c 2
 224 356 l 1
 306 356 l 1
 387 356 l 1
 387 366 l 2
11 -11 m 0
 -11 -2 -4 24 61 172 c 0
 165 411 227 573 275 732 c 2
 299 812 l 1
 318 818 l 2
 341 825 367 805 367 780 c 0
 367 770 381 701 399 626 c 0
 417 551 455 384 485 254 c 2
 538 18 l 1
 529 0 l 2
 519 -19 503 -23 483 -10 c 0
 476 -6 456 60 439 135 c 0
 422 210 405 275 402 280 c 0
 395 291 214 293 197 282 c 0
 191 278 159 215 126 143 c 0
 57 -11 46 -25 11 -11 c 0
EndSplineSet
Validated: 33
EndChar

StartChar: B
Encoding: 66 66 65
Width: 667
Flags: HW
LayerCount: 2
Fore
SplineSet
232 476 m 0
 264 486 302 506 318 521 c 2
 347 548 l 1
 354 585 l 1
 361 622 l 1
 342 660 l 1
 323 699 l 1
 266 718 l 2
 235 729 179 740 141 743 c 2
 72 749 l 1
 72 597 l 1
 72 446 l 1
 123 452 l 2
 151 455 200 466 232 476 c 0
223 76 m 0
 326 97 423 137 462 173 c 2
 493 202 l 1
 490 246 l 1
 486 290 l 1
 445 312 l 2
 390 342 265 367 166 367 c 2
 85 367 l 1
 78 258 l 2
 74 198 72 131 72 110 c 2
 72 71 l 1
 90 67 l 2
 123 58 144 60 223 76 c 0
23 -10 m 1
 13 3 l 1
 6 393 l 1
 0 782 l 1
 10 796 l 1
 19 811 l 1
 84 815 l 1
 149 819 l 1
 224 803 l 2
 265 794 319 776 343 762 c 2
 386 736 l 1
 404 699 l 1
 422 661 l 1
 418 590 l 1
 414 518 l 1
 366 473 l 1
 318 428 l 1
 330 424 l 2
 337 422 371 412 405 403 c 0
 439 394 480 377 497 367 c 0
 578 317 586 204 514 128 c 0
 448 58 286 3 118 -6 c 0
 90 -8 59 -12 50 -16 c 2
 34 -23 l 1
 23 -10 l 1
EndSplineSet
Validated: 33
EndChar

StartChar: C
Encoding: 67 67 66
Width: 707
Flags: HW
LayerCount: 2
Fore
SplineSet
370 -42 m 0
 339 -37 285 -20 250 -3 c 2
 186 27 l 1
 135 79 l 1
 84 132 l 1
 49 205 l 1
 14 279 l 1
 7 336 l 1
 0 392 l 1
 11 453 l 2
 36 588 131 727 239 782 c 2
 294 810 l 1
 373 814 l 1
 452 819 l 1
 499 806 l 1
 546 793 l 1
 582 759 l 1
 618 725 l 1
 615 708 l 2
 613 698 604 686 594 680 c 2
 576 669 l 1
 547 696 l 2
 508 733 469 747 396 747 c 2
 334 747 l 1
 294 730 l 2
 232 704 187 665 145 600 c 2
 107 541 l 1
 89 474 l 1
 71 407 l 1
 76 351 l 2
 79 320 94 269 108 238 c 2
 134 181 l 1
 189 127 l 1
 243 72 l 1
 304 49 l 1
 365 25 l 1
 437 24 l 2
 476 23 532 27 561 32 c 2
 613 41 l 1
 620 22 l 1
 627 4 l 1
 609 -14 l 1
 591 -32 l 1
 524 -43 l 2
 449 -55 448 -55 370 -42 c 0
EndSplineSet
Validated: 33
EndChar

StartChar: D
Encoding: 68 68 67
Width: 716
Flags: HW
LayerCount: 2
Fore
SplineSet
186 87 m 0
 236 96 313 114 357 129 c 2
 437 156 l 1
 481 198 l 1
 525 241 l 1
 547 302 l 1
 570 364 l 1
 570 422 l 1
 570 480 l 1
 545 534 l 2
 512 606 455 662 378 697 c 0
 306 730 168 761 111 756 c 2
 72 753 l 1
 72 412 l 1
 72 72 l 1
 83 72 l 2
 89 72 136 78 186 87 c 0
5 -8 m 0
 5 -7 3 176 2 398 c 2
 0 801 l 1
 17 810 l 2
 26 815 77 819 130 819 c 2
 226 819 l 1
 287 804 l 2
 321 795 382 772 422 752 c 2
 495 716 l 1
 541 665 l 2
 566 637 597 593 610 567 c 2
 633 519 l 1
 638 445 l 1
 643 371 l 1
 621 300 l 2
 568 127 461 60 151 11 c 0
 8 -12 6 -12 5 -8 c 0
EndSplineSet
Validated: 33
EndChar

StartChar: E
Encoding: 69 69 68
Width: 710
Flags: HW
LayerCount: 2
Fore
SplineSet
33 13 m 1
 18 30 l 1
 9 191 l 1
 0 351 l 1
 12 489 l 2
 26 655 28 731 18 767 c 2
 11 794 l 1
 29 802 l 2
 39 807 165 812 307 815 c 2
 566 819 l 1
 581 807 l 2
 602 790 600 759 578 752 c 0
 568 749 460 747 337 748 c 2
 114 749 l 1
 106 739 l 2
 101 734 94 666 90 588 c 2
 82 447 l 1
 175 450 l 1
 269 452 l 1
 281 440 l 1
 294 427 l 1
 282 410 l 1
 271 392 l 1
 231 385 l 2
 209 381 165 377 133 377 c 2
 74 377 l 1
 75 313 l 2
 76 278 79 207 83 157 c 2
 89 66 l 1
 227 68 l 2
 303 69 413 77 470 85 c 0
 527 93 582 97 591 94 c 2
 607 87 l 1
 604 60 l 1
 601 34 l 1
 524 21 l 2
 482 14 358 6 248 2 c 2
 48 -5 l 1
 33 13 l 1
EndSplineSet
Validated: 33
EndChar

StartChar: F
Encoding: 70 70 69
Width: 679
Flags: HW
LayerCount: 2
Fore
SplineSet
8 -16 m 0
 6 -11 3 170 2 388 c 2
 0 785 l 1
 17 802 l 1
 35 819 l 1
 96 813 l 2
 130 809 258 806 381 806 c 2
 605 806 l 1
 611 790 l 1
 618 773 l 1
 593 753 l 1
 568 733 l 1
 320 736 l 1
 72 740 l 1
 72 584 l 1
 72 428 l 1
 182 427 l 2
 243 426 303 422 317 418 c 2
 343 411 l 1
 346 389 l 1
 349 368 l 1
 331 358 l 1
 312 349 l 1
 219 359 l 2
 167 365 113 366 98 362 c 2
 72 356 l 1
 69 169 l 1
 67 -18 l 1
 39 -21 l 2
 24 -23 10 -21 8 -16 c 0
EndSplineSet
Validated: 33
EndChar

StartChar: G
Encoding: 71 71 70
Width: 965
Flags: HW
LayerCount: 2
Fore
SplineSet
407 -46 m 0
 350 -38 266 -11 204 20 c 2
 143 51 l 1
 91 104 l 1
 39 157 l 1
 19 211 l 1
 0 266 l 1
 6 347 l 1
 11 428 l 1
 41 492 l 2
 124 669 258 775 443 809 c 2
 499 819 l 1
 562 813 l 2
 596 810 647 799 673 790 c 2
 721 774 l 1
 770 724 l 2
 843 649 861 592 815 574 c 2
 798 568 l 1
 787 586 l 2
 725 689 666 732 567 742 c 2
 505 748 l 1
 441 736 l 2
 406 729 351 712 320 697 c 2
 264 670 l 1
 206 611 l 1
 148 552 l 1
 115 484 l 1
 81 416 l 1
 77 337 l 1
 72 258 l 1
 93 217 l 2
 137 131 238 66 377 33 c 2
 448 16 l 1
 511 22 l 2
 664 36 763 118 778 245 c 2
 784 298 l 1
 698 289 l 2
 651 284 585 280 551 280 c 2
 490 279 l 1
 486 298 l 2
 484 308 487 322 492 327 c 0
 505 340 730 368 794 364 c 2
 848 361 l 1
 848 285 l 1
 848 208 l 1
 828 158 l 2
 772 12 600 -72 407 -46 c 0
EndSplineSet
Validated: 33
EndChar

StartChar: H
Encoding: 72 72 71
Width: 713
Flags: HW
LayerCount: 2
Fore
SplineSet
6 -10 m 0
 -2 4 -2 530 6 656 c 0
 10 715 18 772 23 782 c 2
 33 801 l 1
 55 798 l 1
 77 794 l 1
 77 728 l 2
 77 691 74 602 69 529 c 2
 60 397 l 1
 130 404 l 2
 168 408 272 413 360 417 c 2
 520 424 l 1
 526 589 l 2
 532 758 540 802 568 813 c 2
 584 819 l 1
 599 804 l 1
 614 789 l 1
 607 756 l 2
 603 738 600 565 600 372 c 2
 600 20 l 1
 575 23 l 1
 550 26 l 1
 542 54 l 2
 538 69 532 143 528 220 c 2
 520 360 l 1
 442 354 l 2
 399 351 321 347 267 344 c 0
 213 341 148 335 121 332 c 2
 72 326 l 1
 72 179 l 2
 72 98 67 21 62 7 c 2
 52 -20 l 1
 32 -20 l 2
 21 -20 9 -15 6 -10 c 0
EndSplineSet
Validated: 33
EndChar

StartChar: I
Encoding: 73 73 72
Width: 793
Flags: HW
LayerCount: 2
Fore
SplineSet
14 79 m 0
 -4 89 -5 127 12 133 c 0
 19 136 90 141 169 145 c 2
 312 153 l 1
 311 196 l 2
 311 220 310 356 309 497 c 2
 307 754 l 1
 171 752 l 2
 96 751 29 750 22 751 c 2
 8 752 l 1
 12 780 l 1
 15 808 l 1
 82 816 l 2
 119 820 257 820 391 817 c 2
 634 811 l 1
 652 797 l 1
 670 784 l 1
 659 765 l 1
 648 747 l 1
 510 746 l 1
 373 745 l 1
 371 608 l 2
 370 532 372 399 376 312 c 2
 384 153 l 1
 541 153 l 1
 699 153 l 1
 710 135 l 1
 721 118 l 1
 708 104 l 1
 695 91 l 1
 529 85 l 2
 208 73 28 71 14 79 c 0
EndSplineSet
Validated: 33
EndChar

StartChar: J
Encoding: 74 74 73
Width: 732
Flags: HW
LayerCount: 2
Fore
SplineSet
112 45 m 0
 92 52 41 100 28 123 c 2
 18 142 l 1
 30 156 l 2
 49 178 69 174 101 140 c 2
 130 110 l 1
 169 110 l 1
 207 110 l 1
 250 135 l 2
 303 166 342 225 363 302 c 2
 379 361 l 1
 379 460 l 2
 379 558 376 584 356 691 c 2
 346 745 l 1
 189 745 l 1
 31 745 l 1
 15 761 l 2
 -5 781 -5 790 15 806 c 2
 30 819 l 1
 337 814 l 1
 644 809 l 1
 659 796 l 2
 677 781 678 776 665 756 c 2
 656 741 l 1
 544 743 l 2
 482 744 429 743 426 738 c 0
 423 733 428 690 435 642 c 0
 463 463 451 310 402 206 c 2
 378 153 l 1
 331 110 l 2
 305 86 269 61 250 53 c 0
 216 39 142 34 112 45 c 0
EndSplineSet
Validated: 33
EndChar

StartChar: K
Encoding: 75 75 74
Width: 701
Flags: HW
LayerCount: 2
Fore
SplineSet
321 190 m 2
 92 307 l 1
 99 212 l 1
 106 116 l 1
 89 102 l 1
 73 88 l 1
 56 99 l 1
 38 110 l 1
 31 226 l 2
 27 290 17 353 11 365 c 2
 0 388 l 1
 8 416 l 2
 12 432 16 520 14 611 c 0
 12 702 14 786 18 798 c 2
 24 819 l 1
 42 819 l 2
 52 819 65 814 72 807 c 2
 85 795 l 1
 85 628 l 1
 85 461 l 1
 94 461 l 2
 99 461 107 466 110 471 c 0
 119 486 336 647 456 728 c 0
 560 799 599 812 611 782 c 0
 620 759 616 755 522 690 c 0
 379 590 298 531 204 457 c 2
 114 386 l 1
 127 374 l 2
 134 367 244 309 370 245 c 0
 496 181 601 124 604 116 c 0
 611 98 588 71 567 72 c 0
 558 72 447 125 321 190 c 2
EndSplineSet
Validated: 33
EndChar

StartChar: L
Encoding: 76 76 75
Width: 658
Flags: HW
LayerCount: 2
Fore
SplineSet
14 13 m 1
 0 30 l 1
 11 404 l 1
 22 778 l 1
 32 799 l 2
 43 820 78 826 88 810 c 0
 91 805 89 689 84 552 c 0
 79 415 72 249 70 185 c 2
 67 69 l 1
 185 75 l 2
 250 78 362 84 432 88 c 2
 560 95 l 1
 575 77 l 1
 589 60 l 1
 579 43 l 1
 568 26 l 1
 441 19 l 2
 371 15 250 9 171 5 c 2
 27 -3 l 1
 14 13 l 1
EndSplineSet
Validated: 33
EndChar

StartChar: M
Encoding: 77 77 76
Width: 744
Flags: HW
LayerCount: 2
Fore
SplineSet
633 -2 m 0
 626 9 593 361 581 547 c 0
 577 609 571 668 567 678 c 2
 560 696 l 1
 469 565 l 2
 419 493 364 417 348 396 c 2
 319 357 l 1
 289 357 l 1
 260 357 l 1
 208 421 l 2
 180 456 140 516 120 555 c 0
 100 594 82 624 80 622 c 0
 78 620 83 560 91 490 c 0
 122 218 137 85 141 58 c 2
 146 30 l 1
 130 15 l 1
 114 -1 l 1
 96 9 l 1
 78 19 l 1
 66 109 l 2
 38 326 12 566 6 670 c 2
 0 783 l 1
 17 796 l 2
 26 804 39 808 47 805 c 0
 55 802 95 740 136 668 c 0
 212 534 275 439 288 439 c 0
 292 439 344 509 403 594 c 0
 462 679 523 765 539 784 c 2
 569 819 l 1
 596 816 l 1
 622 813 l 1
 630 767 l 2
 643 687 684 162 684 76 c 2
 684 -6 l 1
 662 -9 l 2
 650 -11 637 -8 633 -2 c 0
EndSplineSet
Validated: 33
EndChar

StartChar: N
Encoding: 78 78 77
Width: 673
Flags: HW
LayerCount: 2
Fore
SplineSet
11 28 m 0
 5 39 2 54 6 60 c 0
 14 73 14 725 6 757 c 2
 0 781 l 1
 14 800 l 1
 28 819 l 1
 49 813 l 2
 60 809 75 793 82 778 c 0
 110 716 421 277 504 182 c 2
 535 146 l 1
 530 213 l 2
 514 439 500 774 506 789 c 0
 514 809 549 813 560 795 c 0
 564 789 571 695 576 587 c 0
 581 479 592 324 600 242 c 0
 608 160 615 79 615 61 c 2
 615 29 l 1
 595 18 l 1
 574 7 l 1
 555 17 l 2
 521 35 342 267 185 494 c 2
 88 635 l 1
 83 334 l 2
 80 169 74 28 69 21 c 0
 56 1 23 5 11 28 c 0
EndSplineSet
Validated: 33
EndChar

StartChar: O
Encoding: 79 79 78
Width: 873
Flags: HW
LayerCount: 2
Fore
SplineSet
554 105 m 0
 579 114 619 133 644 147 c 2
 689 174 l 1
 708 217 l 2
 740 289 759 378 760 455 c 2
 760 528 l 1
 745 558 l 2
 728 591 693 622 631 657 c 2
 590 680 l 1
 593 706 l 1
 595 733 l 1
 523 745 l 1
 451 757 l 1
 384 746 l 2
 263 725 205 691 150 608 c 0
 82 505 59 397 83 287 c 2
 94 237 l 1
 123 201 l 2
 158 159 232 117 309 95 c 2
 365 79 l 1
 436 84 l 2
 475 86 529 96 554 105 c 0
325 18 m 0
 265 29 141 86 95 125 c 0
 48 165 23 219 11 309 c 2
 0 386 l 1
 12 450 l 2
 28 537 73 631 134 697 c 2
 184 752 l 1
 249 781 l 1
 313 810 l 1
 416 815 l 1
 518 819 l 1
 576 807 l 2
 645 793 695 762 723 716 c 0
 734 698 758 664 776 641 c 0
 794 618 815 581 821 557 c 2
 833 515 l 1
 828 422 l 1
 822 330 l 1
 801 263 l 2
 775 181 745 137 691 95 c 0
 611 34 439 -2 325 18 c 0
EndSplineSet
Validated: 33
EndChar

StartChar: P
Encoding: 80 80 79
Width: 765
Flags: HW
LayerCount: 2
Fore
SplineSet
366 436 m 0
 409 445 473 465 508 481 c 2
 571 510 l 1
 589 537 l 1
 607 564 l 1
 594 587 l 2
 577 618 498 672 421 703 c 2
 357 728 l 1
 245 744 l 2
 183 753 127 757 118 754 c 2
 102 748 l 1
 102 591 l 2
 102 504 105 431 109 427 c 0
 122 414 287 420 366 436 c 0
53 2 m 2
 40 14 l 1
 40 185 l 1
 40 355 l 1
 20 374 l 2
 -4 396 -7 429 15 437 c 2
 30 443 l 1
 30 590 l 1
 30 738 l 1
 17 759 l 1
 5 780 l 1
 29 799 l 1
 53 819 l 1
 148 819 l 2
 200 819 280 812 324 804 c 2
 404 789 l 1
 497 743 l 1
 590 697 l 1
 633 651 l 1
 675 605 l 1
 675 572 l 2
 675 508 625 455 517 406 c 0
 448 375 359 359 228 352 c 2
 103 345 l 1
 109 183 l 1
 115 21 l 1
 102 5 l 2
 86 -14 70 -15 53 2 c 2
EndSplineSet
Validated: 33
EndChar

StartChar: Q
Encoding: 81 81 80
Width: 1094
Flags: HW
LayerCount: 2
Fore
SplineSet
595 99 m 1
 645 121 l 1
 630 131 l 2
 601 149 476 278 476 291 c 0
 476 298 486 309 497 315 c 2
 518 326 l 1
 558 294 l 2
 580 276 599 258 599 253 c 0
 599 248 619 228 645 207 c 2
 692 169 l 1
 716 191 l 2
 729 203 752 238 767 268 c 2
 795 323 l 1
 801 379 l 1
 806 435 l 1
 795 471 l 2
 782 512 704 594 656 619 c 0
 639 628 592 646 553 658 c 2
 481 680 l 1
 478 702 l 1
 475 725 l 1
 498 733 l 1
 521 742 l 1
 496 747 l 2
 459 754 336 727 268 697 c 2
 209 670 l 1
 159 615 l 1
 109 561 l 1
 88 505 l 2
 77 475 65 428 61 400 c 2
 54 350 l 1
 72 286 l 2
 82 251 102 204 118 183 c 2
 147 144 l 1
 193 121 l 2
 218 109 270 92 309 84 c 2
 379 70 l 1
 462 73 l 1
 544 77 l 1
 595 99 l 1
338 8 m 0
 240 23 175 46 122 83 c 2
 72 117 l 1
 36 187 l 1
 0 257 l 1
 0 371 l 1
 0 485 l 1
 39 563 l 1
 77 641 l 1
 129 688 l 2
 191 743 260 777 361 801 c 2
 436 819 l 1
 494 815 l 2
 526 813 571 802 593 791 c 2
 633 772 l 1
 664 723 l 2
 681 696 698 673 702 673 c 0
 720 673 827 565 846 528 c 0
 857 506 869 465 872 438 c 2
 878 389 l 1
 865 334 l 2
 850 272 823 213 787 165 c 2
 763 132 l 1
 822 110 l 2
 854 98 906 83 937 77 c 0
 1019 61 1019 61 1019 34 c 2
 1019 9 l 1
 998 3 l 2
 969 -6 875 15 780 51 c 2
 700 82 l 1
 681 65 l 2
 671 56 638 38 609 27 c 2
 556 7 l 1
 478 3 l 2
 435 1 372 3 338 8 c 0
EndSplineSet
Validated: 33
EndChar

StartChar: R
Encoding: 82 82 81
Width: 633
Flags: HW
LayerCount: 2
Fore
SplineSet
304 411 m 2
 386 438 l 1
 420 473 l 1
 455 509 l 1
 460 560 l 1
 465 612 l 1
 425 652 l 1
 385 692 l 1
 314 715 l 1
 242 738 l 1
 158 743 l 1
 73 748 l 1
 73 708 l 2
 74 626 93 397 100 386 c 2
 107 374 l 1
 164 380 l 2
 196 383 259 397 304 411 c 2
55 15 m 2
 42 20 l 1
 42 131 l 2
 42 192 36 303 28 378 c 0
 20 453 11 573 7 643 c 2
 0 771 l 1
 15 791 l 1
 30 812 l 1
 112 815 l 1
 193 819 l 1
 278 797 l 2
 416 761 477 723 514 651 c 2
 534 613 l 1
 534 568 l 1
 534 523 l 1
 510 478 l 2
 497 453 467 418 443 400 c 2
 400 367 l 1
 318 341 l 2
 273 327 224 315 211 315 c 0
 136 315 199 265 414 152 c 2
 559 75 l 1
 563 53 l 1
 566 30 l 1
 545 24 l 1
 525 18 l 1
 384 89 l 2
 306 128 213 181 178 207 c 0
 143 233 112 254 111 254 c 0
 110 254 109 206 108 147 c 2
 107 40 l 1
 94 24 l 2
 80 8 76 7 55 15 c 2
EndSplineSet
Validated: 33
EndChar

StartChar: S
Encoding: 83 83 82
Width: 627
Flags: HW
LayerCount: 2
Fore
SplineSet
106 101 m 2
 83 111 61 129 57 139 c 2
 50 157 l 1
 65 173 l 1
 81 188 l 1
 124 168 l 1
 168 149 l 1
 240 150 l 2
 280 151 339 158 372 168 c 2
 433 186 l 1
 462 215 l 2
 498 251 498 257 465 296 c 0
 430 337 353 372 213 410 c 2
 97 442 l 1
 64 467 l 2
 -24 534 -21 637 72 721 c 0
 123 767 182 797 247 809 c 2
 299 819 l 1
 366 808 l 2
 403 802 445 790 461 781 c 0
 506 754 511 704 468 690 c 2
 446 684 l 1
 429 704 l 2
 411 726 351 747 305 747 c 0
 264 747 184 718 141 687 c 0
 97 655 71 616 71 580 c 2
 71 555 l 1
 101 530 l 1
 131 504 l 1
 216 482 l 2
 390 437 498 383 538 322 c 2
 555 296 l 1
 555 256 l 2
 555 204 533 172 476 138 c 0
 411 100 335 82 235 82 c 2
 148 82 l 1
 106 101 l 2
EndSplineSet
Validated: 33
EndChar

StartChar: T
Encoding: 84 84 83
Width: 851
Flags: HW
LayerCount: 2
Fore
SplineSet
373 114 m 0
 366 137 346 524 346 636 c 2
 346 746 l 1
 175 749 l 1
 3 752 l 1
 0 773 l 2
 -2 785 4 800 12 807 c 2
 26 819 l 1
 301 819 l 1
 577 819 l 1
 659 808 l 2
 755 794 756 794 756 763 c 0
 756 731 739 726 662 736 c 0
 626 741 558 746 510 748 c 2
 423 752 l 1
 420 614 l 2
 418 538 422 404 428 316 c 2
 440 157 l 1
 429 129 l 1
 419 102 l 1
 398 102 l 2
 386 102 375 107 373 114 c 0
EndSplineSet
Validated: 33
EndChar

StartChar: U
Encoding: 85 85 84
Width: 606
Flags: HW
LayerCount: 2
Fore
SplineSet
152 55 m 0
 130 63 94 87 72 108 c 2
 32 147 l 1
 16 203 l 1
 0 258 l 1
 7 336 l 2
 20 486 80 710 127 787 c 2
 146 819 l 1
 169 816 l 1
 192 813 l 1
 195 790 l 2
 197 778 189 751 178 729 c 0
 129 632 74 400 74 290 c 2
 74 239 l 1
 97 194 l 1
 120 149 l 1
 156 129 l 1
 192 110 l 1
 250 114 l 1
 308 118 l 1
 344 145 l 1
 380 173 l 1
 406 227 l 2
 442 301 464 422 465 557 c 2
 466 669 l 1
 454 698 l 2
 448 714 443 741 443 758 c 2
 443 788 l 1
 471 785 l 1
 499 782 l 1
 517 731 l 1
 536 680 l 1
 531 526 l 1
 526 372 l 1
 510 308 l 2
 480 185 426 105 348 66 c 2
 295 40 l 1
 244 40 l 2
 216 40 174 47 152 55 c 0
EndSplineSet
Validated: 33
EndChar

StartChar: V
Encoding: 86 86 85
Width: 627
Flags: HW
LayerCount: 2
Fore
SplineSet
228 53 m 0
 178 103 110 285 59 502 c 0
 42 575 20 661 11 693 c 0
 -7 757 -3 784 26 784 c 0
 62 784 64 779 130 506 c 0
 179 304 247 117 264 136 c 0
 268 140 288 196 308 261 c 0
 328 326 379 474 420 589 c 2
 496 798 l 1
 513 809 l 1
 529 819 l 1
 546 802 l 1
 563 786 l 1
 526 680 l 2
 506 622 450 459 402 319 c 0
 354 179 309 58 303 50 c 0
 287 31 248 33 228 53 c 0
EndSplineSet
Validated: 33
EndChar

StartChar: W
Encoding: 87 87 86
Width: 1024
Flags: HW
LayerCount: 2
Fore
SplineSet
190 19 m 0
 181 32 174 56 174 73 c 0
 174 113 153 192 120 274 c 0
 92 344 16 653 6 740 c 2
 0 792 l 1
 16 806 l 1
 33 819 l 1
 50 809 l 2
 59 803 68 784 70 768 c 0
 77 698 168 343 200 256 c 0
 220 204 236 152 236 140 c 0
 236 128 239 119 242 119 c 0
 245 119 311 179 388 252 c 0
 465 325 535 385 544 385 c 0
 570 385 580 365 593 285 c 0
 600 244 611 195 618 177 c 2
 632 145 l 1
 645 186 l 2
 704 371 889 776 925 799 c 2
 942 810 l 1
 960 792 l 1
 977 775 l 1
 894 603 l 2
 804 418 759 305 708 146 c 0
 690 90 671 35 665 25 c 0
 651 -1 619 1 601 29 c 0
 585 54 539 187 528 239 c 2
 521 273 l 1
 493 253 l 2
 459 229 303 75 265 29 c 0
 233 -10 212 -12 190 19 c 0
EndSplineSet
Validated: 33
EndChar

StartChar: X
Encoding: 88 88 87
Width: 833
Flags: HW
LayerCount: 2
Fore
SplineSet
60 16 m 0
 43 33 59 69 160 237 c 0
 219 336 268 421 268 426 c 0
 268 431 256 446 241 460 c 0
 199 499 102 621 49 702 c 2
 0 775 l 1
 12 797 l 1
 24 819 l 1
 40 816 l 2
 49 814 86 772 121 721 c 0
 156 670 213 597 248 559 c 2
 311 490 l 1
 408 636 l 2
 461 716 512 788 521 795 c 0
 544 813 563 810 574 789 c 2
 584 771 l 1
 477 613 l 2
 418 526 371 450 371 444 c 0
 371 429 431 372 534 293 c 0
 606 237 693 154 715 119 c 0
 722 107 699 81 680 81 c 0
 671 81 631 112 591 150 c 0
 522 215 336 367 326 367 c 0
 323 367 274 289 217 194 c 0
 112 19 86 -10 60 16 c 0
EndSplineSet
Validated: 33
EndChar

StartChar: Y
Encoding: 89 89 88
Width: 621
Flags: HW
LayerCount: 2
Fore
SplineSet
259 43 m 2
 245 61 l 1
 245 242 l 1
 246 424 l 1
 218 440 l 2
 203 449 165 484 134 518 c 2
 77 580 l 1
 38 657 l 1
 0 735 l 1
 11 752 l 2
 17 761 30 769 40 769 c 2
 59 769 l 1
 98 691 l 1
 138 613 l 1
 195 555 l 2
 227 523 259 498 266 498 c 0
 273 498 319 545 368 601 c 0
 417 657 469 712 483 723 c 2
 508 743 l 1
 527 733 l 2
 538 727 546 717 546 710 c 0
 546 703 500 645 443 580 c 0
 386 515 336 455 331 445 c 0
 319 423 301 199 304 104 c 2
 306 32 l 1
 290 29 l 2
 281 27 267 33 259 43 c 2
EndSplineSet
Validated: 33
EndChar

StartChar: Z
Encoding: 90 90 89
Width: 968
Flags: HW
LayerCount: 2
Fore
SplineSet
12 76 m 2
 0 91 l 1
 7 112 l 2
 11 124 47 161 87 196 c 0
 127 231 197 292 242 333 c 0
 287 374 404 477 503 562 c 0
 602 647 684 721 686 726 c 0
 690 737 588 745 343 754 c 2
 146 761 l 1
 140 776 l 2
 137 784 140 797 146 805 c 2
 158 819 l 1
 329 819 l 2
 423 819 563 814 638 808 c 2
 775 797 l 1
 787 781 l 2
 814 747 780 710 485 452 c 0
 185 189 180 184 192 184 c 0
 198 184 244 193 294 204 c 0
 398 227 587 252 724 261 c 0
 775 264 828 269 843 272 c 2
 870 278 l 1
 886 261 l 1
 903 244 l 1
 893 225 l 1
 882 206 l 1
 813 200 l 2
 582 179 519 171 432 157 c 0
 316 138 147 99 85 77 c 0
 30 58 27 58 12 76 c 2
EndSplineSet
Validated: 33
EndChar

StartChar: bracketleft
Encoding: 91 91 90
Width: 409
Flags: HW
LayerCount: 2
Fore
SplineSet
6 85 m 1
 0 109 l 1
 21 185 l 1
 43 261 l 1
 43 353 l 2
 43 403 47 488 53 542 c 0
 59 596 66 673 70 714 c 2
 76 789 l 1
 100 804 l 1
 123 819 l 1
 208 814 l 2
 255 811 294 809 295 809 c 0
 305 803 307 771 298 760 c 2
 286 746 l 1
 217 746 l 1
 148 746 l 1
 131 621 l 2
 122 552 114 445 114 383 c 0
 114 321 110 252 105 229 c 0
 100 206 93 174 89 156 c 2
 81 124 l 1
 186 129 l 1
 292 135 l 1
 305 117 l 1
 318 98 l 1
 308 79 l 1
 298 60 l 1
 155 60 l 1
 12 60 l 1
 6 85 l 1
EndSplineSet
Validated: 33
EndChar

StartChar: bracketright
Encoding: 93 93 91
Width: 388
Flags: HW
LayerCount: 2
Fore
SplineSet
31 76 m 2
 20 104 41 114 125 125 c 2
 204 136 l 1
 204 335 l 1
 204 535 l 1
 190 641 l 1
 176 747 l 1
 99 743 l 1
 23 740 l 1
 11 757 l 1
 0 775 l 1
 15 790 l 1
 30 805 l 1
 123 812 l 1
 216 819 l 1
 233 802 l 1
 251 784 l 1
 251 742 l 2
 251 718 256 669 261 632 c 0
 266 595 271 460 271 330 c 2
 271 95 l 1
 250 77 l 1
 228 59 l 1
 133 59 l 1
 38 59 l 1
 31 76 l 2
EndSplineSet
Validated: 33
EndChar

StartChar: asciicircum
Encoding: 94 94 92
Width: 523
Flags: HW
LayerCount: 2
Fore
SplineSet
8 517 m 0
 1 525 -2 540 1 550 c 0
 8 572 135 705 213 771 c 2
 271 819 l 1
 298 819 l 1
 326 819 l 1
 347 771 l 2
 358 744 386 681 409 632 c 2
 451 542 l 1
 435 526 l 1
 418 509 l 1
 402 516 l 2
 393 520 361 570 333 630 c 2
 281 739 l 1
 254 716 l 2
 239 703 186 649 135 597 c 0
 84 545 37 502 31 502 c 0
 25 502 15 509 8 517 c 0
EndSplineSet
Validated: 33
EndChar

StartChar: underscore
Encoding: 95 95 93
Width: 977
Flags: HW
LayerCount: 2
Fore
SplineSet
60 -1 m 2
 43 3 l 1
 46 29 l 2
 48 43 57 59 65 63 c 0
 73 67 262 76 484 82 c 2
 888 92 l 1
 902 81 l 2
 910 75 915 60 913 48 c 2
 909 27 l 1
 541 15 l 2
 338 8 151 1 125 -1 c 0
 99 -3 70 -3 60 -1 c 2
EndSplineSet
Validated: 33
EndChar

StartChar: grave
Encoding: 96 96 94
Width: 216
Flags: HW
LayerCount: 2
Fore
SplineSet
87 634 m 0
 50 663 0 742 0 771 c 0
 0 783 7 799 15 806 c 2
 31 819 l 1
 47 806 l 2
 56 799 70 778 79 761 c 0
 88 744 108 714 124 696 c 0
 157 659 162 627 137 618 c 0
 116 610 119 609 87 634 c 0
EndSplineSet
Validated: 33
EndChar

StartChar: zcaron
Encoding: 184 382 95
Width: 311
Flags: HW
LayerCount: 2
Fore
SplineSet
22 -306 m 0
 -3 -289 -9 -255 12 -248 c 0
 19 -245 50 -245 79 -248 c 2
 132 -253 l 1
 158 -236 l 2
 186 -218 192 -186 171 -172 c 0
 164 -167 129 -163 92 -163 c 2
 25 -163 l 1
 28 -72 l 1
 31 20 l 1
 46 36 l 1
 62 51 l 1
 79 40 l 1
 97 28 l 1
 94 -28 l 1
 92 -85 l 1
 135 -92 l 2
 223 -107 256 -137 256 -205 c 2
 256 -243 l 1
 221 -276 l 2
 171 -323 68 -339 22 -306 c 0
EndSplineSet
Validated: 33
EndChar

StartChar: uni00B9
Encoding: 185 185 96
Width: 292
Flags: HW
LayerCount: 2
Fore
SplineSet
128 527 m 2
 116 542 l 1
 132 626 l 2
 141 672 147 712 145 714 c 0
 143 716 120 694 94 665 c 2
 46 613 l 1
 23 616 l 1
 0 620 l 1
 0 642 l 1
 0 665 l 1
 75 742 l 1
 150 819 l 1
 180 819 l 1
 210 819 l 1
 222 795 l 1
 233 770 l 1
 210 654 l 2
 197 590 183 532 177 525 c 0
 163 508 143 509 128 527 c 2
EndSplineSet
Validated: 33
EndChar

StartChar: guillemotright
Encoding: 187 187 97
Width: 729
Flags: HW
LayerCount: 2
Fore
SplineSet
160 59 m 0
 156 63 153 74 153 84 c 2
 153 102 l 1
 310 220 l 2
 466 338 614 465 604 474 c 0
 594 483 291 615 225 638 c 2
 158 661 l 1
 155 684 l 1
 152 708 l 1
 170 714 l 2
 198 725 264 703 463 615 c 2
 650 533 l 1
 672 508 l 1
 694 483 l 1
 689 462 l 2
 679 425 502 271 302 125 c 0
 208 57 177 42 160 59 c 0
7 151 m 0
 3 155 0 167 0 179 c 2
 0 201 l 1
 69 239 l 2
 138 278 318 417 324 436 c 0
 326 442 271 471 202 502 c 0
 25 580 -10 609 39 635 c 2
 57 644 l 1
 215 573 l 2
 302 534 385 491 398 478 c 2
 422 454 l 1
 415 433 l 2
 407 407 308 320 199 242 c 0
 81 157 27 131 7 151 c 0
EndSplineSet
Validated: 33
EndChar

StartChar: uni00B2
Encoding: 178 178 98
Width: 394
Flags: HW
LayerCount: 2
Fore
SplineSet
18 451 m 1
 0 465 l 1
 4 489 l 1
 7 514 l 1
 99 553 l 1
 191 592 l 1
 224 624 l 1
 258 657 l 1
 258 685 l 1
 258 714 l 1
 228 729 l 2
 185 751 171 749 142 714 c 2
 116 684 l 1
 109 637 l 1
 102 591 l 1
 83 581 l 1
 65 571 l 1
 49 587 l 2
 40 596 33 609 33 616 c 0
 33 649 67 737 90 765 c 2
 116 796 l 1
 155 808 l 1
 194 819 l 1
 231 807 l 2
 251 800 281 779 298 759 c 2
 330 724 l 1
 330 678 l 1
 330 632 l 1
 281 584 l 2
 254 557 223 530 212 523 c 2
 191 511 l 1
 239 516 l 1
 287 522 l 1
 297 503 l 1
 308 483 l 1
 300 470 l 2
 288 450 222 438 124 438 c 2
 37 438 l 1
 18 451 l 1
EndSplineSet
Validated: 33
EndChar

StartChar: Zcaron
Encoding: 180 381 99
Width: 206
Flags: HW
LayerCount: 2
Fore
SplineSet
66 634 m 0
 34 609 36 610 15 618 c 0
 -10 627 -4 659 29 696 c 0
 45 714 65 744 74 761 c 0
 83 778 97 799 106 806 c 2
 122 819 l 1
 137 806 l 2
 145 799 153 783 153 771 c 0
 153 742 103 663 66 634 c 0
EndSplineSet
Validated: 33
EndChar

StartChar: uni00B3
Encoding: 179 179 100
Width: 338
Flags: HW
LayerCount: 2
Fore
SplineSet
75 471 m 2
 68 480 63 496 65 506 c 2
 68 524 l 1
 130 531 l 2
 164 535 199 541 209 545 c 2
 228 552 l 1
 225 569 l 1
 221 586 l 1
 170 588 l 2
 142 589 114 590 108 590 c 0
 92 591 81 621 91 638 c 0
 95 646 121 666 148 683 c 0
 199 715 207 730 179 741 c 2
 163 748 l 1
 127 729 l 1
 92 710 l 1
 72 670 l 1
 52 631 l 1
 29 634 l 1
 7 637 l 1
 3 671 l 1
 0 706 l 1
 51 755 l 1
 103 805 l 1
 141 812 l 1
 180 819 l 1
 216 800 l 1
 252 780 l 1
 262 752 l 1
 272 724 l 1
 256 691 l 1
 240 658 l 1
 269 630 l 1
 298 603 l 1
 298 569 l 2
 298 531 285 511 246 485 c 2
 219 467 l 1
 154 461 l 1
 88 455 l 1
 75 471 l 2
EndSplineSet
Validated: 33
EndChar

StartChar: uni00AD
Encoding: 173 173 102
Width: 832
Flags: HW
LayerCount: 2
Fore
SplineSet
518 36 m 1
 512 52 l 1
 563 100 l 1
 615 147 l 1
 642 201 l 2
 657 230 676 281 684 313 c 0
 723 463 680 686 600 752 c 2
 574 773 l 1
 578 793 l 1
 582 813 l 1
 609 816 l 1
 635 819 l 1
 672 776 l 2
 760 673 795 463 751 292 c 0
 725 190 687 122 626 65 c 2
 577 19 l 1
 551 19 l 1
 525 19 l 1
 518 36 l 1
303 90 m 1
 380 66 l 1
 384 46 l 1
 366 33 l 2
 338 13 300 16 243 44 c 0
 177 77 83 170 53 232 c 2
 29 280 l 1
 25 367 l 1
 22 454 l 1
 42 518 l 2
 70 607 125 701 186 765 c 2
 239 819 l 1
 261 816 l 2
 273 814 287 805 293 796 c 2
 304 779 l 1
 252 729 l 2
 189 667 152 610 119 522 c 2
 94 455 l 1
 93 393 l 2
 91 282 122 206 225 140 c 2
 303 90 l 1
243 385 m 0
 224 389 205 399 200 406 c 2
 192 420 l 1
 201 435 l 1
 210 451 l 1
 397 448 l 2
 500 446 589 441 594 436 c 0
 599 431 601 419 599 409 c 2
 595 390 l 1
 539 383 l 2
 461 374 285 375 243 385 c 0
EndSplineSet
Validated: 33
EndChar

StartChar: multiply
Encoding: 215 215 103
Width: 526
Flags: HW
LayerCount: 2
Fore
SplineSet
409 265 m 0
 357 310 237 399 228 399 c 0
 224 399 191 365 155 323 c 2
 89 246 l 1
 66 246 l 1
 42 246 l 1
 36 262 l 1
 30 277 l 1
 55 313 l 2
 69 332 102 371 129 400 c 2
 179 452 l 1
 89 542 l 1
 0 632 l 1
 3 656 l 1
 7 681 l 1
 25 684 l 1
 44 688 l 1
 130 600 l 2
 177 552 219 512 224 512 c 0
 229 512 271 555 317 609 c 0
 363 663 408 707 415 707 c 0
 431 707 452 686 452 671 c 0
 452 665 413 614 365 558 c 2
 277 456 l 1
 291 446 l 2
 299 440 340 409 384 376 c 0
 428 343 469 306 475 292 c 2
 486 267 l 1
 473 251 l 2
 455 229 448 231 409 265 c 0
EndSplineSet
Validated: 33
EndChar

StartChar: section
Encoding: 167 167 104
Width: 565
Flags: HW
LayerCount: 2
Fore
SplineSet
395 127 m 2
 442 155 l 1
 458 191 l 1
 473 228 l 1
 461 267 l 1
 450 306 l 1
 423 324 l 2
 386 348 266 386 244 380 c 0
 217 373 125 271 117 240 c 2
 110 213 l 1
 129 193 l 2
 139 182 175 154 209 131 c 2
 271 89 l 1
 310 94 l 2
 331 97 369 112 395 127 c 2
158 -287 m 0
 83 -265 38 -175 86 -143 c 0
 102 -132 130 -152 137 -179 c 2
 143 -203 l 1
 171 -214 l 2
 251 -245 330 -235 376 -189 c 2
 402 -163 l 1
 396 -122 l 2
 389 -70 373 -53 284 -0 c 0
 172 66 85 130 62 162 c 0
 23 217 41 280 120 368 c 0
 145 396 160 419 154 419 c 0
 148 419 123 429 97 441 c 2
 50 463 l 1
 25 499 l 1
 0 536 l 1
 0 571 l 1
 0 606 l 1
 25 649 l 1
 50 692 l 1
 104 729 l 2
 168 773 262 809 333 815 c 2
 384 819 l 1
 408 806 l 2
 421 799 439 783 447 771 c 2
 461 750 l 1
 447 731 l 1
 432 711 l 1
 397 731 l 1
 361 750 l 1
 304 739 l 2
 228 724 159 689 111 644 c 2
 72 606 l 1
 72 575 l 1
 72 543 l 1
 99 522 l 2
 114 510 158 491 198 479 c 0
 426 412 482 385 512 326 c 2
 532 287 l 1
 532 232 l 1
 532 178 l 1
 509 139 l 2
 486 100 407 40 380 40 c 2
 366 40 l 1
 408 -0 l 1
 449 -41 l 1
 462 -81 l 1
 474 -122 l 1
 467 -156 l 2
 463 -175 452 -204 441 -222 c 2
 422 -254 l 1
 377 -276 l 1
 331 -298 l 1
 260 -297 l 2
 221 -296 175 -292 158 -287 c 0
EndSplineSet
Validated: 33
EndChar

StartChar: guillemotleft
Encoding: 171 171 105
Width: 796
Flags: HW
LayerCount: 2
Fore
SplineSet
362 138 m 0
 232 182 98 233 63 250 c 2
 0 282 l 1
 0 308 l 1
 0 333 l 1
 28 356 l 2
 43 369 140 462 243 563 c 2
 430 748 l 1
 448 736 l 2
 458 730 467 717 469 707 c 2
 473 690 l 1
 283 502 l 1
 92 314 l 1
 141 292 l 2
 168 280 289 238 410 198 c 0
 531 158 638 119 648 109 c 2
 666 91 l 1
 660 74 l 1
 653 57 l 1
 626 57 l 2
 611 57 492 94 362 138 c 0
599 174 m 0
 468 219 304 290 280 311 c 0
 239 347 234 341 434 521 c 2
 546 621 l 1
 572 618 l 1
 599 615 l 1
 602 596 l 1
 606 577 l 1
 562 540 l 2
 492 480 364 362 360 353 c 0
 356 344 387 330 543 270 c 0
 602 247 668 226 690 222 c 0
 712 218 735 207 741 198 c 2
 751 181 l 1
 738 165 l 2
 719 143 683 145 599 174 c 0
EndSplineSet
Validated: 33
EndChar

StartChar: registered
Encoding: 174 174 106
Width: 507
Flags: HW
LayerCount: 2
Fore
SplineSet
279 582 m 0
 279 588 275 592 271 592 c 0
 267 592 253 595 240 598 c 2
 217 604 l 1
 217 588 l 1
 217 571 l 1
 248 571 l 2
 265 571 279 576 279 582 c 0
299 415 m 0
 299 419 280 434 257 447 c 2
 215 471 l 1
 189 458 l 1
 164 444 l 1
 151 462 l 1
 137 480 l 1
 142 544 l 2
 145 579 152 625 157 646 c 2
 167 684 l 1
 191 684 l 2
 224 684 294 658 330 632 c 2
 361 611 l 1
 361 587 l 2
 361 549 350 530 321 519 c 2
 294 508 l 1
 322 488 l 2
 337 477 350 460 350 452 c 2
 350 437 l 1
 363 441 l 2
 370 443 382 456 389 470 c 2
 403 495 l 1
 397 560 l 1
 392 625 l 1
 370 671 l 1
 347 717 l 1
 313 731 l 2
 272 748 226 749 171 732 c 2
 131 719 l 1
 108 686 l 2
 96 667 79 626 72 595 c 2
 60 538 l 1
 80 502 l 2
 108 451 144 427 208 418 c 0
 285 407 299 406 299 415 c 0
140 358 m 0
 95 374 49 413 23 454 c 2
 0 490 l 1
 4 569 l 1
 8 648 l 1
 32 698 l 1
 56 747 l 1
 94 772 l 2
 115 786 158 802 192 808 c 2
 253 819 l 1
 305 808 l 1
 357 796 l 1
 394 765 l 1
 432 734 l 1
 449 676 l 1
 466 617 l 1
 467 536 l 1
 468 454 l 1
 444 420 l 2
 431 402 403 377 381 366 c 2
 341 346 l 1
 256 347 l 2
 209 347 157 352 140 358 c 0
EndSplineSet
Validated: 33
EndChar

StartChar: degree
Encoding: 176 176 107
Width: 412
Flags: HW
LayerCount: 2
Fore
SplineSet
253 557 m 0
 271 571 291 596 298 613 c 2
 311 644 l 1
 284 676 l 2
 269 693 258 713 258 721 c 2
 258 735 l 1
 228 741 l 1
 198 748 l 1
 167 732 l 2
 125 710 86 660 78 618 c 2
 71 583 l 1
 85 566 l 2
 93 557 113 543 130 535 c 2
 160 521 l 1
 190 527 l 2
 206 530 235 543 253 557 c 0
124 461 m 0
 104 467 74 483 56 497 c 2
 24 521 l 1
 12 557 l 1
 0 593 l 1
 7 626 l 2
 26 712 91 788 165 808 c 2
 206 819 l 1
 246 809 l 2
 303 794 334 765 360 704 c 2
 383 651 l 1
 370 610 l 2
 338 502 223 432 124 461 c 0
EndSplineSet
Validated: 33
EndChar

StartChar: copyright
Encoding: 169 169 108
Width: 557
Flags: HW
LayerCount: 2
Fore
SplineSet
205 516 m 1
 170 551 l 1
 170 589 l 1
 170 627 l 1
 191 656 l 1
 211 685 l 1
 248 697 l 1
 284 709 l 1
 318 702 l 2
 337 699 359 687 369 676 c 2
 387 657 l 1
 383 633 l 1
 380 609 l 1
 361 606 l 2
 351 604 334 610 323 620 c 2
 304 637 l 1
 277 631 l 2
 246 623 234 599 249 575 c 2
 259 558 l 1
 299 553 l 1
 339 548 l 1
 342 531 l 2
 344 522 337 507 328 498 c 2
 312 481 l 1
 276 481 l 1
 240 481 l 1
 205 516 l 1
383 478 m 0
 412 496 436 550 436 595 c 0
 436 613 427 649 415 673 c 2
 393 717 l 1
 364 732 l 2
 348 740 316 748 293 748 c 2
 251 748 l 1
 212 727 l 2
 190 716 159 692 144 674 c 2
 116 641 l 1
 122 594 l 2
 133 503 158 475 241 461 c 0
 298 451 351 458 383 478 c 0
176 404 m 2
 154 412 123 431 107 447 c 2
 78 476 l 1
 61 544 l 1
 43 612 l 1
 56 655 l 1
 69 697 l 1
 107 736 l 2
 128 757 167 785 192 797 c 2
 238 819 l 1
 293 819 l 1
 349 819 l 1
 411 787 l 2
 489 747 492 744 495 704 c 0
 497 686 500 644 504 612 c 2
 510 553 l 1
 484 499 l 1
 457 445 l 1
 424 419 l 1
 390 394 l 1
 303 392 l 1
 216 389 l 1
 176 404 l 2
EndSplineSet
Validated: 33
EndChar

StartChar: backslash
Encoding: 92 92 109
Width: 640
Flags: HW
LayerCount: 2
Fore
SplineSet
457 121 m 2
 429 151 377 215 342 263 c 0
 307 311 242 400 196 462 c 0
 150 524 87 620 56 675 c 2
 0 776 l 1
 6 791 l 2
 9 799 19 809 29 813 c 2
 46 819 l 1
 66 794 l 2
 77 780 104 735 128 693 c 0
 183 595 429 255 501 179 c 2
 556 121 l 1
 553 97 l 1
 550 73 l 1
 528 70 l 1
 507 67 l 1
 457 121 l 2
EndSplineSet
Validated: 1
EndChar

StartChar: divide
Encoding: 247 247 110
Width: 580
Flags: HW
LayerCount: 2
Fore
SplineSet
203 518 m 2
 200 526 199 541 201 551 c 2
 204 569 l 1
 234 569 l 1
 264 569 l 1
 264 539 l 1
 264 509 l 1
 236 506 l 1
 209 503 l 1
 203 518 l 2
177 373 m 2
 20 379 l 1
 8 390 l 2
 2 396 -1 410 1 420 c 2
 4 439 l 1
 234 435 l 1
 464 432 l 1
 478 418 l 1
 493 404 l 1
 478 389 l 1
 464 375 l 1
 399 371 l 2
 363 369 263 370 177 373 c 2
205 240 m 0
 186 259 185 265 202 288 c 2
 215 306 l 1
 239 302 l 1
 264 299 l 1
 267 278 l 2
 270 257 246 224 229 224 c 0
 224 224 214 231 205 240 c 0
EndSplineSet
Validated: 33
EndChar

StartChar: Agrave
Encoding: 192 192 111
Width: 640
Flags: HW
LayerCount: 2
Fore
SplineSet
387 366 m 2
 387 372 372 435 354 507 c 2
 321 637 l 1
 272 506 l 2
 245 434 224 371 224 366 c 2
 224 356 l 1
 306 356 l 1
 387 356 l 1
 387 366 l 2
11 -11 m 0
 -11 -2 -4 24 61 172 c 0
 165 411 227 573 275 732 c 2
 299 812 l 1
 318 818 l 2
 341 825 367 805 367 780 c 0
 367 770 381 701 399 626 c 0
 417 551 455 384 485 254 c 2
 538 18 l 1
 529 0 l 2
 519 -19 503 -23 483 -10 c 0
 476 -6 456 60 439 135 c 0
 422 210 405 275 402 280 c 0
 395 291 214 293 197 282 c 0
 191 278 159 215 126 143 c 0
 57 -11 46 -25 11 -11 c 0
EndSplineSet
Validated: 33
EndChar

StartChar: Aacute
Encoding: 193 193 112
Width: 640
Flags: HW
LayerCount: 2
Fore
SplineSet
178 849 m 1
 160 863 l 1
 170 879 l 2
 182 899 390 996 424 998 c 2
 447 999 l 1
 459 981 l 1
 470 963 l 1
 447 946 l 2
 422 927 267 857 223 844 c 2
 196 836 l 1
 178 849 l 1
387 366 m 2
 387 372 372 435 354 507 c 2
 321 637 l 1
 272 506 l 2
 245 434 224 371 224 366 c 2
 224 356 l 1
 306 356 l 1
 387 356 l 1
 387 366 l 2
11 -11 m 0
 -11 -2 -4 24 61 172 c 0
 165 411 227 573 275 732 c 2
 299 812 l 1
 318 818 l 2
 341 825 367 805 367 780 c 0
 367 770 381 701 399 626 c 0
 417 551 455 384 485 254 c 2
 538 18 l 1
 529 0 l 2
 519 -19 503 -23 483 -10 c 0
 476 -6 456 60 439 135 c 0
 422 210 405 275 402 280 c 0
 395 291 214 293 197 282 c 0
 191 278 159 215 126 143 c 0
 57 -11 46 -25 11 -11 c 0
EndSplineSet
Validated: 33
EndChar

StartChar: Acircumflex
Encoding: 194 194 113
Width: 640
Flags: HW
LayerCount: 2
Fore
SplineSet
387 366 m 2
 387 372 372 435 354 507 c 2
 321 637 l 1
 272 506 l 2
 245 434 224 371 224 366 c 2
 224 356 l 1
 306 356 l 1
 387 356 l 1
 387 366 l 2
11 -11 m 0
 -11 -2 -4 24 61 172 c 0
 165 411 227 573 275 732 c 2
 299 812 l 1
 318 818 l 2
 341 825 367 805 367 780 c 0
 367 770 381 701 399 626 c 0
 417 551 455 384 485 254 c 2
 538 18 l 1
 529 0 l 2
 519 -19 503 -23 483 -10 c 0
 476 -6 456 60 439 135 c 0
 422 210 405 275 402 280 c 0
 395 291 214 293 197 282 c 0
 191 278 159 215 126 143 c 0
 57 -11 46 -25 11 -11 c 0
EndSplineSet
Validated: 33
EndChar

StartChar: Atilde
Encoding: 195 195 114
Width: 640
Flags: HW
LayerCount: 2
Fore
SplineSet
387 366 m 2
 387 372 372 435 354 507 c 2
 321 637 l 1
 272 506 l 2
 245 434 224 371 224 366 c 2
 224 356 l 1
 306 356 l 1
 387 356 l 1
 387 366 l 2
11 -11 m 0
 -11 -2 -4 24 61 172 c 0
 165 411 227 573 275 732 c 2
 299 812 l 1
 318 818 l 2
 341 825 367 805 367 780 c 0
 367 770 381 701 399 626 c 0
 417 551 455 384 485 254 c 2
 538 18 l 1
 529 0 l 2
 519 -19 503 -23 483 -10 c 0
 476 -6 456 60 439 135 c 0
 422 210 405 275 402 280 c 0
 395 291 214 293 197 282 c 0
 191 278 159 215 126 143 c 0
 57 -11 46 -25 11 -11 c 0
EndSplineSet
Validated: 33
EndChar

StartChar: Adieresis
Encoding: 196 196 115
Width: 640
Flags: HW
LayerCount: 2
Fore
SplineSet
387 366 m 2
 387 372 372 435 354 507 c 2
 321 637 l 1
 272 506 l 2
 245 434 224 371 224 366 c 2
 224 356 l 1
 306 356 l 1
 387 356 l 1
 387 366 l 2
11 -11 m 0
 -11 -2 -4 24 61 172 c 0
 165 411 227 573 275 732 c 2
 299 812 l 1
 318 818 l 2
 341 825 367 805 367 780 c 0
 367 770 381 701 399 626 c 0
 417 551 455 384 485 254 c 2
 538 18 l 1
 529 0 l 2
 519 -19 503 -23 483 -10 c 0
 476 -6 456 60 439 135 c 0
 422 210 405 275 402 280 c 0
 395 291 214 293 197 282 c 0
 191 278 159 215 126 143 c 0
 57 -11 46 -25 11 -11 c 0
EndSplineSet
Validated: 33
EndChar

StartChar: Aring
Encoding: 197 197 116
Width: 640
Flags: HW
LayerCount: 2
Fore
SplineSet
387 366 m 2
 387 372 372 435 354 507 c 2
 321 637 l 1
 272 506 l 2
 245 434 224 371 224 366 c 2
 224 356 l 1
 306 356 l 1
 387 356 l 1
 387 366 l 2
11 -11 m 0
 -11 -2 -4 24 61 172 c 0
 165 411 227 573 275 732 c 2
 299 812 l 1
 318 818 l 2
 341 825 367 805 367 780 c 0
 367 770 381 701 399 626 c 0
 417 551 455 384 485 254 c 2
 538 18 l 1
 529 0 l 2
 519 -19 503 -23 483 -10 c 0
 476 -6 456 60 439 135 c 0
 422 210 405 275 402 280 c 0
 395 291 214 293 197 282 c 0
 191 278 159 215 126 143 c 0
 57 -11 46 -25 11 -11 c 0
EndSplineSet
Validated: 33
EndChar

StartChar: agrave
Encoding: 224 224 117
Width: 563
Flags: HW
LayerCount: 2
Fore
SplineSet
230 105 m 0
 271 134 307 201 331 297 c 2
 352 381 l 1
 341 393 l 1
 329 404 l 1
 273 403 l 1
 217 402 l 1
 177 375 l 2
 128 342 87 275 78 212 c 2
 71 164 l 1
 85 132 l 1
 98 100 l 1
 128 87 l 2
 163 72 190 77 230 105 c 0
85 28 m 0
 43 49 16 92 7 150 c 2
 0 194 l 1
 13 248 l 2
 35 339 103 423 179 455 c 2
 217 471 l 1
 281 471 l 1
 345 471 l 1
 379 450 l 2
 397 439 415 422 419 413 c 0
 423 404 417 348 408 288 c 0
 389 168 387 115 400 94 c 2
 409 80 l 1
 440 86 l 1
 470 93 l 1
 484 76 l 1
 498 60 l 1
 487 43 l 2
 481 34 462 21 444 16 c 2
 411 7 l 1
 386 19 l 2
 372 25 352 44 342 61 c 2
 323 92 l 1
 305 72 l 2
 255 16 151 -4 85 28 c 0
EndSplineSet
Validated: 33
EndChar

StartChar: aacute
Encoding: 225 225 118
Width: 563
Flags: HW
LayerCount: 2
Fore
SplineSet
118 529 m 1
 100 543 l 1
 110 559 l 2
 122 579 330 676 364 678 c 2
 387 679 l 1
 399 661 l 1
 410 643 l 1
 387 626 l 2
 362 607 207 537 163 524 c 2
 136 516 l 1
 118 529 l 1
230 105 m 0
 271 134 307 201 331 297 c 2
 352 381 l 1
 341 393 l 1
 329 404 l 1
 273 403 l 1
 217 402 l 1
 177 375 l 2
 128 342 87 275 78 212 c 2
 71 164 l 1
 85 132 l 1
 98 100 l 1
 128 87 l 2
 163 72 190 77 230 105 c 0
85 28 m 0
 43 49 16 92 7 150 c 2
 0 194 l 1
 13 248 l 2
 35 339 103 423 179 455 c 2
 217 471 l 1
 281 471 l 1
 345 471 l 1
 379 450 l 2
 397 439 415 422 419 413 c 0
 423 404 417 348 408 288 c 0
 389 168 387 115 400 94 c 2
 409 80 l 1
 440 86 l 1
 470 93 l 1
 484 76 l 1
 498 60 l 1
 487 43 l 2
 481 34 462 21 444 16 c 2
 411 7 l 1
 386 19 l 2
 372 25 352 44 342 61 c 2
 323 92 l 1
 305 72 l 2
 255 16 151 -4 85 28 c 0
EndSplineSet
Validated: 33
EndChar

StartChar: acircumflex
Encoding: 226 226 119
Width: 563
Flags: HW
LayerCount: 2
Fore
SplineSet
230 105 m 0
 271 134 307 201 331 297 c 2
 352 381 l 1
 341 393 l 1
 329 404 l 1
 273 403 l 1
 217 402 l 1
 177 375 l 2
 128 342 87 275 78 212 c 2
 71 164 l 1
 85 132 l 1
 98 100 l 1
 128 87 l 2
 163 72 190 77 230 105 c 0
85 28 m 0
 43 49 16 92 7 150 c 2
 0 194 l 1
 13 248 l 2
 35 339 103 423 179 455 c 2
 217 471 l 1
 281 471 l 1
 345 471 l 1
 379 450 l 2
 397 439 415 422 419 413 c 0
 423 404 417 348 408 288 c 0
 389 168 387 115 400 94 c 2
 409 80 l 1
 440 86 l 1
 470 93 l 1
 484 76 l 1
 498 60 l 1
 487 43 l 2
 481 34 462 21 444 16 c 2
 411 7 l 1
 386 19 l 2
 372 25 352 44 342 61 c 2
 323 92 l 1
 305 72 l 2
 255 16 151 -4 85 28 c 0
EndSplineSet
Validated: 33
EndChar

StartChar: atilde
Encoding: 227 227 120
Width: 563
Flags: HW
LayerCount: 2
Fore
SplineSet
230 105 m 0
 271 134 307 201 331 297 c 2
 352 381 l 1
 341 393 l 1
 329 404 l 1
 273 403 l 1
 217 402 l 1
 177 375 l 2
 128 342 87 275 78 212 c 2
 71 164 l 1
 85 132 l 1
 98 100 l 1
 128 87 l 2
 163 72 190 77 230 105 c 0
85 28 m 0
 43 49 16 92 7 150 c 2
 0 194 l 1
 13 248 l 2
 35 339 103 423 179 455 c 2
 217 471 l 1
 281 471 l 1
 345 471 l 1
 379 450 l 2
 397 439 415 422 419 413 c 0
 423 404 417 348 408 288 c 0
 389 168 387 115 400 94 c 2
 409 80 l 1
 440 86 l 1
 470 93 l 1
 484 76 l 1
 498 60 l 1
 487 43 l 2
 481 34 462 21 444 16 c 2
 411 7 l 1
 386 19 l 2
 372 25 352 44 342 61 c 2
 323 92 l 1
 305 72 l 2
 255 16 151 -4 85 28 c 0
EndSplineSet
Validated: 33
EndChar

StartChar: adieresis
Encoding: 228 228 121
Width: 563
Flags: HW
LayerCount: 2
Fore
SplineSet
363 532 m 2
 340 548 l 1
 340 573 l 1
 340 598 l 1
 366 615 l 1
 392 632 l 1
 428 615 l 1
 463 598 l 1
 463 578 l 2
 463 552 429 516 404 516 c 0
 394 516 376 523 363 532 c 2
113 532 m 2
 90 548 l 1
 90 573 l 1
 90 598 l 1
 116 615 l 1
 142 632 l 1
 178 615 l 1
 213 598 l 1
 213 578 l 2
 213 552 179 516 154 516 c 0
 144 516 126 523 113 532 c 2
230 105 m 0
 271 134 307 201 331 297 c 2
 352 381 l 1
 341 393 l 1
 329 404 l 1
 273 403 l 1
 217 402 l 1
 177 375 l 2
 128 342 87 275 78 212 c 2
 71 164 l 1
 85 132 l 1
 98 100 l 1
 128 87 l 2
 163 72 190 77 230 105 c 0
85 28 m 0
 43 49 16 92 7 150 c 2
 0 194 l 1
 13 248 l 2
 35 339 103 423 179 455 c 2
 217 471 l 1
 281 471 l 1
 345 471 l 1
 379 450 l 2
 397 439 415 422 419 413 c 0
 423 404 417 348 408 288 c 0
 389 168 387 115 400 94 c 2
 409 80 l 1
 440 86 l 1
 470 93 l 1
 484 76 l 1
 498 60 l 1
 487 43 l 2
 481 34 462 21 444 16 c 2
 411 7 l 1
 386 19 l 2
 372 25 352 44 342 61 c 2
 323 92 l 1
 305 72 l 2
 255 16 151 -4 85 28 c 0
EndSplineSet
Validated: 33
EndChar

StartChar: aring
Encoding: 229 229 122
Width: 563
Flags: HW
LayerCount: 2
Fore
SplineSet
230 105 m 0
 271 134 307 201 331 297 c 2
 352 381 l 1
 341 393 l 1
 329 404 l 1
 273 403 l 1
 217 402 l 1
 177 375 l 2
 128 342 87 275 78 212 c 2
 71 164 l 1
 85 132 l 1
 98 100 l 1
 128 87 l 2
 163 72 190 77 230 105 c 0
85 28 m 0
 43 49 16 92 7 150 c 2
 0 194 l 1
 13 248 l 2
 35 339 103 423 179 455 c 2
 217 471 l 1
 281 471 l 1
 345 471 l 1
 379 450 l 2
 397 439 415 422 419 413 c 0
 423 404 417 348 408 288 c 0
 389 168 387 115 400 94 c 2
 409 80 l 1
 440 86 l 1
 470 93 l 1
 484 76 l 1
 498 60 l 1
 487 43 l 2
 481 34 462 21 444 16 c 2
 411 7 l 1
 386 19 l 2
 372 25 352 44 342 61 c 2
 323 92 l 1
 305 72 l 2
 255 16 151 -4 85 28 c 0
EndSplineSet
Validated: 33
EndChar

StartChar: ccedilla
Encoding: 231 231 123
Width: 544
Flags: HW
LayerCount: 2
Fore
SplineSet
127 27 m 0
 80 38 36 68 17 100 c 2
 0 128 l 1
 0 200 l 1
 0 271 l 1
 15 314 l 2
 23 338 44 377 62 401 c 2
 94 446 l 1
 145 473 l 1
 196 501 l 1
 276 507 l 1
 356 512 l 1
 402 490 l 1
 448 467 l 1
 461 438 l 2
 468 422 470 403 466 397 c 0
 454 378 417 385 392 413 c 2
 367 440 l 1
 289 435 l 1
 210 431 l 1
 176 413 l 1
 142 395 l 1
 113 349 l 2
 97 323 77 277 71 246 c 2
 60 190 l 1
 74 152 l 1
 88 115 l 1
 123 103 l 2
 143 96 189 90 227 90 c 2
 295 89 l 1
 357 108 l 2
 425 129 444 125 439 88 c 2
 435 64 l 1
 369 41 l 1
 302 18 l 1
 230 19 l 2
 191 19 144 23 127 27 c 0
EndSplineSet
Validated: 33
EndChar

StartChar: egrave
Encoding: 232 232 124
Width: 646
Flags: HW
LayerCount: 2
Fore
SplineSet
350 362 m 2
 374 379 402 407 413 426 c 2
 433 460 l 1
 422 471 l 2
 416 477 391 484 366 487 c 2
 320 492 l 1
 260 475 l 2
 179 452 116 413 97 376 c 2
 81 346 l 1
 94 341 l 2
 125 331 163 327 232 329 c 2
 306 331 l 1
 350 362 l 2
229 19 m 0
 115 35 52 72 19 146 c 2
 0 188 l 1
 0 255 l 1
 0 323 l 1
 16 368 l 2
 49 460 158 532 296 553 c 2
 365 563 l 1
 409 551 l 2
 433 544 465 528 479 514 c 2
 504 488 l 1
 498 452 l 2
 486 375 396 288 303 263 c 2
 261 252 l 1
 176 259 l 2
 129 263 84 269 75 272 c 2
 59 278 l 1
 66 233 l 2
 79 150 123 111 225 89 c 2
 282 77 l 1
 345 88 l 2
 380 94 435 111 466 125 c 0
 530 154 553 151 553 115 c 2
 553 91 l 1
 504 66 l 2
 413 20 326 6 229 19 c 0
EndSplineSet
Validated: 33
EndChar

StartChar: eacute
Encoding: 233 233 125
Width: 646
Flags: HW
LayerCount: 2
Fore
SplineSet
118 589 m 1
 100 603 l 1
 110 619 l 2
 122 639 330 736 364 738 c 2
 387 739 l 1
 399 721 l 1
 410 703 l 1
 387 686 l 2
 362 667 207 597 163 584 c 2
 136 576 l 1
 118 589 l 1
350 362 m 2
 374 379 402 407 413 426 c 2
 433 460 l 1
 422 471 l 2
 416 477 391 484 366 487 c 2
 320 492 l 1
 260 475 l 2
 179 452 116 413 97 376 c 2
 81 346 l 1
 94 341 l 2
 125 331 163 327 232 329 c 2
 306 331 l 1
 350 362 l 2
229 19 m 0
 115 35 52 72 19 146 c 2
 0 188 l 1
 0 255 l 1
 0 323 l 1
 16 368 l 2
 49 460 158 532 296 553 c 2
 365 563 l 1
 409 551 l 2
 433 544 465 528 479 514 c 2
 504 488 l 1
 498 452 l 2
 486 375 396 288 303 263 c 2
 261 252 l 1
 176 259 l 2
 129 263 84 269 75 272 c 2
 59 278 l 1
 66 233 l 2
 79 150 123 111 225 89 c 2
 282 77 l 1
 345 88 l 2
 380 94 435 111 466 125 c 0
 530 154 553 151 553 115 c 2
 553 91 l 1
 504 66 l 2
 413 20 326 6 229 19 c 0
EndSplineSet
Validated: 33
EndChar

StartChar: ecircumflex
Encoding: 234 234 126
Width: 646
Flags: HW
LayerCount: 2
Fore
SplineSet
350 362 m 2
 374 379 402 407 413 426 c 2
 433 460 l 1
 422 471 l 2
 416 477 391 484 366 487 c 2
 320 492 l 1
 260 475 l 2
 179 452 116 413 97 376 c 2
 81 346 l 1
 94 341 l 2
 125 331 163 327 232 329 c 2
 306 331 l 1
 350 362 l 2
229 19 m 0
 115 35 52 72 19 146 c 2
 0 188 l 1
 0 255 l 1
 0 323 l 1
 16 368 l 2
 49 460 158 532 296 553 c 2
 365 563 l 1
 409 551 l 2
 433 544 465 528 479 514 c 2
 504 488 l 1
 498 452 l 2
 486 375 396 288 303 263 c 2
 261 252 l 1
 176 259 l 2
 129 263 84 269 75 272 c 2
 59 278 l 1
 66 233 l 2
 79 150 123 111 225 89 c 2
 282 77 l 1
 345 88 l 2
 380 94 435 111 466 125 c 0
 530 154 553 151 553 115 c 2
 553 91 l 1
 504 66 l 2
 413 20 326 6 229 19 c 0
EndSplineSet
Validated: 33
EndChar

StartChar: edieresis
Encoding: 235 235 127
Width: 646
Flags: HW
LayerCount: 2
Fore
SplineSet
383 622 m 2
 360 638 l 1
 360 663 l 1
 360 688 l 1
 386 705 l 1
 412 722 l 1
 448 705 l 1
 483 688 l 1
 483 668 l 2
 483 642 449 606 424 606 c 0
 414 606 396 613 383 622 c 2
133 622 m 2
 110 638 l 1
 110 663 l 1
 110 688 l 1
 136 705 l 1
 162 722 l 1
 198 705 l 1
 233 688 l 1
 233 668 l 2
 233 642 199 606 174 606 c 0
 164 606 146 613 133 622 c 2
350 362 m 2
 374 379 402 407 413 426 c 2
 433 460 l 1
 422 471 l 2
 416 477 391 484 366 487 c 2
 320 492 l 1
 260 475 l 2
 179 452 116 413 97 376 c 2
 81 346 l 1
 94 341 l 2
 125 331 163 327 232 329 c 2
 306 331 l 1
 350 362 l 2
229 19 m 0
 115 35 52 72 19 146 c 2
 0 188 l 1
 0 255 l 1
 0 323 l 1
 16 368 l 2
 49 460 158 532 296 553 c 2
 365 563 l 1
 409 551 l 2
 433 544 465 528 479 514 c 2
 504 488 l 1
 498 452 l 2
 486 375 396 288 303 263 c 2
 261 252 l 1
 176 259 l 2
 129 263 84 269 75 272 c 2
 59 278 l 1
 66 233 l 2
 79 150 123 111 225 89 c 2
 282 77 l 1
 345 88 l 2
 380 94 435 111 466 125 c 0
 530 154 553 151 553 115 c 2
 553 91 l 1
 504 66 l 2
 413 20 326 6 229 19 c 0
EndSplineSet
Validated: 33
EndChar

StartChar: igrave
Encoding: 236 236 128
Width: 502
Flags: HW
LayerCount: 2
Fore
SplineSet
133 12 m 0
 123 18 107 37 99 53 c 2
 84 82 l 1
 84 162 l 2
 84 276 117 390 158 415 c 2
 176 426 l 1
 192 410 l 1
 208 394 l 1
 188 342 l 2
 177 314 162 262 156 227 c 2
 144 163 l 1
 151 122 l 2
 162 56 203 57 288 124 c 0
 317 147 348 165 359 165 c 0
 380 165 393 143 385 121 c 0
 379 105 295 40 252 17 c 0
 218 -1 160 -3 133 12 c 0
136 559 m 0
 129 567 125 586 127 602 c 2
 130 631 l 1
 155 643 l 1
 180 655 l 1
 198 646 l 2
 208 641 219 627 223 615 c 2
 229 594 l 1
 206 569 l 2
 180 541 154 537 136 559 c 0
EndSplineSet
Validated: 33
EndChar

StartChar: iacute
Encoding: 237 237 129
Width: 502
Flags: HW
LayerCount: 2
Fore
SplineSet
48 469 m 1
 30 483 l 1
 40 499 l 2
 52 519 260 616 294 618 c 2
 317 619 l 1
 329 601 l 1
 340 583 l 1
 317 566 l 2
 292 547 137 477 93 464 c 2
 66 456 l 1
 48 469 l 1
133 12 m 0
 123 18 107 37 99 53 c 2
 84 82 l 1
 84 162 l 2
 84 276 117 390 158 415 c 2
 176 426 l 1
 192 410 l 1
 208 394 l 1
 188 342 l 2
 177 314 162 262 156 227 c 2
 144 163 l 1
 151 122 l 2
 162 56 203 57 288 124 c 0
 317 147 348 165 359 165 c 0
 380 165 393 143 385 121 c 0
 379 105 295 40 252 17 c 0
 218 -1 160 -3 133 12 c 0
EndSplineSet
Validated: 33
EndChar

StartChar: icircumflex
Encoding: 238 238 130
Width: 502
Flags: HW
LayerCount: 2
Fore
SplineSet
133 12 m 0
 123 18 107 37 99 53 c 2
 84 82 l 1
 84 162 l 2
 84 276 117 390 158 415 c 2
 176 426 l 1
 192 410 l 1
 208 394 l 1
 188 342 l 2
 177 314 162 262 156 227 c 2
 144 163 l 1
 151 122 l 2
 162 56 203 57 288 124 c 0
 317 147 348 165 359 165 c 0
 380 165 393 143 385 121 c 0
 379 105 295 40 252 17 c 0
 218 -1 160 -3 133 12 c 0
136 559 m 0
 129 567 125 586 127 602 c 2
 130 631 l 1
 155 643 l 1
 180 655 l 1
 198 646 l 2
 208 641 219 627 223 615 c 2
 229 594 l 1
 206 569 l 2
 180 541 154 537 136 559 c 0
EndSplineSet
Validated: 33
EndChar

StartChar: idieresis
Encoding: 239 239 131
Width: 502
Flags: HW
LayerCount: 2
Fore
SplineSet
293 512 m 2
 270 528 l 1
 270 553 l 1
 270 578 l 1
 296 595 l 1
 322 612 l 1
 358 595 l 1
 393 578 l 1
 393 558 l 2
 393 532 359 496 334 496 c 0
 324 496 306 503 293 512 c 2
43 512 m 2
 20 528 l 1
 20 553 l 1
 20 578 l 1
 46 595 l 1
 72 612 l 1
 108 595 l 1
 143 578 l 1
 143 558 l 2
 143 532 109 496 84 496 c 0
 74 496 56 503 43 512 c 2
133 12 m 0
 123 18 107 37 99 53 c 2
 84 82 l 1
 84 162 l 2
 84 276 117 390 158 415 c 2
 176 426 l 1
 192 410 l 1
 208 394 l 1
 188 342 l 2
 177 314 162 262 156 227 c 2
 144 163 l 1
 151 122 l 2
 162 56 203 57 288 124 c 0
 317 147 348 165 359 165 c 0
 380 165 393 143 385 121 c 0
 379 105 295 40 252 17 c 0
 218 -1 160 -3 133 12 c 0
EndSplineSet
Validated: 33
EndChar

StartChar: Ntilde
Encoding: 209 209 132
Width: 673
Flags: HW
LayerCount: 2
Fore
SplineSet
232 916 m 2
 163 987 126 1007 85 997 c 0
 48 988 -5 945 -23 910 c 2
 -39 880 l 1
 -59 880 l 2
 -106 880 -97 940 -41 996 c 0
 11 1048 50 1068 105 1068 c 0
 172 1068 214 1042 292 953 c 2
 320 921 l 1
 349 921 l 1
 378 921 l 1
 437 956 l 2
 470 976 518 1010 544 1032 c 0
 624 1099 658 1106 658 1058 c 2
 658 1034 l 1
 580 971 l 2
 537 937 475 896 442 879 c 2
 382 849 l 1
 339 849 l 1
 296 849 l 1
 232 916 l 2
11 28 m 0
 5 39 2 54 6 60 c 0
 14 73 14 725 6 757 c 2
 0 781 l 1
 14 800 l 1
 28 819 l 1
 49 813 l 2
 60 809 75 793 82 778 c 0
 110 716 421 277 504 182 c 2
 535 146 l 1
 530 213 l 2
 514 439 500 774 506 789 c 0
 514 809 549 813 560 795 c 0
 564 789 571 695 576 587 c 0
 581 479 592 324 600 242 c 0
 608 160 615 79 615 61 c 2
 615 29 l 1
 595 18 l 1
 574 7 l 1
 555 17 l 2
 521 35 342 267 185 494 c 2
 88 635 l 1
 83 334 l 2
 80 169 74 28 69 21 c 0
 56 1 23 5 11 28 c 0
EndSplineSet
Validated: 33
EndChar

StartChar: ntilde
Encoding: 241 241 133
Width: 517
Flags: HW
LayerCount: 2
Fore
SplineSet
212 606 m 2
 143 677 106 697 65 687 c 0
 28 678 -25 635 -43 600 c 2
 -59 570 l 1
 -79 570 l 2
 -126 570 -117 630 -61 686 c 0
 -9 738 30 758 85 758 c 0
 152 758 194 732 272 643 c 2
 300 611 l 1
 329 611 l 1
 358 611 l 1
 417 646 l 2
 450 666 498 700 524 722 c 0
 604 789 638 796 638 748 c 2
 638 724 l 1
 560 661 l 2
 517 627 455 586 422 569 c 2
 362 539 l 1
 319 539 l 1
 276 539 l 1
 212 606 l 2
13 32 m 2
 0 48 l 1
 2 199 l 2
 3 282 7 383 11 425 c 2
 19 501 l 1
 36 512 l 1
 53 522 l 1
 70 508 l 1
 87 494 l 1
 80 417 l 1
 73 340 l 1
 119 382 l 2
 199 455 272 474 341 438 c 2
 377 419 l 1
 400 379 l 1
 423 339 l 1
 423 276 l 1
 423 213 l 1
 401 143 l 2
 376 63 367 47 340 47 c 0
 309 47 305 76 330 153 c 0
 343 193 354 247 354 273 c 2
 355 321 l 1
 338 348 l 2
 303 402 241 396 172 332 c 2
 126 290 l 1
 94 225 l 1
 62 160 l 1
 68 104 l 2
 72 73 72 42 69 33 c 0
 61 12 30 12 13 32 c 2
EndSplineSet
Validated: 33
EndChar

StartChar: ograve
Encoding: 242 242 134
Width: 615
Flags: HW
LayerCount: 2
Fore
SplineSet
279 98 m 0
 303 107 343 126 367 141 c 2
 410 168 l 1
 434 209 l 1
 457 251 l 1
 457 300 l 1
 457 349 l 1
 410 396 l 1
 363 443 l 1
 311 448 l 1
 259 453 l 1
 213 431 l 2
 133 392 70 294 70 208 c 2
 70 166 l 1
 88 138 l 2
 123 85 199 70 279 98 c 0
143 20 m 0
 128 25 99 39 79 51 c 2
 42 74 l 1
 21 115 l 1
 0 157 l 1
 4 225 l 1
 8 292 l 1
 31 338 l 2
 44 364 73 405 95 429 c 2
 135 472 l 1
 189 497 l 1
 243 522 l 1
 285 522 l 2
 339 522 412 500 452 472 c 2
 483 450 l 1
 505 402 l 1
 527 353 l 1
 527 295 l 1
 527 236 l 1
 504 190 l 2
 476 132 425 87 344 49 c 2
 280 19 l 1
 225 15 l 2
 195 13 158 15 143 20 c 0
EndSplineSet
Validated: 33
EndChar

StartChar: oacute
Encoding: 243 243 135
Width: 615
Flags: HW
LayerCount: 2
Fore
SplineSet
118 549 m 1
 100 563 l 1
 110 579 l 2
 122 599 330 696 364 698 c 2
 387 699 l 1
 399 681 l 1
 410 663 l 1
 387 646 l 2
 362 627 207 557 163 544 c 2
 136 536 l 1
 118 549 l 1
279 98 m 0
 303 107 343 126 367 141 c 2
 410 168 l 1
 434 209 l 1
 457 251 l 1
 457 300 l 1
 457 349 l 1
 410 396 l 1
 363 443 l 1
 311 448 l 1
 259 453 l 1
 213 431 l 2
 133 392 70 294 70 208 c 2
 70 166 l 1
 88 138 l 2
 123 85 199 70 279 98 c 0
143 20 m 0
 128 25 99 39 79 51 c 2
 42 74 l 1
 21 115 l 1
 0 157 l 1
 4 225 l 1
 8 292 l 1
 31 338 l 2
 44 364 73 405 95 429 c 2
 135 472 l 1
 189 497 l 1
 243 522 l 1
 285 522 l 2
 339 522 412 500 452 472 c 2
 483 450 l 1
 505 402 l 1
 527 353 l 1
 527 295 l 1
 527 236 l 1
 504 190 l 2
 476 132 425 87 344 49 c 2
 280 19 l 1
 225 15 l 2
 195 13 158 15 143 20 c 0
EndSplineSet
Validated: 33
EndChar

StartChar: ocircumflex
Encoding: 244 244 136
Width: 615
Flags: HW
LayerCount: 2
Fore
SplineSet
279 98 m 0
 303 107 343 126 367 141 c 2
 410 168 l 1
 434 209 l 1
 457 251 l 1
 457 300 l 1
 457 349 l 1
 410 396 l 1
 363 443 l 1
 311 448 l 1
 259 453 l 1
 213 431 l 2
 133 392 70 294 70 208 c 2
 70 166 l 1
 88 138 l 2
 123 85 199 70 279 98 c 0
143 20 m 0
 128 25 99 39 79 51 c 2
 42 74 l 1
 21 115 l 1
 0 157 l 1
 4 225 l 1
 8 292 l 1
 31 338 l 2
 44 364 73 405 95 429 c 2
 135 472 l 1
 189 497 l 1
 243 522 l 1
 285 522 l 2
 339 522 412 500 452 472 c 2
 483 450 l 1
 505 402 l 1
 527 353 l 1
 527 295 l 1
 527 236 l 1
 504 190 l 2
 476 132 425 87 344 49 c 2
 280 19 l 1
 225 15 l 2
 195 13 158 15 143 20 c 0
EndSplineSet
Validated: 33
EndChar

StartChar: otilde
Encoding: 245 245 137
Width: 615
Flags: HW
LayerCount: 2
Fore
SplineSet
279 98 m 0
 303 107 343 126 367 141 c 2
 410 168 l 1
 434 209 l 1
 457 251 l 1
 457 300 l 1
 457 349 l 1
 410 396 l 1
 363 443 l 1
 311 448 l 1
 259 453 l 1
 213 431 l 2
 133 392 70 294 70 208 c 2
 70 166 l 1
 88 138 l 2
 123 85 199 70 279 98 c 0
143 20 m 0
 128 25 99 39 79 51 c 2
 42 74 l 1
 21 115 l 1
 0 157 l 1
 4 225 l 1
 8 292 l 1
 31 338 l 2
 44 364 73 405 95 429 c 2
 135 472 l 1
 189 497 l 1
 243 522 l 1
 285 522 l 2
 339 522 412 500 452 472 c 2
 483 450 l 1
 505 402 l 1
 527 353 l 1
 527 295 l 1
 527 236 l 1
 504 190 l 2
 476 132 425 87 344 49 c 2
 280 19 l 1
 225 15 l 2
 195 13 158 15 143 20 c 0
EndSplineSet
Validated: 33
EndChar

StartChar: odieresis
Encoding: 246 246 138
Width: 615
Flags: HW
LayerCount: 2
Fore
SplineSet
383 572 m 2
 360 588 l 1
 360 613 l 1
 360 638 l 1
 386 655 l 1
 412 672 l 1
 448 655 l 1
 483 638 l 1
 483 618 l 2
 483 592 449 556 424 556 c 0
 414 556 396 563 383 572 c 2
133 572 m 2
 110 588 l 1
 110 613 l 1
 110 638 l 1
 136 655 l 1
 162 672 l 1
 198 655 l 1
 233 638 l 1
 233 618 l 2
 233 592 199 556 174 556 c 0
 164 556 146 563 133 572 c 2
279 98 m 0
 303 107 343 126 367 141 c 2
 410 168 l 1
 434 209 l 1
 457 251 l 1
 457 300 l 1
 457 349 l 1
 410 396 l 1
 363 443 l 1
 311 448 l 1
 259 453 l 1
 213 431 l 2
 133 392 70 294 70 208 c 2
 70 166 l 1
 88 138 l 2
 123 85 199 70 279 98 c 0
143 20 m 0
 128 25 99 39 79 51 c 2
 42 74 l 1
 21 115 l 1
 0 157 l 1
 4 225 l 1
 8 292 l 1
 31 338 l 2
 44 364 73 405 95 429 c 2
 135 472 l 1
 189 497 l 1
 243 522 l 1
 285 522 l 2
 339 522 412 500 452 472 c 2
 483 450 l 1
 505 402 l 1
 527 353 l 1
 527 295 l 1
 527 236 l 1
 504 190 l 2
 476 132 425 87 344 49 c 2
 280 19 l 1
 225 15 l 2
 195 13 158 15 143 20 c 0
EndSplineSet
Validated: 33
EndChar

StartChar: ugrave
Encoding: 249 249 139
Width: 510
Flags: HW
LayerCount: 2
Fore
SplineSet
361 42 m 0
 355 49 345 75 339 99 c 2
 327 142 l 1
 280 107 l 2
 177 29 69 49 19 157 c 2
 0 198 l 1
 0 286 l 1
 0 373 l 1
 16 434 l 2
 34 503 45 521 73 521 c 0
 102 521 106 496 88 430 c 2
 72 371 l 1
 72 290 l 1
 72 209 l 1
 85 184 l 2
 92 170 109 151 124 140 c 2
 150 120 l 1
 190 137 l 2
 212 146 248 170 269 191 c 2
 308 229 l 1
 317 265 l 2
 322 285 330 351 334 413 c 0
 338 475 345 535 350 545 c 2
 360 563 l 1
 382 560 l 1
 404 557 l 1
 404 485 l 2
 404 446 400 363 395 301 c 2
 386 188 l 1
 404 124 l 1
 422 60 l 1
 410 45 l 2
 394 26 375 25 361 42 c 0
EndSplineSet
Validated: 33
EndChar

StartChar: uacute
Encoding: 250 250 140
Width: 510
Flags: HW
LayerCount: 2
Fore
SplineSet
88 609 m 1
 70 623 l 1
 80 639 l 2
 92 659 300 756 334 758 c 2
 357 759 l 1
 369 741 l 1
 380 723 l 1
 357 706 l 2
 332 687 177 617 133 604 c 2
 106 596 l 1
 88 609 l 1
361 42 m 0
 355 49 345 75 339 99 c 2
 327 142 l 1
 280 107 l 2
 177 29 69 49 19 157 c 2
 0 198 l 1
 0 286 l 1
 0 373 l 1
 16 434 l 2
 34 503 45 521 73 521 c 0
 102 521 106 496 88 430 c 2
 72 371 l 1
 72 290 l 1
 72 209 l 1
 85 184 l 2
 92 170 109 151 124 140 c 2
 150 120 l 1
 190 137 l 2
 212 146 248 170 269 191 c 2
 308 229 l 1
 317 265 l 2
 322 285 330 351 334 413 c 0
 338 475 345 535 350 545 c 2
 360 563 l 1
 382 560 l 1
 404 557 l 1
 404 485 l 2
 404 446 400 363 395 301 c 2
 386 188 l 1
 404 124 l 1
 422 60 l 1
 410 45 l 2
 394 26 375 25 361 42 c 0
EndSplineSet
Validated: 33
EndChar

StartChar: ucircumflex
Encoding: 251 251 141
Width: 510
Flags: HW
LayerCount: 2
Fore
SplineSet
361 42 m 0
 355 49 345 75 339 99 c 2
 327 142 l 1
 280 107 l 2
 177 29 69 49 19 157 c 2
 0 198 l 1
 0 286 l 1
 0 373 l 1
 16 434 l 2
 34 503 45 521 73 521 c 0
 102 521 106 496 88 430 c 2
 72 371 l 1
 72 290 l 1
 72 209 l 1
 85 184 l 2
 92 170 109 151 124 140 c 2
 150 120 l 1
 190 137 l 2
 212 146 248 170 269 191 c 2
 308 229 l 1
 317 265 l 2
 322 285 330 351 334 413 c 0
 338 475 345 535 350 545 c 2
 360 563 l 1
 382 560 l 1
 404 557 l 1
 404 485 l 2
 404 446 400 363 395 301 c 2
 386 188 l 1
 404 124 l 1
 422 60 l 1
 410 45 l 2
 394 26 375 25 361 42 c 0
EndSplineSet
Validated: 33
EndChar

StartChar: udieresis
Encoding: 252 252 142
Width: 510
Flags: HW
LayerCount: 2
Fore
SplineSet
313 622 m 2
 290 638 l 1
 290 663 l 1
 290 688 l 1
 316 705 l 1
 342 722 l 1
 378 705 l 1
 413 688 l 1
 413 668 l 2
 413 642 379 606 354 606 c 0
 344 606 326 613 313 622 c 2
63 622 m 2
 40 638 l 1
 40 663 l 1
 40 688 l 1
 66 705 l 1
 92 722 l 1
 128 705 l 1
 163 688 l 1
 163 668 l 2
 163 642 129 606 104 606 c 0
 94 606 76 613 63 622 c 2
361 42 m 0
 355 49 345 75 339 99 c 2
 327 142 l 1
 280 107 l 2
 177 29 69 49 19 157 c 2
 0 198 l 1
 0 286 l 1
 0 373 l 1
 16 434 l 2
 34 503 45 521 73 521 c 0
 102 521 106 496 88 430 c 2
 72 371 l 1
 72 290 l 1
 72 209 l 1
 85 184 l 2
 92 170 109 151 124 140 c 2
 150 120 l 1
 190 137 l 2
 212 146 248 170 269 191 c 2
 308 229 l 1
 317 265 l 2
 322 285 330 351 334 413 c 0
 338 475 345 535 350 545 c 2
 360 563 l 1
 382 560 l 1
 404 557 l 1
 404 485 l 2
 404 446 400 363 395 301 c 2
 386 188 l 1
 404 124 l 1
 422 60 l 1
 410 45 l 2
 394 26 375 25 361 42 c 0
EndSplineSet
Validated: 33
EndChar

StartChar: yacute
Encoding: 253 253 143
Width: 467
Flags: HW
LayerCount: 2
Fore
SplineSet
160 -344 m 0
 151 -335 147 -323 149 -316 c 0
 151 -309 171 -228 193 -136 c 2
 233 32 l 1
 173 120 l 2
 102 225 0 428 0 463 c 2
 0 488 l 1
 16 494 l 2
 25 497 37 498 42 495 c 0
 47 492 78 438 109 375 c 0
 140 312 184 232 207 196 c 2
 248 130 l 1
 257 139 l 2
 267 149 324 372 334 439 c 0
 338 464 345 494 350 504 c 2
 360 522 l 1
 382 519 l 1
 404 516 l 1
 407 480 l 2
 410 441 397 385 287 -52 c 0
 209 -363 200 -384 160 -344 c 0
EndSplineSet
Validated: 33
EndChar

StartChar: ydieresis
Encoding: 255 255 144
Width: 467
Flags: HW
LayerCount: 2
Fore
SplineSet
160 -344 m 0
 151 -335 147 -323 149 -316 c 0
 151 -309 171 -228 193 -136 c 2
 233 32 l 1
 173 120 l 2
 102 225 0 428 0 463 c 2
 0 488 l 1
 16 494 l 2
 25 497 37 498 42 495 c 0
 47 492 78 438 109 375 c 0
 140 312 184 232 207 196 c 2
 248 130 l 1
 257 139 l 2
 267 149 324 372 334 439 c 0
 338 464 345 494 350 504 c 2
 360 522 l 1
 382 519 l 1
 404 516 l 1
 407 480 l 2
 410 441 397 385 287 -52 c 0
 209 -363 200 -384 160 -344 c 0
EndSplineSet
Validated: 33
EndChar

StartChar: Egrave
Encoding: 200 200 145
Width: 710
Flags: HW
LayerCount: 2
Fore
SplineSet
33 13 m 1
 18 30 l 1
 9 191 l 1
 0 351 l 1
 12 489 l 2
 26 655 28 731 18 767 c 2
 11 794 l 1
 29 802 l 2
 39 807 165 812 307 815 c 2
 566 819 l 1
 581 807 l 2
 602 790 600 759 578 752 c 0
 568 749 460 747 337 748 c 2
 114 749 l 1
 106 739 l 2
 101 734 94 666 90 588 c 2
 82 447 l 1
 175 450 l 1
 269 452 l 1
 281 440 l 1
 294 427 l 1
 282 410 l 1
 271 392 l 1
 231 385 l 2
 209 381 165 377 133 377 c 2
 74 377 l 1
 75 313 l 2
 76 278 79 207 83 157 c 2
 89 66 l 1
 227 68 l 2
 303 69 413 77 470 85 c 0
 527 93 582 97 591 94 c 2
 607 87 l 1
 604 60 l 1
 601 34 l 1
 524 21 l 2
 482 14 358 6 248 2 c 2
 48 -5 l 1
 33 13 l 1
EndSplineSet
Validated: 33
EndChar

StartChar: Eacute
Encoding: 201 201 146
Width: 710
Flags: HW
LayerCount: 2
Fore
SplineSet
178 869 m 1
 160 883 l 1
 170 899 l 2
 182 919 390 1016 424 1018 c 2
 447 1019 l 1
 459 1001 l 1
 470 983 l 1
 447 966 l 2
 422 947 267 877 223 864 c 2
 196 856 l 1
 178 869 l 1
33 13 m 1
 18 30 l 1
 9 191 l 1
 0 351 l 1
 12 489 l 2
 26 655 28 731 18 767 c 2
 11 794 l 1
 29 802 l 2
 39 807 165 812 307 815 c 2
 566 819 l 1
 581 807 l 2
 602 790 600 759 578 752 c 0
 568 749 460 747 337 748 c 2
 114 749 l 1
 106 739 l 2
 101 734 94 666 90 588 c 2
 82 447 l 1
 175 450 l 1
 269 452 l 1
 281 440 l 1
 294 427 l 1
 282 410 l 1
 271 392 l 1
 231 385 l 2
 209 381 165 377 133 377 c 2
 74 377 l 1
 75 313 l 2
 76 278 79 207 83 157 c 2
 89 66 l 1
 227 68 l 2
 303 69 413 77 470 85 c 0
 527 93 582 97 591 94 c 2
 607 87 l 1
 604 60 l 1
 601 34 l 1
 524 21 l 2
 482 14 358 6 248 2 c 2
 48 -5 l 1
 33 13 l 1
EndSplineSet
Validated: 33
EndChar

StartChar: Ecircumflex
Encoding: 202 202 147
Width: 710
Flags: HW
LayerCount: 2
Fore
SplineSet
33 13 m 1
 18 30 l 1
 9 191 l 1
 0 351 l 1
 12 489 l 2
 26 655 28 731 18 767 c 2
 11 794 l 1
 29 802 l 2
 39 807 165 812 307 815 c 2
 566 819 l 1
 581 807 l 2
 602 790 600 759 578 752 c 0
 568 749 460 747 337 748 c 2
 114 749 l 1
 106 739 l 2
 101 734 94 666 90 588 c 2
 82 447 l 1
 175 450 l 1
 269 452 l 1
 281 440 l 1
 294 427 l 1
 282 410 l 1
 271 392 l 1
 231 385 l 2
 209 381 165 377 133 377 c 2
 74 377 l 1
 75 313 l 2
 76 278 79 207 83 157 c 2
 89 66 l 1
 227 68 l 2
 303 69 413 77 470 85 c 0
 527 93 582 97 591 94 c 2
 607 87 l 1
 604 60 l 1
 601 34 l 1
 524 21 l 2
 482 14 358 6 248 2 c 2
 48 -5 l 1
 33 13 l 1
EndSplineSet
Validated: 33
EndChar

StartChar: Edieresis
Encoding: 203 203 148
Width: 710
Flags: HW
LayerCount: 2
Fore
SplineSet
423 882 m 2
 400 898 l 1
 400 923 l 1
 400 948 l 1
 426 965 l 1
 452 982 l 1
 488 965 l 1
 523 948 l 1
 523 928 l 2
 523 902 489 866 464 866 c 0
 454 866 436 873 423 882 c 2
173 882 m 2
 150 898 l 1
 150 923 l 1
 150 948 l 1
 176 965 l 1
 202 982 l 1
 238 965 l 1
 273 948 l 1
 273 928 l 2
 273 902 239 866 214 866 c 0
 204 866 186 873 173 882 c 2
33 13 m 1
 18 30 l 1
 9 191 l 1
 0 351 l 1
 12 489 l 2
 26 655 28 731 18 767 c 2
 11 794 l 1
 29 802 l 2
 39 807 165 812 307 815 c 2
 566 819 l 1
 581 807 l 2
 602 790 600 759 578 752 c 0
 568 749 460 747 337 748 c 2
 114 749 l 1
 106 739 l 2
 101 734 94 666 90 588 c 2
 82 447 l 1
 175 450 l 1
 269 452 l 1
 281 440 l 1
 294 427 l 1
 282 410 l 1
 271 392 l 1
 231 385 l 2
 209 381 165 377 133 377 c 2
 74 377 l 1
 75 313 l 2
 76 278 79 207 83 157 c 2
 89 66 l 1
 227 68 l 2
 303 69 413 77 470 85 c 0
 527 93 582 97 591 94 c 2
 607 87 l 1
 604 60 l 1
 601 34 l 1
 524 21 l 2
 482 14 358 6 248 2 c 2
 48 -5 l 1
 33 13 l 1
EndSplineSet
Validated: 33
EndChar

StartChar: Igrave
Encoding: 204 204 149
Width: 793
Flags: HW
LayerCount: 2
Fore
SplineSet
14 79 m 0
 -4 89 -5 127 12 133 c 0
 19 136 90 141 169 145 c 2
 312 153 l 1
 311 196 l 2
 311 220 310 356 309 497 c 2
 307 754 l 1
 171 752 l 2
 96 751 29 750 22 751 c 2
 8 752 l 1
 12 780 l 1
 15 808 l 1
 82 816 l 2
 119 820 257 820 391 817 c 2
 634 811 l 1
 652 797 l 1
 670 784 l 1
 659 765 l 1
 648 747 l 1
 510 746 l 1
 373 745 l 1
 371 608 l 2
 370 532 372 399 376 312 c 2
 384 153 l 1
 541 153 l 1
 699 153 l 1
 710 135 l 1
 721 118 l 1
 708 104 l 1
 695 91 l 1
 529 85 l 2
 208 73 28 71 14 79 c 0
EndSplineSet
Validated: 33
EndChar

StartChar: Iacute
Encoding: 205 205 150
Width: 793
Flags: HW
LayerCount: 2
Fore
SplineSet
14 79 m 0
 -4 89 -5 127 12 133 c 0
 19 136 90 141 169 145 c 2
 312 153 l 1
 311 196 l 2
 311 220 310 356 309 497 c 2
 307 754 l 1
 171 752 l 2
 96 751 29 750 22 751 c 2
 8 752 l 1
 12 780 l 1
 15 808 l 1
 82 816 l 2
 119 820 257 820 391 817 c 2
 634 811 l 1
 652 797 l 1
 670 784 l 1
 659 765 l 1
 648 747 l 1
 510 746 l 1
 373 745 l 1
 371 608 l 2
 370 532 372 399 376 312 c 2
 384 153 l 1
 541 153 l 1
 699 153 l 1
 710 135 l 1
 721 118 l 1
 708 104 l 1
 695 91 l 1
 529 85 l 2
 208 73 28 71 14 79 c 0
EndSplineSet
Validated: 33
EndChar

StartChar: Icircumflex
Encoding: 206 206 151
Width: 793
Flags: HW
LayerCount: 2
Fore
SplineSet
14 79 m 0
 -4 89 -5 127 12 133 c 0
 19 136 90 141 169 145 c 2
 312 153 l 1
 311 196 l 2
 311 220 310 356 309 497 c 2
 307 754 l 1
 171 752 l 2
 96 751 29 750 22 751 c 2
 8 752 l 1
 12 780 l 1
 15 808 l 1
 82 816 l 2
 119 820 257 820 391 817 c 2
 634 811 l 1
 652 797 l 1
 670 784 l 1
 659 765 l 1
 648 747 l 1
 510 746 l 1
 373 745 l 1
 371 608 l 2
 370 532 372 399 376 312 c 2
 384 153 l 1
 541 153 l 1
 699 153 l 1
 710 135 l 1
 721 118 l 1
 708 104 l 1
 695 91 l 1
 529 85 l 2
 208 73 28 71 14 79 c 0
EndSplineSet
Validated: 33
EndChar

StartChar: Idieresis
Encoding: 207 207 152
Width: 793
Flags: HW
LayerCount: 2
Fore
SplineSet
423 882 m 2
 400 898 l 1
 400 923 l 1
 400 948 l 1
 426 965 l 1
 452 982 l 1
 488 965 l 1
 523 948 l 1
 523 928 l 2
 523 902 489 866 464 866 c 0
 454 866 436 873 423 882 c 2
173 882 m 2
 150 898 l 1
 150 923 l 1
 150 948 l 1
 176 965 l 1
 202 982 l 1
 238 965 l 1
 273 948 l 1
 273 928 l 2
 273 902 239 866 214 866 c 0
 204 866 186 873 173 882 c 2
14 79 m 0
 -4 89 -5 127 12 133 c 0
 19 136 90 141 169 145 c 2
 312 153 l 1
 311 196 l 2
 311 220 310 356 309 497 c 2
 307 754 l 1
 171 752 l 2
 96 751 29 750 22 751 c 2
 8 752 l 1
 12 780 l 1
 15 808 l 1
 82 816 l 2
 119 820 257 820 391 817 c 2
 634 811 l 1
 652 797 l 1
 670 784 l 1
 659 765 l 1
 648 747 l 1
 510 746 l 1
 373 745 l 1
 371 608 l 2
 370 532 372 399 376 312 c 2
 384 153 l 1
 541 153 l 1
 699 153 l 1
 710 135 l 1
 721 118 l 1
 708 104 l 1
 695 91 l 1
 529 85 l 2
 208 73 28 71 14 79 c 0
EndSplineSet
Validated: 33
EndChar

StartChar: Eth
Encoding: 208 208 153
Width: 716
Flags: HW
LayerCount: 2
Fore
SplineSet
186 87 m 0
 236 96 313 114 357 129 c 2
 437 156 l 1
 481 198 l 1
 525 241 l 1
 547 302 l 1
 570 364 l 1
 570 422 l 1
 570 480 l 1
 545 534 l 2
 512 606 455 662 378 697 c 0
 306 730 168 761 111 756 c 2
 72 753 l 1
 72 412 l 1
 72 72 l 1
 83 72 l 2
 89 72 136 78 186 87 c 0
5 -8 m 0
 5 -7 3 176 2 398 c 2
 0 801 l 1
 17 810 l 2
 26 815 77 819 130 819 c 2
 226 819 l 1
 287 804 l 2
 321 795 382 772 422 752 c 2
 495 716 l 1
 541 665 l 2
 566 637 597 593 610 567 c 2
 633 519 l 1
 638 445 l 1
 643 371 l 1
 621 300 l 2
 568 127 461 60 151 11 c 0
 8 -12 6 -12 5 -8 c 0
EndSplineSet
Validated: 33
EndChar

StartChar: Ograve
Encoding: 210 210 154
Width: 873
Flags: HW
LayerCount: 2
Fore
SplineSet
554 105 m 0
 579 114 619 133 644 147 c 2
 689 174 l 1
 708 217 l 2
 740 289 759 378 760 455 c 2
 760 528 l 1
 745 558 l 2
 728 591 693 622 631 657 c 2
 590 680 l 1
 593 706 l 1
 595 733 l 1
 523 745 l 1
 451 757 l 1
 384 746 l 2
 263 725 205 691 150 608 c 0
 82 505 59 397 83 287 c 2
 94 237 l 1
 123 201 l 2
 158 159 232 117 309 95 c 2
 365 79 l 1
 436 84 l 2
 475 86 529 96 554 105 c 0
325 18 m 0
 265 29 141 86 95 125 c 0
 48 165 23 219 11 309 c 2
 0 386 l 1
 12 450 l 2
 28 537 73 631 134 697 c 2
 184 752 l 1
 249 781 l 1
 313 810 l 1
 416 815 l 1
 518 819 l 1
 576 807 l 2
 645 793 695 762 723 716 c 0
 734 698 758 664 776 641 c 0
 794 618 815 581 821 557 c 2
 833 515 l 1
 828 422 l 1
 822 330 l 1
 801 263 l 2
 775 181 745 137 691 95 c 0
 611 34 439 -2 325 18 c 0
EndSplineSet
Validated: 33
EndChar

StartChar: Oacute
Encoding: 211 211 155
Width: 873
Flags: HW
LayerCount: 2
Fore
SplineSet
554 105 m 0
 579 114 619 133 644 147 c 2
 689 174 l 1
 708 217 l 2
 740 289 759 378 760 455 c 2
 760 528 l 1
 745 558 l 2
 728 591 693 622 631 657 c 2
 590 680 l 1
 593 706 l 1
 595 733 l 1
 523 745 l 1
 451 757 l 1
 384 746 l 2
 263 725 205 691 150 608 c 0
 82 505 59 397 83 287 c 2
 94 237 l 1
 123 201 l 2
 158 159 232 117 309 95 c 2
 365 79 l 1
 436 84 l 2
 475 86 529 96 554 105 c 0
325 18 m 0
 265 29 141 86 95 125 c 0
 48 165 23 219 11 309 c 2
 0 386 l 1
 12 450 l 2
 28 537 73 631 134 697 c 2
 184 752 l 1
 249 781 l 1
 313 810 l 1
 416 815 l 1
 518 819 l 1
 576 807 l 2
 645 793 695 762 723 716 c 0
 734 698 758 664 776 641 c 0
 794 618 815 581 821 557 c 2
 833 515 l 1
 828 422 l 1
 822 330 l 1
 801 263 l 2
 775 181 745 137 691 95 c 0
 611 34 439 -2 325 18 c 0
EndSplineSet
Validated: 33
EndChar

StartChar: Ocircumflex
Encoding: 212 212 156
Width: 873
Flags: HW
LayerCount: 2
Fore
SplineSet
554 105 m 0
 579 114 619 133 644 147 c 2
 689 174 l 1
 708 217 l 2
 740 289 759 378 760 455 c 2
 760 528 l 1
 745 558 l 2
 728 591 693 622 631 657 c 2
 590 680 l 1
 593 706 l 1
 595 733 l 1
 523 745 l 1
 451 757 l 1
 384 746 l 2
 263 725 205 691 150 608 c 0
 82 505 59 397 83 287 c 2
 94 237 l 1
 123 201 l 2
 158 159 232 117 309 95 c 2
 365 79 l 1
 436 84 l 2
 475 86 529 96 554 105 c 0
325 18 m 0
 265 29 141 86 95 125 c 0
 48 165 23 219 11 309 c 2
 0 386 l 1
 12 450 l 2
 28 537 73 631 134 697 c 2
 184 752 l 1
 249 781 l 1
 313 810 l 1
 416 815 l 1
 518 819 l 1
 576 807 l 2
 645 793 695 762 723 716 c 0
 734 698 758 664 776 641 c 0
 794 618 815 581 821 557 c 2
 833 515 l 1
 828 422 l 1
 822 330 l 1
 801 263 l 2
 775 181 745 137 691 95 c 0
 611 34 439 -2 325 18 c 0
EndSplineSet
Validated: 33
EndChar

StartChar: Otilde
Encoding: 213 213 157
Width: 873
Flags: HW
LayerCount: 2
Fore
SplineSet
554 105 m 0
 579 114 619 133 644 147 c 2
 689 174 l 1
 708 217 l 2
 740 289 759 378 760 455 c 2
 760 528 l 1
 745 558 l 2
 728 591 693 622 631 657 c 2
 590 680 l 1
 593 706 l 1
 595 733 l 1
 523 745 l 1
 451 757 l 1
 384 746 l 2
 263 725 205 691 150 608 c 0
 82 505 59 397 83 287 c 2
 94 237 l 1
 123 201 l 2
 158 159 232 117 309 95 c 2
 365 79 l 1
 436 84 l 2
 475 86 529 96 554 105 c 0
325 18 m 0
 265 29 141 86 95 125 c 0
 48 165 23 219 11 309 c 2
 0 386 l 1
 12 450 l 2
 28 537 73 631 134 697 c 2
 184 752 l 1
 249 781 l 1
 313 810 l 1
 416 815 l 1
 518 819 l 1
 576 807 l 2
 645 793 695 762 723 716 c 0
 734 698 758 664 776 641 c 0
 794 618 815 581 821 557 c 2
 833 515 l 1
 828 422 l 1
 822 330 l 1
 801 263 l 2
 775 181 745 137 691 95 c 0
 611 34 439 -2 325 18 c 0
EndSplineSet
Validated: 33
EndChar

StartChar: Odieresis
Encoding: 214 214 158
Width: 873
Flags: HW
LayerCount: 2
Fore
SplineSet
503 882 m 2
 480 898 l 1
 480 923 l 1
 480 948 l 1
 506 965 l 1
 532 982 l 1
 568 965 l 1
 603 948 l 1
 603 928 l 2
 603 902 569 866 544 866 c 0
 534 866 516 873 503 882 c 2
253 882 m 2
 230 898 l 1
 230 923 l 1
 230 948 l 1
 256 965 l 1
 282 982 l 1
 318 965 l 1
 353 948 l 1
 353 928 l 2
 353 902 319 866 294 866 c 0
 284 866 266 873 253 882 c 2
554 105 m 0
 579 114 619 133 644 147 c 2
 689 174 l 1
 708 217 l 2
 740 289 759 378 760 455 c 2
 760 528 l 1
 745 558 l 2
 728 591 693 622 631 657 c 2
 590 680 l 1
 593 706 l 1
 595 733 l 1
 523 745 l 1
 451 757 l 1
 384 746 l 2
 263 725 205 691 150 608 c 0
 82 505 59 397 83 287 c 2
 94 237 l 1
 123 201 l 2
 158 159 232 117 309 95 c 2
 365 79 l 1
 436 84 l 2
 475 86 529 96 554 105 c 0
325 18 m 0
 265 29 141 86 95 125 c 0
 48 165 23 219 11 309 c 2
 0 386 l 1
 12 450 l 2
 28 537 73 631 134 697 c 2
 184 752 l 1
 249 781 l 1
 313 810 l 1
 416 815 l 1
 518 819 l 1
 576 807 l 2
 645 793 695 762 723 716 c 0
 734 698 758 664 776 641 c 0
 794 618 815 581 821 557 c 2
 833 515 l 1
 828 422 l 1
 822 330 l 1
 801 263 l 2
 775 181 745 137 691 95 c 0
 611 34 439 -2 325 18 c 0
EndSplineSet
Validated: 33
EndChar

StartChar: Ugrave
Encoding: 217 217 159
Width: 606
Flags: HW
LayerCount: 2
Fore
SplineSet
152 55 m 0
 130 63 94 87 72 108 c 2
 32 147 l 1
 16 203 l 1
 0 258 l 1
 7 336 l 2
 20 486 80 710 127 787 c 2
 146 819 l 1
 169 816 l 1
 192 813 l 1
 195 790 l 2
 197 778 189 751 178 729 c 0
 129 632 74 400 74 290 c 2
 74 239 l 1
 97 194 l 1
 120 149 l 1
 156 129 l 1
 192 110 l 1
 250 114 l 1
 308 118 l 1
 344 145 l 1
 380 173 l 1
 406 227 l 2
 442 301 464 422 465 557 c 2
 466 669 l 1
 454 698 l 2
 448 714 443 741 443 758 c 2
 443 788 l 1
 471 785 l 1
 499 782 l 1
 517 731 l 1
 536 680 l 1
 531 526 l 1
 526 372 l 1
 510 308 l 2
 480 185 426 105 348 66 c 2
 295 40 l 1
 244 40 l 2
 216 40 174 47 152 55 c 0
EndSplineSet
Validated: 33
EndChar

StartChar: Uacute
Encoding: 218 218 160
Width: 606
Flags: HW
LayerCount: 2
Fore
SplineSet
178 869 m 1
 160 883 l 1
 170 899 l 2
 182 919 390 1016 424 1018 c 2
 447 1019 l 1
 459 1001 l 1
 470 983 l 1
 447 966 l 2
 422 947 267 877 223 864 c 2
 196 856 l 1
 178 869 l 1
152 55 m 0
 130 63 94 87 72 108 c 2
 32 147 l 1
 16 203 l 1
 0 258 l 1
 7 336 l 2
 20 486 80 710 127 787 c 2
 146 819 l 1
 169 816 l 1
 192 813 l 1
 195 790 l 2
 197 778 189 751 178 729 c 0
 129 632 74 400 74 290 c 2
 74 239 l 1
 97 194 l 1
 120 149 l 1
 156 129 l 1
 192 110 l 1
 250 114 l 1
 308 118 l 1
 344 145 l 1
 380 173 l 1
 406 227 l 2
 442 301 464 422 465 557 c 2
 466 669 l 1
 454 698 l 2
 448 714 443 741 443 758 c 2
 443 788 l 1
 471 785 l 1
 499 782 l 1
 517 731 l 1
 536 680 l 1
 531 526 l 1
 526 372 l 1
 510 308 l 2
 480 185 426 105 348 66 c 2
 295 40 l 1
 244 40 l 2
 216 40 174 47 152 55 c 0
EndSplineSet
Validated: 33
EndChar

StartChar: Ucircumflex
Encoding: 219 219 161
Width: 606
Flags: HW
LayerCount: 2
Fore
SplineSet
152 55 m 0
 130 63 94 87 72 108 c 2
 32 147 l 1
 16 203 l 1
 0 258 l 1
 7 336 l 2
 20 486 80 710 127 787 c 2
 146 819 l 1
 169 816 l 1
 192 813 l 1
 195 790 l 2
 197 778 189 751 178 729 c 0
 129 632 74 400 74 290 c 2
 74 239 l 1
 97 194 l 1
 120 149 l 1
 156 129 l 1
 192 110 l 1
 250 114 l 1
 308 118 l 1
 344 145 l 1
 380 173 l 1
 406 227 l 2
 442 301 464 422 465 557 c 2
 466 669 l 1
 454 698 l 2
 448 714 443 741 443 758 c 2
 443 788 l 1
 471 785 l 1
 499 782 l 1
 517 731 l 1
 536 680 l 1
 531 526 l 1
 526 372 l 1
 510 308 l 2
 480 185 426 105 348 66 c 2
 295 40 l 1
 244 40 l 2
 216 40 174 47 152 55 c 0
EndSplineSet
Validated: 33
EndChar

StartChar: Udieresis
Encoding: 220 220 162
Width: 606
Flags: HW
LayerCount: 2
Fore
SplineSet
413 882 m 2
 390 898 l 1
 390 923 l 1
 390 948 l 1
 416 965 l 1
 442 982 l 1
 478 965 l 1
 513 948 l 1
 513 928 l 2
 513 902 479 866 454 866 c 0
 444 866 426 873 413 882 c 2
163 882 m 2
 140 898 l 1
 140 923 l 1
 140 948 l 1
 166 965 l 1
 192 982 l 1
 228 965 l 1
 263 948 l 1
 263 928 l 2
 263 902 229 866 204 866 c 0
 194 866 176 873 163 882 c 2
152 55 m 0
 130 63 94 87 72 108 c 2
 32 147 l 1
 16 203 l 1
 0 258 l 1
 7 336 l 2
 20 486 80 710 127 787 c 2
 146 819 l 1
 169 816 l 1
 192 813 l 1
 195 790 l 2
 197 778 189 751 178 729 c 0
 129 632 74 400 74 290 c 2
 74 239 l 1
 97 194 l 1
 120 149 l 1
 156 129 l 1
 192 110 l 1
 250 114 l 1
 308 118 l 1
 344 145 l 1
 380 173 l 1
 406 227 l 2
 442 301 464 422 465 557 c 2
 466 669 l 1
 454 698 l 2
 448 714 443 741 443 758 c 2
 443 788 l 1
 471 785 l 1
 499 782 l 1
 517 731 l 1
 536 680 l 1
 531 526 l 1
 526 372 l 1
 510 308 l 2
 480 185 426 105 348 66 c 2
 295 40 l 1
 244 40 l 2
 216 40 174 47 152 55 c 0
EndSplineSet
Validated: 33
EndChar

StartChar: Yacute
Encoding: 221 221 163
Width: 621
Flags: HW
LayerCount: 2
Fore
SplineSet
259 93 m 2
 245 111 l 1
 245 292 l 1
 246 474 l 1
 218 490 l 2
 203 499 165 534 134 568 c 2
 77 630 l 1
 38 707 l 1
 0 785 l 1
 11 802 l 2
 17 811 30 819 40 819 c 2
 59 819 l 1
 98 741 l 1
 138 663 l 1
 195 605 l 2
 227 573 259 548 266 548 c 0
 273 548 319 595 368 651 c 0
 417 707 469 762 483 773 c 2
 508 793 l 1
 527 783 l 2
 538 777 546 767 546 760 c 0
 546 753 500 695 443 630 c 0
 386 565 336 505 331 495 c 0
 319 473 301 249 304 154 c 2
 306 82 l 1
 290 79 l 2
 281 77 267 83 259 93 c 2
EndSplineSet
Validated: 33
EndChar

StartChar: ae
Encoding: 230 230 164
Width: 935
Flags: HW
LayerCount: 2
Fore
SplineSet
85 28 m 0
 43 49 16 92 7 150 c 2
 0 194 l 1
 13 248 l 2
 35 339 103 423 179 455 c 2
 217 471 l 1
 281 471 l 1
 345 471 l 1
 379 450 l 2
 393 442 406 430 414 421 c 1
 465 462 536 491 616 503 c 2
 685 513 l 1
 729 501 l 2
 753 494 785 478 799 464 c 2
 824 438 l 1
 818 402 l 2
 806 325 716 238 623 213 c 2
 581 202 l 1
 496 209 l 2
 453 213 412 218 398 221 c 1
 395 195 393 174 392 156 c 1
 402 123 420 103 449 88 c 1
 470 93 l 1
 484 76 l 1
 486 74 l 1
 503 69 523 64 545 59 c 2
 602 47 l 1
 655 58 l 2
 690 64 725 91 756 105 c 0
 820 134 843 131 843 95 c 2
 843 71 l 1
 794 46 l 2
 703 0 646 -24 549 -11 c 0
 502 -4 464 2 433 13 c 1
 411 7 l 1
 386 19 l 2
 372 25 352 44 342 61 c 2
 323 92 l 1
 305 72 l 2
 255 16 151 -4 85 28 c 0
670 312 m 2
 694 329 722 357 733 376 c 2
 753 410 l 1
 742 421 l 2
 736 427 711 434 686 437 c 2
 640 442 l 1
 580 425 l 2
 499 402 436 363 417 326 c 2
 412 317 l 2
 411 309 410 301 409 293 c 1
 414 291 l 2
 445 281 483 277 552 279 c 2
 626 281 l 1
 670 312 l 2
337 320 m 2
 352 381 l 1
 341 393 l 1
 329 404 l 1
 273 403 l 1
 217 402 l 1
 177 375 l 2
 128 342 87 275 78 212 c 2
 71 164 l 1
 85 132 l 1
 98 100 l 1
 128 87 l 2
 163 72 190 77 230 105 c 0
 265 130 297 183 320 258 c 1
 320 273 l 1
 336 318 l 2
 336 319 337 319 337 320 c 2
EndSplineSet
Validated: 33
EndChar

StartChar: AE
Encoding: 198 198 165
Width: 1108
Flags: HW
LayerCount: 2
Fore
SplineSet
11 -11 m 0
 -11 -2 -4 24 61 172 c 0
 165 411 227 573 275 732 c 2
 299 812 l 1
 318 818 l 2
 341 825 367 805 367 780 c 0
 367 770 381 701 399 626 c 0
 410 582 427 505 446 423 c 1
 452 489 l 2
 466 655 468 731 458 767 c 2
 451 794 l 1
 469 802 l 2
 479 807 605 812 747 815 c 2
 1006 819 l 1
 1021 807 l 2
 1042 790 1040 759 1018 752 c 0
 1008 749 900 747 777 748 c 2
 554 749 l 1
 546 739 l 2
 541 734 534 666 530 588 c 2
 522 447 l 1
 615 450 l 1
 709 452 l 1
 721 440 l 1
 734 427 l 1
 722 410 l 1
 711 392 l 1
 671 385 l 2
 649 381 605 377 573 377 c 2
 514 377 l 1
 515 313 l 2
 516 278 519 207 523 157 c 2
 529 66 l 1
 667 68 l 2
 743 69 853 77 910 85 c 0
 967 93 1022 97 1031 94 c 2
 1047 87 l 1
 1044 60 l 1
 1041 34 l 1
 964 21 l 2
 922 14 798 6 688 2 c 2
 527 -4 l 1
 517 -20 502 -22 483 -10 c 0
 481 -9 477 1 472 15 c 1
 458 30 l 1
 456 67 l 1
 450 88 445 111 439 135 c 0
 422 210 405 275 402 280 c 0
 395 291 214 293 197 282 c 0
 191 278 159 215 126 143 c 0
 57 -11 46 -25 11 -11 c 0
387 366 m 2
 387 372 372 435 354 507 c 2
 321 637 l 1
 272 506 l 2
 245 434 224 371 224 366 c 2
 224 356 l 1
 306 356 l 1
 387 356 l 1
 387 366 l 2
EndSplineSet
Validated: 33
EndChar

StartChar: plusminus
Encoding: 177 177 166
Width: 600
Flags: HW
LayerCount: 2
Fore
SplineSet
131 35 m 0
 112 39 93 49 88 56 c 2
 80 70 l 1
 89 85 l 1
 98 101 l 1
 256 98 l 1
 256 109 256 120 257 132 c 2
 260 210 l 1
 166 207 l 2
 114 205 63 207 51 211 c 2
 30 218 l 1
 30 236 l 2
 30 246 36 260 43 266 c 2
 57 277 l 1
 164 280 l 1
 271 283 l 1
 274 392 l 1
 276 501 l 1
 290 512 l 2
 298 518 311 521 320 518 c 2
 337 511 l 1
 343 475 l 2
 347 455 348 405 345 364 c 2
 339 289 l 1
 448 291 l 1
 557 293 l 1
 561 274 l 2
 567 242 547 234 445 226 c 0
 391 222 344 216 341 213 c 0
 338 210 331 173 326 130 c 0
 325 119 323 107 322 97 c 1
 409 95 478 90 482 86 c 0
 487 81 489 69 487 59 c 2
 483 40 l 1
 427 33 l 2
 349 24 173 25 131 35 c 0
EndSplineSet
Validated: 33
EndChar

StartChar: Ccedilla
Encoding: 199 199 167
Width: 707
Flags: HW
LayerCount: 2
Fore
SplineSet
370 -42 m 0
 339 -37 285 -20 250 -3 c 2
 186 27 l 1
 135 79 l 1
 84 132 l 1
 49 205 l 1
 14 279 l 1
 7 336 l 1
 0 392 l 1
 11 453 l 2
 36 588 131 727 239 782 c 2
 294 810 l 1
 373 814 l 1
 452 819 l 1
 499 806 l 1
 546 793 l 1
 582 759 l 1
 618 725 l 1
 615 708 l 2
 613 698 604 686 594 680 c 2
 576 669 l 1
 547 696 l 2
 508 733 469 747 396 747 c 2
 334 747 l 1
 294 730 l 2
 232 704 187 665 145 600 c 2
 107 541 l 1
 89 474 l 1
 71 407 l 1
 76 351 l 2
 79 320 94 269 108 238 c 2
 134 181 l 1
 189 127 l 1
 243 72 l 1
 304 49 l 1
 365 25 l 1
 437 24 l 2
 476 23 532 27 561 32 c 2
 613 41 l 1
 620 22 l 1
 627 4 l 1
 609 -14 l 1
 591 -32 l 1
 524 -43 l 2
 449 -55 448 -55 370 -42 c 0
EndSplineSet
Validated: 33
EndChar

StartChar: Euro
Encoding: 164 8364 168
Width: 916
Flags: HW
LayerCount: 2
Fore
SplineSet
528 23 m 0
 456 34 359 69 297 105 c 2
 243 135 l 1
 214 182 l 1
 184 229 l 1
 103 234 l 1
 22 239 l 1
 11 256 l 1
 0 273 l 1
 13 286 l 1
 25 299 l 1
 98 304 l 1
 170 309 l 1
 170 338 l 1
 170 366 l 1
 90 368 l 1
 10 369 l 1
 6 388 l 1
 2 408 l 1
 20 421 l 1
 38 434 l 1
 107 434 l 1
 175 434 l 1
 202 492 l 1
 229 549 l 1
 290 610 l 1
 352 672 l 1
 421 705 l 1
 489 739 l 1
 574 738 l 1
 660 738 l 1
 707 715 l 2
 784 678 849 585 843 521 c 2
 840 489 l 1
 816 489 l 1
 792 489 l 1
 773 541 l 1
 754 593 l 1
 719 623 l 2
 654 680 542 689 451 645 c 0
 391 616 306 538 276 485 c 2
 253 444 l 1
 305 444 l 2
 333 444 399 449 451 455 c 2
 546 466 l 1
 561 452 l 1
 575 438 l 1
 569 421 l 2
 561 399 547 396 380 381 c 2
 240 369 l 1
 236 341 l 1
 233 313 l 1
 301 321 l 2
 339 325 386 329 405 329 c 2
 440 329 l 1
 440 299 l 1
 440 269 l 1
 352 258 l 2
 304 252 262 245 259 242 c 0
 256 239 266 222 280 205 c 0
 312 167 406 122 500 99 c 2
 570 82 l 1
 630 89 l 2
 663 93 704 96 720 97 c 2
 750 99 l 1
 750 74 l 1
 750 49 l 1
 725 37 l 2
 691 21 590 13 528 23 c 0
EndSplineSet
Validated: 33
EndChar

StartChar: cent
Encoding: 162 162 169
Width: 544
Flags: HW
LayerCount: 2
Fore
SplineSet
127 27 m 0
 80 38 36 68 17 100 c 2
 0 128 l 1
 0 200 l 1
 0 271 l 1
 15 314 l 2
 23 338 44 377 62 401 c 2
 94 446 l 1
 145 473 l 1
 196 501 l 1
 202 501 l 1
 202 665 l 1
 221 669 l 2
 231 671 246 667 252 661 c 2
 264 649 l 1
 264 534 l 2
 264 526 264 517 264 506 c 1
 276 507 l 1
 356 512 l 1
 402 490 l 1
 448 467 l 1
 461 438 l 2
 468 422 470 403 466 397 c 0
 454 378 417 385 392 413 c 2
 367 440 l 1
 289 435 l 1
 265 434 l 1
 266 354 267 247 268 151 c 0
 268 130 269 109 269 89 c 1
 295 89 l 1
 357 108 l 2
 425 129 444 125 439 88 c 2
 435 64 l 1
 369 41 l 1
 302 18 l 1
 269 18 l 1
 269 -66 267 -124 264 -128 c 0
 254 -144 232 -141 216 -122 c 2
 202 -105 l 1
 202 20 l 1
 171 21 140 24 127 27 c 0
202 427 m 1
 176 413 l 1
 142 395 l 1
 113 349 l 2
 97 323 77 277 71 246 c 2
 60 190 l 1
 74 152 l 1
 88 115 l 1
 123 103 l 2
 139 97 171 93 202 91 c 1
 202 280 l 1
 202 427 l 1
EndSplineSet
Validated: 33
EndChar

StartChar: oslash
Encoding: 248 248 170
Width: 615
Flags: HW
LayerCount: 2
Fore
SplineSet
279 98 m 0
 303 107 343 126 367 141 c 2
 410 168 l 1
 434 209 l 1
 457 251 l 1
 457 300 l 1
 457 349 l 1
 410 396 l 1
 363 443 l 1
 311 448 l 1
 259 453 l 1
 213 431 l 2
 133 392 70 294 70 208 c 2
 70 166 l 1
 88 138 l 2
 123 85 199 70 279 98 c 0
143 20 m 0
 128 25 99 39 79 51 c 2
 42 74 l 1
 21 115 l 1
 0 157 l 1
 4 225 l 1
 8 292 l 1
 31 338 l 2
 44 364 73 405 95 429 c 2
 135 472 l 1
 189 497 l 1
 243 522 l 1
 285 522 l 2
 339 522 412 500 452 472 c 2
 483 450 l 1
 505 402 l 1
 527 353 l 1
 527 295 l 1
 527 236 l 1
 504 190 l 2
 476 132 425 87 344 49 c 2
 280 19 l 1
 225 15 l 2
 195 13 158 15 143 20 c 0
EndSplineSet
Validated: 33
EndChar

StartChar: yen
Encoding: 165 165 171
Width: 621
Flags: HW
LayerCount: 2
Fore
SplineSet
259 93 m 2
 245 111 l 1
 245 267 l 1
 194 268 150 271 131 275 c 0
 112 279 93 289 88 296 c 2
 80 310 l 1
 89 325 l 1
 98 341 l 1
 245 339 l 1
 245 377 l 1
 194 378 150 381 131 385 c 0
 112 389 93 399 88 406 c 2
 80 420 l 1
 89 435 l 1
 98 451 l 1
 246 449 l 1
 246 474 l 1
 218 490 l 2
 203 499 165 534 134 568 c 2
 77 630 l 1
 38 707 l 1
 0 785 l 1
 11 802 l 2
 17 811 30 819 40 819 c 2
 59 819 l 1
 98 741 l 1
 138 663 l 1
 195 605 l 2
 227 573 259 548 266 548 c 0
 273 548 319 595 368 651 c 0
 417 707 469 762 483 773 c 2
 508 793 l 1
 527 783 l 2
 538 777 546 767 546 760 c 0
 546 753 500 695 443 630 c 0
 386 565 336 505 331 495 c 0
 328 490 324 472 321 447 c 1
 408 445 478 440 482 436 c 0
 487 431 489 419 487 409 c 2
 483 390 l 1
 427 383 l 2
 399 380 357 378 314 377 c 1
 313 364 312 351 311 337 c 1
 403 335 477 331 482 326 c 0
 487 321 489 309 487 299 c 2
 483 280 l 1
 427 273 l 2
 397 270 352 268 306 267 c 1
 304 224 303 183 304 154 c 2
 306 82 l 1
 290 79 l 2
 281 77 267 83 259 93 c 2
EndSplineSet
Validated: 33
EndChar

StartChar: sterling
Encoding: 163 163 172
Width: 725
Flags: HW
LayerCount: 2
Fore
SplineSet
14 26 m 0
 6 42 1 62 4 70 c 2
 10 85 l 1
 51 91 l 2
 142 106 228 161 254 223 c 2
 268 253 l 1
 259 288 l 2
 255 307 245 334 238 349 c 2
 226 377 l 1
 117 377 l 1
 8 377 l 1
 2 393 l 2
 -8 419 16 431 94 442 c 2
 168 452 l 1
 119 507 l 2
 35 600 19 656 61 718 c 0
 73 737 106 764 133 781 c 2
 182 812 l 1
 254 815 l 1
 327 819 l 1
 382 803 l 1
 437 787 l 1
 477 742 l 2
 512 702 529 663 529 621 c 0
 529 613 519 597 508 586 c 2
 487 566 l 1
 473 577 l 2
 465 584 459 604 459 622 c 2
 459 654 l 1
 436 688 l 1
 413 722 l 1
 378 734 l 2
 334 749 229 750 192 736 c 0
 177 730 151 713 136 699 c 2
 109 673 l 1
 109 648 l 1
 109 622 l 1
 185 534 l 1
 261 447 l 1
 394 447 l 1
 528 447 l 1
 534 437 l 2
 537 431 537 418 534 407 c 2
 527 387 l 1
 466 387 l 2
 432 387 380 384 352 381 c 2
 301 374 l 1
 315 341 l 2
 323 323 329 284 329 255 c 2
 329 202 l 1
 304 165 l 2
 290 145 279 125 279 122 c 0
 279 119 333 117 399 117 c 2
 520 117 l 1
 590 133 l 2
 628 142 667 146 675 143 c 2
 690 137 l 1
 687 115 l 1
 684 92 l 1
 657 79 l 2
 642 72 595 62 552 56 c 2
 474 46 l 1
 384 52 l 1
 294 59 l 1
 210 48 l 2
 164 42 107 28 84 17 c 0
 31 -8 32 -9 14 26 c 0
EndSplineSet
Validated: 33
EndChar

StartChar: eth
Encoding: 240 240 173
Width: 814
Flags: HW
LayerCount: 2
Fore
SplineSet
10 315 m 1
 50 400 l 1
 70 467 135 524 201 556 c 2
 257 584 l 1
 337 584 l 2
 422 584 480 569 527 536 c 2
 556 515 l 1
 518 650 l 2
 504 689 491 724 489 726 c 0
 487 728 444 710 393 685 c 2
 330 650 l 1
 311 660 l 1
 291 670 l 1
 294 687 l 1
 297 704 l 1
 365 744 l 2
 419 772 462 798 462 804 c 0
 462 810 449 843 433 879 c 2
 404 943 l 1
 414 961 l 2
 419 971 430 979 438 979 c 0
 455 979 495 919 513 866 c 0
 520 845 530 829 535 829 c 0
 540 829 597 849 662 874 c 2
 730 899 l 1
 746 893 l 1
 762 887 l 1
 762 864 l 1
 762 841 l 1
 715 821 l 2
 689 810 680 807 634 789 c 2
 551 757 l 1
 558 741 l 2
 562 732 576 690 590 649 c 1
 616 374 l 1
 604 310 l 2
 597 275 584 262 570 224 c 1
 530 158 l 1
 486 114 l 2
 409 37 306 2 202 18 c 0
 151 26 103 45 69 79 c 0
 49 100 33 125 27 158 c 2
 10 315 l 1
74 302 m 1
 82 211 l 2
 91 111 199 61 315 90 c 0
 338 96 379 116 405 135 c 2
 452 169 l 1
 472 208 l 2
 496 256 544 338 537 350 c 0
 534 355 535 369 528 369 c 0
 521 369 511 376 508 385 c 2
 502 402 l 1
 518 420 l 1
 525 428 l 1
 508 455 l 2
 488 486 438 508 372 516 c 2
 325 522 l 1
 271 509 l 1
 218 496 l 1
 167 445 l 1
 116 394 l 1
 74 302 l 1
EndSplineSet
Validated: 33
EndChar

StartChar: ordfeminine
Encoding: 170 170 174
Width: 404
Flags: HW
LayerCount: 2
Fore
SplineSet
26 578 m 1
 0 599 l 1
 0 628 l 2
 0 692 52 772 114 804 c 2
 142 819 l 1
 175 813 l 2
 193 810 220 798 235 786 c 2
 262 764 l 1
 258 698 l 1
 255 632 l 1
 295 632 l 1
 335 632 l 1
 335 608 l 1
 335 583 l 1
 310 570 l 2
 296 563 273 557 258 557 c 2
 230 557 l 1
 209 578 l 1
 189 598 l 1
 156 578 l 1
 123 557 l 1
 88 557 l 1
 53 557 l 1
 26 578 l 1
150 669 m 2
 184 716 187 735 163 744 c 2
 147 751 l 1
 108 709 l 2
 87 686 70 659 70 648 c 2
 70 627 l 1
 95 627 l 1
 120 627 l 1
 150 669 l 2
EndSplineSet
Validated: 33
EndChar

StartChar: ordmasculine
Encoding: 186 186 175
Width: 404
Flags: HW
LayerCount: 2
Fore
SplineSet
82 497 m 0
 63 507 37 530 24 549 c 2
 -0 584 l 1
 6 628 l 2
 9 652 24 693 39 721 c 2
 66 771 l 1
 101 795 l 1
 136 819 l 1
 179 819 l 2
 234 819 283 799 310 764 c 2
 332 736 l 1
 332 692 l 2
 332 637 314 593 272 545 c 0
 213 478 150 463 82 497 c 0
205 575 m 2
 235 605 237 614 217 622 c 0
 209 625 195 643 186 660 c 2
 170 691 l 1
 182 720 l 2
 198 758 191 764 154 745 c 0
 118 727 83 674 75 626 c 2
 70 591 l 1
 91 570 l 1
 112 549 l 1
 145 549 l 1
 179 549 l 1
 205 575 l 2
EndSplineSet
Validated: 33
EndChar

StartChar: Oslash
Encoding: 216 216 176
Width: 1096
Flags: HW
LayerCount: 2
Fore
SplineSet
11 -99 m 0
 -9 -79 -3 -62 46 -8 c 0
 72 21 104 56 117 71 c 2
 140 97 l 1
 109 140 l 2
 92 164 71 208 62 238 c 2
 46 293 l 1
 52 359 l 2
 62 478 116 579 237 702 c 0
 328 795 415 854 499 880 c 2
 561 899 l 1
 647 899 l 1
 733 899 l 1
 797 883 l 1
 861 867 l 1
 868 876 l 2
 871 881 902 908 937 937 c 2
 1000 989 l 1
 1020 979 l 2
 1031 973 1039 960 1039 950 c 2
 1039 931 l 1
 968 875 l 1
 898 818 l 1
 919 784 l 2
 930 766 950 718 964 678 c 2
 989 606 l 1
 988 540 l 1
 988 474 l 1
 971 424 l 2
 950 363 879 254 809 176 c 2
 757 119 l 1
 674 79 l 2
 628 57 558 32 517 23 c 2
 444 7 l 1
 369 13 l 2
 328 16 272 26 245 35 c 2
 196 52 l 1
 120 -30 l 2
 78 -75 39 -111 33 -111 c 0
 27 -111 18 -106 11 -99 c 0
516 94 m 0
 580 109 697 164 735 196 c 0
 799 251 902 416 917 486 c 2
 928 538 l 1
 914 573 l 2
 906 592 899 623 899 641 c 0
 899 679 862 759 845 759 c 0
 813 759 239 124 256 108 c 0
 286 79 422 72 516 94 c 0
349 339 m 0
 432 435 566 581 646 662 c 0
 726 743 790 811 787 814 c 0
 784 817 751 824 712 829 c 2
 642 839 l 1
 579 828 l 2
 479 812 393 762 288 657 c 0
 144 513 88 362 133 236 c 0
 148 195 177 156 190 161 c 0
 194 163 266 243 349 339 c 0
EndSplineSet
Validated: 33
EndChar

StartChar: Thorn
Encoding: 222 222 177
Width: 452
Flags: HW
LayerCount: 2
Fore
SplineSet
12 -95 m 2
 0 -81 l 1
 11 184 l 1
 21 449 l 1
 32 470 l 2
 45 495 78 496 91 472 c 2
 101 453 l 1
 92 414 l 2
 87 392 82 369 82 362 c 2
 82 349 l 1
 123 376 l 1
 164 403 l 1
 211 404 l 1
 258 405 l 1
 307 379 l 1
 357 353 l 1
 380 320 l 1
 402 287 l 1
 402 236 l 1
 402 185 l 1
 383 143 l 1
 364 101 l 1
 322 71 l 1
 281 41 l 1
 239 34 l 1
 197 28 l 1
 152 45 l 2
 127 54 99 64 89 67 c 2
 71 72 l 1
 73 -7 l 2
 74 -51 73 -91 69 -98 c 0
 59 -115 27 -113 12 -95 c 2
257 114 m 2
 292 128 l 1
 312 162 l 1
 332 195 l 1
 332 236 l 1
 332 278 l 1
 308 298 l 2
 294 309 269 323 252 330 c 2
 222 342 l 1
 190 333 l 1
 159 325 l 1
 129 288 l 2
 113 268 96 234 92 213 c 0
 88 192 81 167 77 157 c 2
 70 140 l 1
 85 140 l 2
 93 140 120 131 144 120 c 0
 196 96 212 95 257 114 c 2
EndSplineSet
Validated: 33
EndChar

StartChar: germandbls
Encoding: 223 223 178
Width: 680
Flags: HW
LayerCount: 2
Fore
SplineSet
28 -200 m 2
 14 -184 l 1
 7 97 l 1
 0 379 l 1
 8 484 l 2
 25 692 50 749 148 800 c 2
 183 818 l 1
 273 819 l 1
 363 819 l 1
 402 805 l 2
 454 787 514 731 530 686 c 2
 543 649 l 1
 542 564 l 1
 542 479 l 1
 526 443 l 2
 517 423 494 388 475 367 c 2
 440 328 l 1
 484 305 l 1
 528 281 l 1
 558 236 l 2
 595 181 612 121 605 75 c 0
 598 30 553 -33 507 -63 c 2
 471 -87 l 1
 402 -92 l 1
 333 -98 l 1
 288 -74 l 1
 243 -51 l 1
 220 -16 l 1
 197 18 l 1
 200 44 l 1
 203 69 l 1
 228 69 l 1
 253 69 l 1
 265 43 l 2
 272 29 287 9 298 -1 c 2
 319 -19 l 1
 371 -23 l 1
 423 -27 l 1
 458 -9 l 2
 477 1 503 25 516 44 c 2
 540 79 l 1
 535 116 l 2
 532 136 520 169 508 189 c 2
 486 225 l 1
 445 245 l 1
 405 266 l 1
 341 268 l 1
 278 270 l 1
 261 288 l 1
 243 305 l 1
 267 325 l 2
 280 336 301 344 313 344 c 0
 340 344 409 389 437 425 c 0
 448 439 462 472 469 498 c 2
 481 545 l 1
 475 599 l 2
 468 663 446 705 405 729 c 2
 375 747 l 1
 303 752 l 1
 231 756 l 1
 196 745 l 2
 177 739 150 721 135 706 c 2
 108 678 l 1
 92 608 l 1
 76 539 l 1
 71 284 l 1
 67 29 l 1
 77 -81 l 1
 87 -190 l 1
 76 -203 l 2
 62 -220 44 -219 28 -200 c 2
EndSplineSet
Validated: 33
EndChar

StartChar: thorn
Encoding: 254 254 179
Width: 632
Flags: HW
LayerCount: 2
Fore
SplineSet
1 -182 m 2
 -2 -174 2 -105 9 -29 c 0
 16 47 28 235 34 389 c 2
 46 669 l 1
 60 684 l 1
 74 699 l 1
 92 688 l 1
 109 677 l 1
 106 579 l 1
 103 481 l 1
 160 539 l 1
 217 596 l 1
 268 620 l 2
 296 633 335 644 354 644 c 0
 403 644 483 604 520 562 c 2
 552 527 l 1
 564 475 l 1
 576 423 l 1
 569 369 l 1
 563 315 l 1
 533 255 l 1
 503 195 l 1
 452 149 l 2
 424 124 371 87 335 67 c 2
 269 30 l 1
 194 29 l 2
 153 29 111 33 102 38 c 2
 86 46 l 1
 79 -22 l 2
 75 -60 70 -113 66 -141 c 2
 59 -191 l 1
 33 -194 l 1
 7 -197 l 1
 1 -182 l 2
326 140 m 0
 358 159 403 198 428 226 c 2
 474 276 l 1
 489 327 l 2
 509 396 507 440 483 491 c 2
 463 533 l 1
 418 555 l 1
 373 577 l 1
 336 571 l 2
 284 563 227 519 173 447 c 2
 126 386 l 1
 114 338 l 2
 107 311 99 250 97 202 c 2
 93 115 l 1
 141 101 l 1
 188 87 l 1
 228 96 l 2
 250 101 294 121 326 140 c 0
EndSplineSet
Validated: 33
EndChar

StartChar: OE
Encoding: 188 338 180
Width: 1180
Flags: HW
LayerCount: 2
Fore
SplineSet
253 -37 m 0
 197 -25 145 4 113 41 c 0
 73 86 29 176 13 243 c 2
 -0 297 l 1
 5 393 l 1
 11 489 l 1
 33 547 l 2
 45 579 75 633 101 667 c 2
 148 729 l 1
 236 774 l 1
 325 819 l 1
 403 818 l 1
 481 817 l 1
 506 801 l 1
 531 784 l 1
 825 780 l 1
 1118 775 l 1
 1128 760 l 1
 1137 744 l 1
 1121 728 l 1
 1105 712 l 1
 1026 707 l 2
 982 704 864 706 763 713 c 2
 580 725 l 1
 572 717 l 2
 568 712 561 638 557 551 c 2
 550 394 l 1
 649 395 l 2
 703 395 778 399 816 403 c 2
 884 410 l 1
 900 399 l 2
 908 393 913 379 911 369 c 2
 908 350 l 1
 873 342 l 2
 854 338 771 332 690 328 c 2
 543 321 l 1
 543 310 l 2
 543 304 538 260 532 211 c 0
 526 162 524 112 527 98 c 2
 533 73 l 1
 631 79 l 2
 684 83 790 95 865 105 c 0
 940 115 1009 121 1018 118 c 2
 1034 111 l 1
 1031 85 l 1
 1028 59 l 1
 953 47 l 2
 912 40 795 27 693 18 c 2
 508 2 l 1
 475 -18 l 1
 442 -38 l 1
 365 -41 l 2
 323 -43 272 -41 253 -37 c 0
438 45 m 1
 454 61 l 1
 457 135 l 2
 459 176 466 247 472 294 c 0
 478 341 485 455 489 549 c 2
 496 721 l 1
 472 737 l 1
 448 754 l 1
 405 754 l 1
 362 754 l 1
 301 729 l 2
 267 715 225 692 206 678 c 0
 159 642 107 561 87 490 c 2
 71 431 l 1
 75 335 l 1
 79 239 l 1
 104 184 l 2
 118 153 144 111 162 91 c 2
 195 54 l 1
 241 39 l 1
 288 24 l 1
 355 27 l 1
 423 30 l 1
 438 45 l 1
EndSplineSet
Validated: 33
EndChar

StartChar: periodcentered
Encoding: 183 183 181
Width: 228
Flags: HW
LayerCount: 2
Fore
SplineSet
23 362 m 2
 0 378 l 1
 0 403 l 1
 0 428 l 1
 26 445 l 1
 52 462 l 1
 88 445 l 1
 123 428 l 1
 123 408 l 2
 123 382 89 346 64 346 c 0
 54 346 36 353 23 362 c 2
EndSplineSet
Validated: 1
EndChar

StartChar: mu
Encoding: 181 181 182
Width: 432
Flags: HW
LayerCount: 2
Fore
SplineSet
14 81 m 2
 0 97 l 1
 2 394 l 1
 4 690 l 1
 22 744 l 2
 32 774 47 802 57 808 c 2
 75 819 l 1
 91 803 l 1
 106 787 l 1
 89 728 l 1
 71 669 l 1
 71 594 l 1
 71 519 l 1
 90 479 l 1
 110 439 l 1
 149 427 l 2
 170 420 197 417 207 420 c 2
 226 426 l 1
 264 503 l 1
 302 579 l 1
 315 684 l 2
 322 742 328 793 331 797 c 0
 339 809 371 805 383 791 c 2
 394 778 l 1
 380 654 l 2
 372 586 362 489 358 439 c 2
 350 349 l 1
 324 346 l 1
 297 343 l 1
 291 369 l 1
 285 395 l 1
 263 375 l 1
 241 354 l 1
 193 354 l 2
 166 354 128 361 108 369 c 0
 88 377 71 384 68 384 c 0
 65 384 64 318 66 237 c 0
 68 156 66 84 62 77 c 0
 51 60 30 61 14 81 c 2
EndSplineSet
Validated: 33
EndChar

StartChar: Scaron
Encoding: 166 352 183
Width: 627
Flags: HW
LayerCount: 2
Fore
SplineSet
220 847 m 0
 153 884 49 958 19 991 c 0
 -7 1019 -7 1045 19 1061 c 2
 36 1072 l 1
 84 1027 l 2
 111 1002 163 963 201 939 c 2
 270 894 l 1
 284 914 l 2
 292 925 325 968 359 1011 c 2
 420 1089 l 1
 435 1086 l 2
 443 1084 455 1075 461 1066 c 2
 472 1049 l 1
 439 1006 l 2
 421 982 383 931 355 891 c 2
 304 818 l 1
 288 818 l 2
 280 818 249 831 220 847 c 0
106 41 m 2
 83 51 61 69 57 79 c 2
 50 97 l 1
 65 113 l 1
 81 128 l 1
 124 108 l 1
 168 89 l 1
 240 90 l 2
 280 91 339 98 372 108 c 2
 433 126 l 1
 462 155 l 2
 498 191 498 197 465 236 c 0
 430 277 353 312 213 350 c 2
 97 382 l 1
 64 407 l 2
 -24 474 -21 577 72 661 c 0
 123 707 182 737 247 749 c 2
 299 759 l 1
 366 748 l 2
 403 742 445 730 461 721 c 0
 506 694 511 644 468 630 c 2
 446 624 l 1
 429 644 l 2
 411 666 351 687 305 687 c 0
 264 687 184 658 141 627 c 0
 97 595 71 556 71 520 c 2
 71 495 l 1
 101 470 l 1
 131 444 l 1
 216 422 l 2
 390 377 498 323 538 262 c 2
 555 236 l 1
 555 196 l 2
 555 144 533 112 476 78 c 0
 411 40 335 22 235 22 c 2
 148 22 l 1
 106 41 l 2
EndSplineSet
Validated: 33
EndChar

StartChar: scaron
Encoding: 168 353 184
Width: 468
Flags: HW
LayerCount: 2
Fore
SplineSet
88 25 m 2
 48 39 31 56 31 80 c 0
 31 103 59 104 128 87 c 2
 195 71 l 1
 253 81 l 2
 285 87 319 100 330 110 c 2
 349 127 l 1
 346 153 l 1
 343 178 l 1
 301 211 l 2
 278 229 213 260 157 282 c 2
 56 321 l 1
 28 349 l 1
 0 377 l 1
 0 407 l 2
 0 448 47 516 93 542 c 2
 131 563 l 1
 186 563 l 1
 241 563 l 1
 265 547 l 1
 288 531 l 1
 285 493 l 1
 282 456 l 1
 258 452 l 1
 234 449 l 1
 228 470 l 1
 223 492 l 1
 199 498 l 1
 174 504 l 1
 138 485 l 2
 118 475 93 454 84 439 c 2
 68 411 l 1
 80 396 l 2
 87 388 121 371 156 358 c 0
 191 345 252 319 290 299 c 2
 359 263 l 1
 390 227 l 1
 420 190 l 1
 420 148 l 1
 420 105 l 1
 398 77 l 2
 386 61 357 40 334 30 c 2
 292 11 l 1
 210 11 l 1
 128 11 l 1
 88 25 l 2
130 627 m 0
 63 664 -41 738 -71 771 c 0
 -97 799 -97 825 -71 841 c 2
 -54 852 l 1
 -6 807 l 2
 21 782 73 743 111 719 c 2
 180 674 l 1
 194 694 l 2
 202 705 235 748 269 791 c 2
 330 869 l 1
 345 866 l 2
 353 864 365 855 371 846 c 2
 382 829 l 1
 349 786 l 2
 331 762 293 711 265 671 c 2
 214 598 l 1
 198 598 l 2
 190 598 159 611 130 627 c 0
EndSplineSet
Validated: 33
EndChar

StartChar: Ydieresis
Encoding: 190 376 185
Width: 621
Flags: HW
LayerCount: 2
Fore
SplineSet
373 832 m 2
 350 848 l 1
 350 873 l 1
 350 898 l 1
 376 915 l 1
 402 932 l 1
 438 915 l 1
 473 898 l 1
 473 878 l 2
 473 852 439 816 414 816 c 0
 404 816 386 823 373 832 c 2
123 832 m 2
 100 848 l 1
 100 873 l 1
 100 898 l 1
 126 915 l 1
 152 932 l 1
 188 915 l 1
 223 898 l 1
 223 878 l 2
 223 852 189 816 164 816 c 0
 154 816 136 823 123 832 c 2
259 43 m 2
 245 61 l 1
 245 242 l 1
 246 424 l 1
 218 440 l 2
 203 449 165 484 134 518 c 2
 77 580 l 1
 38 657 l 1
 0 735 l 1
 11 752 l 2
 17 761 30 769 40 769 c 2
 59 769 l 1
 98 691 l 1
 138 613 l 1
 195 555 l 2
 227 523 259 498 266 498 c 0
 273 498 319 545 368 601 c 0
 417 657 469 712 483 723 c 2
 508 743 l 1
 527 733 l 2
 538 727 546 717 546 710 c 0
 546 703 500 645 443 580 c 0
 386 515 336 455 331 445 c 0
 319 423 301 199 304 104 c 2
 306 32 l 1
 290 29 l 2
 281 27 267 33 259 43 c 2
EndSplineSet
Validated: 33
EndChar

StartChar: macron
Encoding: 175 175 186
Width: 977
Flags: HW
LayerCount: 2
Fore
SplineSet
60 699 m 2
 43 703 l 1
 46 729 l 2
 48 743 57 759 65 763 c 0
 73 767 262 776 484 782 c 2
 888 792 l 1
 902 781 l 2
 910 775 915 760 913 748 c 2
 909 727 l 1
 541 715 l 2
 338 708 151 701 125 699 c 0
 99 697 70 697 60 699 c 2
EndSplineSet
Validated: 33
EndChar

StartChar: logicalnot
Encoding: 172 172 187
Width: 977
Flags: HW
LayerCount: 2
Fore
SplineSet
60 339 m 2
 43 343 l 1
 46 369 l 2
 48 383 57 399 65 403 c 0
 73 407 262 416 484 422 c 2
 888 432 l 1
 900 423 l 2
 903 422 905 420 907 418 c 2
 919 406 l 1
 919 291 l 2
 919 228 921 306 923 158 c 0
 925 10 923 45 919 39 c 0
 909 23 887 26 871 45 c 2
 857 62 l 1
 857 287 l 1
 857 365 l 1
 541 355 l 2
 338 348 151 341 125 339 c 0
 99 337 70 337 60 339 c 2
EndSplineSet
Validated: 33
EndChar

StartChar: paragraph
Encoding: 182 182 188
Width: 754
Flags: HW
LayerCount: 2
Fore
SplineSet
278 -114 m 2
 267 -103 l 1
 267 21 l 2
 267 89 263 279 260 443 c 2
 254 741 l 1
 212 728 l 2
 152 710 115 686 90 650 c 2
 68 618 l 1
 68 584 l 2
 68 565 75 541 82 531 c 2
 95 512 l 1
 160 508 l 1
 224 503 l 1
 226 489 l 2
 227 481 225 469 220 462 c 2
 212 448 l 1
 165 444 l 1
 118 439 l 1
 76 458 l 1
 34 477 l 1
 17 512 l 1
 -0 548 l 1
 4 599 l 1
 8 650 l 1
 36 690 l 1
 64 730 l 1
 133 764 l 1
 203 799 l 1
 273 809 l 2
 312 815 395 819 458 819 c 2
 574 818 l 1
 606 807 l 2
 624 801 642 788 648 779 c 2
 659 762 l 1
 640 748 l 1
 622 734 l 1
 607 740 l 2
 599 743 565 748 531 751 c 2
 470 756 l 1
 471 459 l 2
 472 296 476 109 479 44 c 0
 482 -21 482 -82 479 -91 c 0
 472 -110 443 -111 427 -92 c 2
 416 -78 l 1
 411 338 l 1
 406 754 l 1
 367 751 l 1
 328 749 l 1
 328 323 l 2
 328 89 324 -108 320 -114 c 0
 310 -129 293 -129 278 -114 c 2
EndSplineSet
Validated: 33
EndChar

StartChar: exclamdown
Encoding: 161 161 189
Width: 160
Flags: HW
LayerCount: 2
Fore
SplineSet
110 443 m 2
 133 428 l 1
 133 403 l 1
 133 378 l 1
 107 361 l 1
 81 344 l 1
 45 360 l 1
 10 377 l 1
 10 398 l 2
 10 424 44 459 69 459 c 0
 79 459 97 452 110 443 c 2
89 262 m 2
 100 250 l 1
 106 -63 l 1
 113 -376 l 1
 99 -395 l 1
 86 -413 l 1
 66 -409 l 1
 46 -406 l 1
 43 -79 l 1
 41 247 l 1
 52 261 l 2
 66 278 76 278 89 262 c 2
EndSplineSet
Validated: 33
EndChar

StartChar: questiondown
Encoding: 191 191 190
Width: 589
Flags: HW
LayerCount: 2
Fore
SplineSet
250 -49 m 2
 227 -33 l 1
 227 -8 l 1
 227 17 l 1
 253 34 l 1
 279 51 l 1
 315 34 l 1
 350 17 l 1
 350 -3 l 2
 350 -29 316 -65 291 -65 c 0
 281 -65 263 -58 250 -49 c 2
227 160 m 1
 207 181 l 1
 207 217 l 2
 207 268 234 315 322 418 c 0
 417 529 444 571 445 615 c 0
 447 678 388 736 308 749 c 2
 270 756 l 1
 217 733 l 1
 165 710 l 1
 130 670 l 1
 95 629 l 1
 81 567 l 1
 67 505 l 1
 51 495 l 1
 34 484 l 1
 17 498 l 1
 0 513 l 1
 7 559 l 2
 22 664 80 746 172 791 c 2
 229 819 l 1
 287 819 l 1
 345 819 l 1
 395 794 l 1
 446 770 l 1
 476 731 l 1
 507 693 l 1
 512 637 l 1
 516 580 l 1
 490 526 l 2
 475 496 426 429 381 377 c 0
 295 278 278 254 278 229 c 2
 278 214 l 1
 309 203 l 2
 361 185 342 140 281 140 c 2
 247 140 l 1
 227 160 l 1
EndSplineSet
Validated: 33
EndChar
